<?xml version="1.0" encoding="UTF-8"?>
<svg id="Layer_1" xmlns="http://www.w3.org/2000/svg" xmlns:xlink="http://www.w3.org/1999/xlink" version="1.1" viewBox="0 0 178.1 248.7">
  <!-- Generator: Adobe Illustrator 29.8.1, SVG Export Plug-In . SVG Version: 2.1.1 Build 2)  -->
  <defs>
    <style>
      .st0 {
        fill: #b7d4e7;
      }

      .st1 {
        fill: #819e3d;
      }

      .st2 {
        fill: #487d3a;
      }

      .st3 {
        fill: #dbe1e7;
      }

      .st4 {
        fill: #607935;
      }

      .st5 {
        fill: #e8f3e2;
      }

      .st6 {
        fill: #336330;
      }

      .st7 {
        fill: #69a042;
      }

      .st8 {
        fill: #486e33;
      }

      .st9 {
        fill: #becd40;
      }

      .st10 {
        fill: #a9c352;
      }

      .st11 {
        fill: url(#linear-gradient);
      }

      .st12 {
        fill: #eded90;
      }

      .st13 {
        fill: #98ac4e;
      }

      .st14 {
        fill: #67863a;
      }

      .st15 {
        fill: #1b2915;
      }

      .st16 {
        fill: #a5c5b6;
      }

      .st17 {
        fill: #96ad3b;
      }

      .st18 {
        fill: #cde2cc;
      }

      .st19 {
        fill: #bad2ca;
      }

      .st20 {
        fill: #fefefa;
      }

      .st21 {
        fill: #849f56;
      }

      .st22 {
        fill: #bcd7b2;
      }

      .st23 {
        fill: #5e8c3d;
      }

      .st24 {
        fill: #88a975;
      }

      .st25 {
        fill: #f4f1de;
      }

      .st26 {
        fill: #23361a;
      }

      .st27 {
        fill: #ccd8a7;
      }

      .st28 {
        fill: #dde2bf;
      }

      .st29 {
        fill: #bcc77c;
      }

      .st30 {
        fill: #284a22;
      }

      .st31 {
        fill: #d9e699;
      }

      .st32 {
        fill: #dad889;
      }

      .st33 {
        fill: #b3c390;
      }
    </style>
    <linearGradient id="linear-gradient" x1="452.7" y1="651.4" x2="462.8" y2="-77.5" gradientTransform="translate(-45.7 206.7) scale(.3 -.3)" gradientUnits="userSpaceOnUse">
      <stop offset="0" stop-color="#bece43"/>
      <stop offset=".4" stop-color="#9cb741"/>
      <stop offset=".4" stop-color="#94b13e"/>
      <stop offset="1" stop-color="#3a7036"/>
    </linearGradient>
  </defs>
  <g id="Generative_Object">
    <path class="st11" d="M154.6,40.1l1.5-.6c31.9,44.9,6.7,92.9-18.2,134.2-10.6,17.6-26.6,43-40.5,57.8-4.8,5.1-5.1,7-10.6,1.7-.2-.1-.4-.7-.6-.9-25.5-26.2-63.5-90.7-72.6-126C3.4,66.7,26,22.9,65,10c-.2.7.6.6.6.8s-.8.5-.6,1.1c-.5.2-3.7,1-3.6,1.4,43.1-14.9,92.2,8.6,104.5,53.1-1.7-8.8-6.2-18.6-11.3-26v-.3Z"/>
    <g>
      <path class="st23" d="M157,106.3c7.7-25,.6-49.8-17.8-67.8-1.3-1.2-2.3-2.2-3.6-3.3C83-8.9,4.7,42.2,26.4,107.8l-1.2.5C5,50.4,63.1-3.2,119.7,21s50.5,50.9,39.2,83c-.3.9-.6,2.6-1.8,2.3h-.1Z"/>
      <path class="st20" d="M154.6,40.1c5.2,7.4,9.6,17.2,11.3,26C153.6,21.6,104.5-1.9,61.4,13c0-.4,3.1-1.2,3.6-1.4,32.7-10.8,69.8,0,89.5,28.4h.1Z"/>
      <g>
        <path class="st0" d="M135.5,35.2l-4.2,3.6c-2.2-2.1-6.6-4.8-9.4-6.4-9.2-5.3-19.2-8.1-29.9-8.2s-.4,0-.6,0c-31.1,0-40.9,15.8-58.7,37.1-1,1.2-3.5,2.5-3.6,2.7-3.9,4.9-3.8,26.3-2.7,32.7,13.3,81.6,142.9,65.1,130.1-21.5-.2-1.1-2.3-10.2-2.7-10.6s-.8.4-1.1.2c-7.2-6.8-12.7-14.1-18.6-21.9s.4-.3.3-.5l4.8-3.9c18.4,17.9,25.6,42.7,17.8,67.8-2.6,8.6-7.6,17.1-13.3,23.9-3.1-.3-5.3,3.8-7.7,5.7-22.6,18.7-52.1,22.3-78,7.9-8.2-4.6-14.4-11.3-21.6-16.9-4.4-6-7.6-12-10-19.1C4.7,42.2,83-8.9,135.6,35.2h0Z"/>
        <path class="st12" d="M143.7,130.2c-28.8,34.2-80.8,32.6-107.4-3.3,7.2,5.6,13.4,12.4,21.6,16.9,26,14.4,55.5,10.8,78-7.9,2.4-2,4.6-6.1,7.7-5.7h0Z"/>
        <path class="st20" d="M121.9,32.5l-1.7,4.5c-5.9-2.8-13.5-5.6-20-6.1s-4.8-.7-5.3,1.1l2.7.3c-1.4.6-3.1,1.1-4.5,1.7l1.2-3.5-2.7,2.7.3-8.9c10.7.1,20.8,2.9,29.9,8.2h.1Z"/>
        <path class="st0" d="M139.2,38.6l-4.8,3.9c-.9-1.1-2-2.7-3-3.6l4.2-3.6c1.3,1.1,2.4,2.1,3.6,3.3h0Z"/>
        <g>
          <path class="st3" d="M91.4,24.3c-.7,2.9-1.7,5.6-.9,8.6l-2-1.4c-.4.2.4,2.9,1.1,3.2l-2.7-.3c.6,2.7,4.9,1.8,3.2,4.4l-2.3-1.1c.4,1.3,2,1.7,2.7,2.3-.9,1.8-3.5-1.6-4.8-2.4-6.6-4.1-.7,1.8,0,2.9,1.4,2.1,1.1,4.6,4.8,5.1-.4.3-.8.3-1.2.5-3.8,1.1-6-2.4-9.4-3.2,2.4,2.4,4.6,5.2,8.2,5.9,0,.3-.5.5-.3.8s.7,0,.9.2c.8.4,1.3-.5,1.4.9-2,0-1.5.9-3.5.3s-6.7-5.2-7-3.8c.6.8,1.6,3.4,2.1,3.9s2.2.7,2.3.8c.4.4-.2.7-.2.8.4.4,1.7,1.4,2.1,1.7,1.7,1.1,3.2,1.8,5.1,2.4.2.7-.3.9-.3.9l-3.9-1.1c1.2.8,2.4,3.8,3.9,3.2,0,0,.4,1.2-.2,1.5-2.1-.9-3.2-.9-5.3-.3s-1.9.3-2.4,1.4l4.2,1.2c-2.8,1.1-5.1,1.5-8,.5s-5.3-4-8.5-4.2c-1,.3.6,2,.8,2.3.2.5-.5,1-.3,1.2.5.7,3.1-.9,3.6.6,0,.3-4.3,1.9-2.6,2.3,3.5-1.8,2.8.2,3,.3.5.2.9-.4,1.5-.3s0,1.2.6.9c.9-.5-1.3-1.3,3.2-1.5,0,.6.2,1,.3,1.5l-1.1-.9c-.1.6-2.4,2-2.7,2.1s-.5-.6-.6-.6c-1.5.5-3.3,1.5-5.3,1.7.8,1,3.3.1,3.5.2.6.1,1.7,1.5,2.1,1.5s1.6-1,1.8-.9c.7.1.3,1.4,0,1.5-1.3.6-11-2.3-13-2.7.6,1.8,2.7,1.9.6,3.3,1.5.3,2.7,0,2.4,1.8,1.2-.6,1.7-.8,2.9,0-.2.3-.5.6-.6.9-.2,0-1.8,0-1.7,1.2,1.3.2,2.2.1,3.5-.3l1.5.2c-.1,1.6-3.8,3.4-.8,4.1s3.1-2.4,5.6-2.3l-2.1,3c.2,1.5.8,0,1.4.2s.7.9.9.9c2.6.3,2.4-1.4,3.8-2.7l.2,4.8c-1.6-1-2.5.6-3,.6-2.6.2-5.3-1.5-8-.5,2.2.6,4.7,1.6,7,2v.6h-1.2c-1.9.3-3.5,2.8-4.2.3s.8.2.6-.5c-.7-.6-.6.4-.6.5-2.5,1.1-3.2.5-5.9.6,1.2-2.4-1.2-.9-2.4-.9s.1-.5-.6-.6-.4.9-.9.6.8-.7-1.4-2.1c1.3-1.6-1.6-1.6-2.7-1.2-2.5.9.6.7.3,1.7l-2.1.9,2.6.5c-1.1,2.3-.2,1.8,1.8,1.2l.3,1.5,1.8-.9.3,1.5c2.4-1.9,1.3,0,1.8.3s2.7-.8,3-.6-1.2,2.1,2.7.3l-1.1,1.7c.4,1.5,3.9-2.1,2.9,1.1.5.1,1.2-2.8,2.3-1.4-.5,1.8-2.7,1.9-3.8,2.6s0,1.4-.6,1.5c-1.1.1-4.8-1.8-6.7-.6-.3.2-.2.6,0,.9.4.6,8.8.1,10.1,0s1.9-1,3-.5c-.3.8-2,1.8-2.7,2-3.6,1-8.6.4-12.3,0-.4.8.7.6,1.4.9,0,.9-3.5,1.3-3.8,1.2-1-.4,0-1.5-.2-2-.3-.7-7.3-1.9-7.4.5,2.8-.9,2,2,4.7.8l-1.7,2.3c.5.2,2.9-.7,3-.6.3.2-.3,2.3,2.4.3l-.5,2,.8.8c1.5-.4,2,.3,3-1.2l.9,1.2,1.8-1.8-.6,3c1.2-1,3.3-1.3,4.4-2.1,1.6.6,0,1.7.3,2,.3.5,1.8-.3,1.8.6s-9.6,3.7-9.7,4.2c-.2,1.3,4.5-.5,5.3-.8,2.2-.9,4.2-2.5,6.2-3.6s3.6-2.9,5.6-4.2,1.5.5,2.4-.3,1.3-3.3,1.8-3.3l.8,1.1c-4.3,3.2,1,4.3,2.9,1.1l.5,6.1s-.2-.1-.3.3l-1.4-1.2c-.8,3-3.5.4-4.8,3-1.3.1,2.1-5.3,1.8-5.4-2.4-.2-3.5,2.7-4.7,3.6-2.1,1.5-8.2,3.3-10.9,4.5s-1.4,1.4-1.7,1.5c-.4.1-4.5-1.5-5.6-.3-1-.4-9.7-1.2-10-.8,2.1.4,1.5,2.2,1.7,2.3.6.3,3.7-1.9,1.8,2.1,2.2-.5,3.3-1,2.9,1.8-1.2,1-1.4,2.6.5,1.2.2,3.6,1.8.7,3,1.2s0,1.1.6,1.2,2.2-2.2,2.7-1.8l-.5,2c2.4-.9,2,.4,2.3.5s2.7-2.4,3.2-2.7c1.3.1-.8,1.8-.2,2.1s3,.6,3.8,1.4c-1.4,1.5-3.4.9-5.1,1.1-4.4.5-8.6,1.4-12.9,1.8s-7-.3-8.2,0-.7.7-.3.9c2.6-.5,1.5,1.7,1.8,1.8s2.9-1,3-.9c.6.2.4,1.1.6,1.2s1.7-.4,2.3.3c-.3.2-2.4,1.8-2.4,2,.6,1.7,3.7-.6,3.9,0-.1.3-3.8,2.5-2,2.9s3.7-3.1,3.9-3,0,1.1.6,1.2.9-.6.9-.6c0,0,0,.9,1.5.6s1.2-1.1,1.7-1.2l.6,1.4-5.7,3.9c.3.4.4.4.9.5s1.3-.6,1.4-.6c.3,0,1,.5,1.8.3s2.9-3,2-.2c.2.4,6.1-2.2,7.3-2s.3.8,1.2.6c-.6.6-.5.6-1.5.8,1.9.5.8,2.1,1.4,2.6.8.6,3.5-2.4,4.1-2.7s1.1-.3,1.4-.9l.2,1.7c1.3,1.7,8.9-7.4,9.1.5-.4.2-.8.3-1.2.6-1.7-2.3-1.6-.4-2.3-.3s-1.5-.5-2.1-.3-3.2,2-4.4,2.3c1.1,1.2,4.4-.4,4.8.9s-1.4,1.9,1.2,1.4,1.9-1.2,2.9-1.5.7.7,1.2.6,1.4-1.7,1.8-1.8,2.7.7,3.9.6.6-1,1.2-.9,2.7,3,3.9,2.4-1-1.3,1.4-.9,2.1,1,3.5.9c.6-.3-.4-1.4-.5-1.8s-.9-1-.2-1.5c1.8,1.2,2.7-.1,4.2,0s2.2,1.8,3.2.8c.5-1.1-2-5.9-.8-6.2.5.3,2.8,3,3,3,1.3.1.5-1,.9-1.2s1.6,1,2.4.6,0-1.4.9-1.5,2.1,1.6,2.7,1.8c1.5.5,3.3.6,4.8.9s2.1,2.4,3.5-.2l-2.4-4.5c.9-.9,3,1.4,3.2,1.4.4,0,1.7-1.5,3.6-.3.3-1.5-1.9-1.2-2.6-2,2.2.8,2.7-1.6,2.9-1.7.3-.2,2.6-.2,3.3-.6,1.4-.8-.5-1.4,1.1-2.3-.1-.9-6.3,1.3-7.4,1.4-3.2.3-8.2,0-10.6-1.8,1.5.4,15,.9,14.4-1.1-1.2-1.1-3.3,0-4.4-.2-1.6-.1,1-2.5,1.5-2.7s1.7.2,2.1,0-.4-1.1.3-1.2,2.5,1.1,3.9,0l-1.4-1.1c4-3.3-4-1.5-4.2-1.2s.2,1.4-.2,1.7c-.6.5-2.8-2.1-3.5,0,0,0,.4-1.7-.2-1.8-4.8,1.2-9.3-1-13.5-3s-2.2-.6-2.4-1.7c.7-2.6,11.2,4,13,2.1-5.1-2.5-10.5-3.9-16.2-4.1l-.5,2.1c-.4-.2-.3-.3-.3-.3-.2-.2-.3-2.2-1.4-2.7-1.6-.8-1.6,1.3-2.1,1.2s-.9-2.3-1.5-2.4c-1.2-.3-2.1,2.6-2.9-.9,2.7-1.4,6.8.5,10,1.2s1.2-.1,1.7,0c.7.2,2.8,1.8,3,1.8s.2-1.3,1.8-.9,0,.7.3.9c.6.3.4-.9.6-.9,1.2-.3,2.2,1.2,2.7,1.2s1-.9,1.2-.9c.3,0,1.3,1,2.1.9s.5-.9.6-.9c1-.2,3.1-.1,4.2-.3.9-.6-.6-1.3,1.4-2-.9-2-3.7,0-4.4.2-1.1,0-2.8-.6-3.3-.6s-.5.9-.6.9c-.6,0-4.3-1.5-4.8-2.4-.5,3.2-.7,1.2-2.3,0l.8-1.2,12.6.2c-2.1-.6-4.4-1.4-6.5-1.7-3-.4-7,.6-9.2-.9l10.7-.6c-1-1.6-4.5-.4-4.7-2.4,0,0,.2-.6.5-.6s1.6.6,2.4.3-.1-1,.3-1.2,2.1.2,2.7,0,0-.9.6-1.2,1,.1,1.2,0c6.4-4.2-4.2-4.4-4.5.6-.9.3-1.8-1.5-2.1-1.5-1.7-.2.3,2.7-3.5.3s-.7.3-1.4.3-3.1.1-3.6,0-1-1.2-1.1-1.2c0-.1.6-.6.6-.6,1.3-.2,3.8,1.3,3.9-.6.6,0,1.8.2,2.1-.5.6-2-1.4-.9-1.4-2.3,3.3,1.8,3.4-.2,4.7-2.6-.4-1.2-6.6,2.2-7.9,2.6s-.4,0-.6,0c-4.6,1.2-6.1,1.7-10.3-.3l.6-.9c3.2,1.6,3.9,0,5,0,3-.1,5.2.4,8.2-.6-1.5-1.6-4.7.2-7-.6s.3-.5-.2-.9c-.8-.7-.8-1.5-2.7-1.5.8-1.1,0-1.4-.3-2.1l1.2-.5-.5-2.3c2.8,1.3,2.2,0,4.4-1.1-1.7-2.7,3,.9,3-2v-.6c1.3,0,1.8-1.3,2.4-2.3s-.9-.2-.6-.6,4.3-3.6,2.6-4.1c-2.2,1.5-10.3,3.8-11.6,5.1-1.8-.1-5.5,1.6-6.4-.6s-.3-3.6.2-3.9c1.4,2.3,1.6.7,2.1.9s.9,1.3,1.5,1.2,1.1-2.3,1.5-2.4,3.7,2.4,3-1.8l2.6.5-1.7-2c2,1.9,2.8.9,5-.2-1.4-1.5-4,.6-5.1-2.1,1.3-2.3,3.3-3.1,4.5-6.1-1.1-1-1.3.5-2,.8-5.3,1.9-10.1,4.6-15.7,5.7s-1.5.2-1.4-.6c.9-2.3,9.2-1.4,4.8-4.2.7-.4,1.2-.8,1.8-1.2s0-.9.5-.9c.8-.1,1.7.6,2.4.3s-.1-.9.3-1.2,1.5-.3,1.5-.3c1.8-1.4-.1-1.9-.2-2.3s.8-.6.9-1.1-.6-1.1.6-2.4h.3c1.7-.6-.3-1.1-.3-1.7s1.3-2.1.9-2.7c-.3.5-1.7,1.7-1.8,2-2.3,1-6.4,5.5-7.9,2.3,2.9-.3,3.3-1.9,4.2-4.4s1.6-1.2.8-2.4l-1.7,2.1c-2,.2-5.2,2.9-7.6,3v-.9l4.8-4.1c-2.7-.8,0-.7.6-1.5l2.4-7.3c-1.9,1.9-4.2,8-7.7,7.4s-.4-.9-.5-.9c2.6-.9.5-1.8.6-2.3s2.4-1.7,2.7-2.1l-2.4-.3c2.4,0,2.8-1.9,4.5-3,0-1.9-4.7,2.5-5.4,1.2.3-.4.8-.6,1.2-.8,1.4-.6,3.1-1,4.5-1.7l-2.7-.3c.5-1.8,3.7-1.2,5.3-1.1,6.5.5,14.1,3.3,20,6.1l1.7-4.5c2.7,1.6,7.2,4.2,9.4,6.4s2.2,2.5,3,3.6-.3.4-.3.5c5.9,7.9,11.5,15.1,18.6,21.9s.8-.4,1.1-.2c.4.4,2.6,9.4,2.7,10.6,12.8,86.6-116.8,103-130.1,21.5-1-6.3-1.1-27.8,2.7-32.7s2.6-1.5,3.6-2.7c17.7-21.2,27.6-37,58.7-37.1l1.3-.8Z"/>
          <g>
            <g>
              <path class="st14" d="M92,24.3l-.3,8.9,2.7-2.7-1.2,3.5c-.4.2-.9.4-1.2.8.8,1.3,5.5-3.1,5.4-1.2-1.7,1.2-2.1,3-4.5,3l2.4.3c-.3.4-2.7,1.9-2.7,2.1,0,.5,2,1.4-.6,2.3-.2,0-.4.3-.5.3-.4-.3-1-1.5-1.1-1.5-.7-.6-2.4-1-2.7-2.3l2.3,1.1c1.8-2.5-2.5-1.7-3.2-4.4l2.7.3c-.7-.3-1.5-3-1.1-3.2l2,1.4c-.8-3,.3-5.7.9-8.6h.7Z"/>
              <path class="st1" d="M77.6,47.9c1.2-.9,4,4.9,4.7,5.6l-1.5.3c2,1.7.8,2.9.9,3,.3.4,1.6,0,2,.2,1,.5.5,1.8,1.7,2.3l-.5.5c-1.1.6-4.8,1.3-5.3-.2s1.5-1,.5-1.7l-4.4-.8,3.6-1.2-3.3-1.5,3-.6-2.4-1.8c.4-.8,1.6.3,1.8,0s-1.5-3.5-.8-4.1h0Z"/>
              <path class="st2" d="M113.4,112.7l.2,1.8c-.6-1.2-1.8-1.1-2-1.2-.6-.3-1.1-.4-1.8-.9s-.6-1.2-1.1-1.5-.6.6-1.4.3l.5-2.1c5.7.2,11,1.6,16.2,4.1-1.8,1.9-12.3-4.7-13-2.1.3,1.1,1.7,1.3,2.4,1.7h0Z"/>
              <path class="st8" d="M113.1,92.1c-1.9-.1-2.2-1.1-2.4-2.7,1.2-.3,7.5-3.7,7.9-2.6-1.3,2.3-1.4,4.3-4.7,2.6,0,1.4,1.9.3,1.4,2.3-.3.6-1.5.5-2.1.5h0Z"/>
              <path class="st17" d="M86.5,51c-.9,2.3,2.7,1.2-.6,3.3-.4-.3-1.7-1.3-2.1-1.7s.6-.3.2-.8-1.7-.1-2.3-.8-1.5-3.2-2.1-3.9c.2-1.4,6.2,3.6,7,3.8h-.1Z"/>
              <path class="st30" d="M85.9,135.7c-.9.6-5.3,3.5-2.7,3.9-2.6.6-1.1-1-1.2-1.4-.4-1.3-3.7.3-4.8-.9,1.2-.2,3.6-2,4.4-2.3s1.3.4,2.1.3.6-2,2.3.3h0Z"/>
              <path class="st1" d="M89.2,46.1c-.3,1-1.1,1.5-1.2,2.7-3.5-.7-5.8-3.5-8.2-5.9,3.3.8,5.5,4.3,9.4,3.2h0Z"/>
              <path class="st9" d="M90.8,57.6v2.1c-1.6.6-2.7-2.4-3.9-3.2l3.9,1.1h0Z"/>
              <path class="st7" d="M70.8,74.9c.6-.1,2.6-.1,3.3-.3-.1,0,.5.6-1.5,1.2s-2.1.5-3.5.3c-.1-1.3,1.5-1.2,1.7-1.2Z"/>
              <path class="st31" d="M100.7,45.8c-.4-.1-.4-.4-.9-.3l1.7-2.1c.8,1.2-.6,2-.8,2.4h0Z"/>
              <path class="st33" d="M71.2,77.3s.6.4.3.6c-1.7.3-.7-.6-.3-.6Z"/>
              <path class="st21" d="M83.7,40.4c.6-.1.6.5.3.9,0-.2-.5-.7-.3-.9Z"/>
              <path class="st2" d="M73.5,87s-.1-1,.6-.5c.2.6-.6.4-.6.5Z"/>
            </g>
            <path class="st18" d="M69.1,77.3s.6.4.3.6c-.8.4-.9-.5-.3-.6Z"/>
          </g>
        </g>
        <g>
          <path class="st30" d="M111.6,113.3c1.2,3,2.3,6.6,5.9,7.6l2.7-3.3c4.5,4.9,2.6.5,3.3,0s1.9,2.8,3.5,0c.7-2.1,2.8.5,3.5,0s0-1.4.2-1.7,8.3-2.1,4.2,1.2l1.4,1.1c-1.4,1.1-3.5,0-3.9,0-.7,0,0,1.1-.3,1.2s-1.8-.2-2.1,0-3.1,2.6-1.5,2.7,3.2-.9,4.4.2c.6,1.9-12.8,1.5-14.4,1.1,2.4,1.9,7.4,2.1,10.6,1.8s7.3-2.3,7.4-1.4c-1.6.9.3,1.5-1.1,2.3s-3,.5-3.3.6-.7,2.5-2.9,1.7c.7.7,2.8.4,2.6,2-1.9-1.2-3.2.3-3.6.3s-2.3-2.2-3.2-1.4l2.4,4.5c-1.3,2.5-2.6.4-3.5.2-1.5-.3-3.3-.4-4.8-.9s-2.6-1.8-2.7-1.8c-.9.2,0,1.1-.9,1.5s-2.3-.7-2.4-.6c-.4.3.4,1.3-.9,1.2s-2.5-2.7-3-3c-1.3.3,1.3,5.1.8,6.2-.9,1-2.5-.7-3.2-.8-1.5-.1-2.5,1.2-4.2,0-.8.5,0,1,.2,1.5-1.4.2-.8-1.8-.3-2.7,2.6,1.8,1.9-3.3,2.4-4.8.3,1.3.4,2.5.3,3.8s-.9,1.1-.9,1.2c0,.2,4.6,1.4,4.8,1.2.5-1.9-1.4-4-.2-5.9,1.4-.6,2.4,4.2,4.7,1.2s-.2-2.7,3.6-1.8,0,.6.2.6l.5-.5c0-.3-.6-.1-.6-.2v-.9c0-.3.7.6.6-.2-.6-.4-1-1.2-1.5-1.7-2.3-2.3-6.1-2.9-6.4-6.7s.5-2.6.8-2.7c-.2.9,2.8,5.5,3.3,5.1-.5-3-1.5-6.9-4.5-8.5-.3.5-.4,1-.8,1.5-.5-.7.6-2.5,1.2-3,.8.5,1.2.6,1.8.9h-.2Z"/>
          <path class="st30" d="M82,93c2.3.3,1.6-.8,1.8-.9s1.8,0,1.8.2-.9,2.5-.2,2.6,1.5-.9,1.8-.9c1.1,0,.7.8,1.2.9s.5-.8.9-.6c1,.4-.2,2.8.2,3.5.6,1.1.6-1.7,1.2.8s0,3.8,1.2,5.4c-.9.9-.9-1.6-1.7-1.8-.2,1.2-.4,1.9-.8,2.7l-.5-6.1c-1.8,3.3-7.2,2.2-2.9-1.1l-.8-1.1c-.5,0-1.4,3-1.8,3.3-1,.8-2.3.2-2.4.3-2,1.3-3.1,2.8-5.6,4.2-1.4-.9,1.8-2.9,2.1-4.1s0-3.3-.2-3.5c-2.7.9-3.7,3.6-5.9,5.1s-3.1,1.1-4.4,2.1l.6-3-1.8,1.8-.9-1.2c-1,1.5-1.6.8-3,1.2l-.8-.8.5-2c-2.8,2-2.1-.1-2.4-.3s-2.5.8-3,.6l1.7-2.3c-2.7,1.2-1.9-1.7-4.7-.8.1-2.4,7.1-1.1,7.4-.5s-.9,1.6.2,2,3.7-.3,3.8-1.2c.2,0,.4-.3.5-.3.4.2.6,1.2,1.2,1.5s1.2-1.7,1.5.9l2.4-1.8c1.6,4.4,2.9.4,5.3-1.2.7-.2,2.4-1.2,2.7-2-1.1-.5-2,.4-3,.5l-1.8-.8c1.6-.2,3.2-2.2,4.2-2.6s2.4-.7,2.6-.6c.9.4-.3,1.2,1.7,1.5v.4Z"/>
          <path class="st23" d="M104.4,74.3s0,1-.9,1.1c.2.4,3.5-1,3,2.1s-2.6-1.6-2.7-.3l2.4,1.8h-2.7c1.6,2.1-.9,2.7-.6,3.3s.6.1.6.2c.3.7,1.1,1,.3,2.1-.4,0,0-.2-.6,0-1.6-1.8-2.3-1.2-1.5,1.2,0,0-.7.8-.5.9,1.9.3,3.5,0,5.3-.6.4.4-.3.7.2.9,2.3.8,5.5-1,7,.6-3,1.1-5.2.5-8.2.6s-1.8,1.6-5,0-3.5-4.7-6.7-6.1-1.4-.9-1.5-.5c.7,1-.1,2.6,1.2,3.2-.6,2.9,2.2,1.6,2.6,1.8,1.2.5,2.3,1.7,3.8,2.4,4.2,2,5.7,1.5,10.3.3-1.1,2.6,1.4,2.1-.9,3.3s-.6.5-.6.6c-6.4-2.3-11-2.8-16.8-7s-1.2-2-1.8-2.4-.6.4-.8.3.4-.3-.6-.6-1.2-.3-1.8-.6c.1-.2-.1-1.4,0-1.7.6-1.3,3.8-.4,4.2-1.5s-1.4-4.1-.3-5.3h.6c.1,3.7,1,4.4,4.4,5.7.8-.7-.4-1.5-.8-2.4,1.4,1,5.5,2.1,3.3-.2,0-.2,4.6,1.2,2.4-.8,3.7-1.6-2.1-1.9-3-1.8l-.3-1.2c.3,0,.6.1.6-.3.8,2.2,4.6.5,6.4.6v.3Z"/>
          <path class="st30" d="M84.7,114.5c.4,2.3-1.1,1.7-2.1,3.3-3.9,2.4-6.9,6.4-11,8.8s-4.6,2.5-4.8,2.4-.4-1.2-.6-1.2-1.8,1.1-2.9,1.5-1.6,1.2-1.7,1.2c-1.5.3-1.4-.6-1.5-.6s-.9.6-.9.6c-.5-.1-.4-1.1-.6-1.2s-2.8,3.3-3.9,3c-1.8-.4,1.8-2.6,2-2.9-.3-.6-3.3,1.7-3.9,0,0-.2,2.1-1.8,2.4-2,1.6-1,2.6-1.4,5-1.5l8.6-3.6c1.8-.2,3.7.4,5.1-1.1-.8-.8-3.2-1.1-3.8-1.4s1.4-2,.2-2.1c0,0-.2-.8.8-.6,1.2,4.1,2.2,1.8,2.4,1.8.6,0,.7.7,1.2.6,1.1-.2,3-1.2,3.8-2.1-.4,1.4-.5,2,1.1,1.2s1.7-3.5,3.2-4.5,1.3-.6,1.7-.9c-.2,1.4.4,1.1.5,1.2h-.3Z"/>
          <path class="st20" d="M108.6,93.3s.5,1.1,1.1,1.2,2.9,0,3.6,0,0-1.2,1.4-.3c-2.2,1.9-4.5.2-6.8,0s-.5.9-.6.9-1.6-1.7-2.1-1.8-2,.6-3,0l4.4,2.9c.1,1-3.1,0-.6,2.6-.8,1.9-1.9.6-3.3-.3l.9-.5c-1.7-6.8-5.6-1.4-6.2-1.4s-.9-.9-1.2-.9c-.8,0-1.4.6-1.5.6-.5,0-1.1-.7-1.5-.6-1.1.2-1.5,2.2-2.3,2.7-.6-2.5-.7.3-1.2-.8-.4-.7.8-3.1-.2-3.5s-.8.6-.9.6c-.5-.1-.1-.9-1.2-.9s-1.7.9-1.8.9c-.8,0,.2-2.5.2-2.6s-1.7-.2-1.8-.2c-.8,0-.6,0-.3-.6,0-.2.4-.4.6-.6.5-.4,2.3-1.7,2.9-1.5s2.7,5.9,4.2,1.2c.5,4.1,1.3,1.7,2,1.8,1.6.2,3.5,1.6,5.4.8-.5-.2-3-2.6-3.2-2.6-.5.1-.4,2.2-2.3,1.5-1.7-4.1-2.2-1.7-3.2-1.8s-2.2-2.4-2.3-2.6c-.1-1.2,2.1-2,1.5-3.5.2.1.5-.5.8-.3.6.4,1.2,2,1.8,2.4,5.7,4.1,10.4,4.6,16.8,7v.2Z"/>
          <path class="st10" d="M100.7,45.8c-.9,2.4-1.3,4.1-4.2,4.4,1.5,3.3,5.6-1.3,7.9-2.3-.4.8-.3,1.9-.3,2-.4.7-1.3,0-2,.2-1.8.7,1.8,2.3,2.6,2.7-.1.5-.9.9-.9,1.1,0,.4,1.9.9.2,2.3s-1.1,0-1.5.3.5.9-.3,1.2-1.6-.4-2.4-.3-.4.9-.5.9c-.3-.2-.6-.7-.9-.9.6-2.2.3-2.6,2.7-2.3l-1.1-2.3c-1.4,1.5-5.8,2.1-7,3s0,.6.2,1.2h-.3c-.3,0-.7.6-.8.6-.4-.2.5-.4-1.1-.9s-3.4-1.3-5.1-2.4c3.3-2.1-.3-1,.6-3.3,2,.6,1.5-.3,3.5-.3,0-1.4-.6-.5-1.4-.9,2.6-2.9,2,4.1,3.9,1.2.6,1.3,3.8,3.2,3.3,1.1l-3.6-2.6v-.9c2.4,0,5.5-2.8,7.6-3s.5.2.9.3h0Z"/>
          <path class="st6" d="M102.6,98.5c1.4.9,2.6,2.2,3.3.3.5.5,1,.5,1.2.6,1.1,2.1.5,2.8,2.9,4.2l.8-1.8c.9.7,1.8,1.7,2.7,2.4,1.5,1.2,1.8,3.2,2.3,0,.5,1,4.2,2.5,4.8,2.4s.3-.9.6-.9c.5,0,2.2.7,3.3.6s3.4-2.2,4.4-.2c-1.9.6-.4,1.4-1.4,2-1.1.2-3.2.1-4.2.3s-.3.9-.6.9c-.9,0-1.9-.9-2.1-.9s-.6.9-1.2.9-1.5-1.5-2.7-1.2,0,1.2-.6.9,0-.8-.3-.9c-1.6-.4-1.7.9-1.8.9-.2,0-2.4-1.6-3-1.8s-1.2.1-1.7,0c.7-2.4-3.7-4.3-5.6-4.5s-.3.9-.6.9-1.4-1-1.8-.9,0,.8-2.3,1.2c2.4-1.4,1.9-1.4.2-3.3-1.1-.3-.7.8-.8.9l-1.1-4.5c.5-.2,3.5,3.8,4.7,2.9l-.9-2.4c.6-.3.9.7,1.5,1.1h0Z"/>
          <path class="st30" d="M82.3,113.9c-.5.7-1.9.8-2,.9-.7.8,0,.8-.2,1.1s-1.5.7-1.8,1.7c-.8.9-2.7,1.9-3.8,2.1s-.6-.6-1.2-.6-1.2,2.3-2.4-1.8c-1-.2-.7.6-.8.6-.4.3-3,2.8-3.2,2.7s.1-1.3-2.3-.5l.5-2c-.6-.4-2.5,1.9-2.7,1.8-.5-.1-.4-1.1-.6-1.2-1.2-.5-2.8,2.4-3-1.2-1.9,1.4-1.7-.2-.5-1.2s3.6-1.7,4.5-3.9c-.2,2.1-2.6,3.4-2,5.1l3.3-2.7c1,0-.3,1.3.3,1.8s3.3-1.4,3.6-2.1c-.5,3.5,2.7.4,4.2-.9,1.1-.1-.6,2.1.6,2.4s2.5-2.2,2.9-2.6-.4-.6-.3-.8c1.2-1.4,2.1-1.5,2.7-2.1,1,.6,3.2.9,4.2.6s.7-1.2,1.4-1.5c.6.3-1.2,3.7-1.7,4.2h.3Z"/>
          <path class="st8" d="M117.1,97.6c-.5,0-1.1.4-2,.3s-1.9-1.6-1.8-.3l1.1.8c-1.1.8-6.6-2-6.4-.3s2.9,2.5,3,2.6c2.2,1.5,6.2.5,9.2.9s4.4,1.1,6.5,1.7l-12.6-.2-.8,1.2c-.9-.7-1.8-1.7-2.7-2.4-1.6-1.3-2-1.3-3.6-2.4s-.7,0-1.2-.6c-2.5-2.5.7-1.6.6-2.6l-4.4-2.9c1,.6,2.4-.2,3,0s2,1.8,2.1,1.8.3-.9.6-.9c2.3.2,4.6,1.9,6.8,0,3.8,2.4,1.7-.5,3.5-.3s1.2,1.8,2.1,1.5c.3-5,10.9-4.8,4.5-.6s-1-.1-1.2,0c-.7.3,0,1-.6,1.2s-2.2-.2-2.7,0,.5.9-.3,1.2-2.3-.3-2.4-.3c-.3,0-.4.6-.5.6h.2Z"/>
          <path class="st26" d="M98.3,101.5c.1,0-.4-1.2.8-.9,1.7,1.9,2.3,2-.2,3.3-1.7.3-3-.7-3.2-.6-.3.1-1.4,3.9-1.4,4.1.1.7,4.1,3.3,4.5,4.4-.5,0-.8,0-.9.6-2.5-1.6-5.4-4.3-2.7,1.2-1.2-.7-4.1-1.9-3,.6-2.1-2.1-2.6-3.1-4.2-5.4.6-1.1.8-2.4,1.2-3.6s.3-.3.3-.3c.3-.8.6-1.5.8-2.7.8.2.7,2.7,1.7,1.8,1.4-1,1.2-5.8,3.3-3.8l-.2-2.3c1.5,1,1.6,4.8,3.2,3.6h0Z"/>
          <path class="st8" d="M97.4,133.9c-1.3-.9-1.7-2.2-3.5-1.8-1.4.9,0,2,.8,3-3.6,1.8-3.3-1.2-4.4-1.5s-2.8,1.3-3.2,1.5c-.2-7.8-7.8,1.3-9.1-.5l-.2-1.7c-.3.6-1,.7-1.4.9,1.6-2.7,2.2,0,2.6,0,1.4-4.3,4.9-3.2,6.4-6.4,1.6.3.7,2,1.5,3,.3-1.5.9-3.3,1.1-4.8,2-.2,3.7,4.7,4.7,5.1s1.4-.7,1.5-.6c.2,0,3.4,3,3.5,3.2.2.4-.3.4-.3.5h0Z"/>
          <path class="st16" d="M90.8,119.9l-1.7-.6c-.1,0-.4,1.2-.5,1.5-.3,1.6,1.4,3.8-.3,3.3,0-.3-1.5-1.3-1.4-2.1l-1.2,3-1.5-2.1-9.1,9.4c-1.7.5,1.2-2.9-2.6.9-.9.1-1.1-.6-1.2-.6,1.7-2.2,4.4-3.7,6.1-5.9s1.5-2.1.3-2c1.2-.9,4.2-4.5,5.6-5.1s1.9-.3,2.9-.3-.1.9.5.6c2-.9.2-4.3,1.5-3.9s1.9,3.2,2.6,3.9h0Z"/>
          <path class="st10" d="M85.3,60.9c.6.6,4.9.6,5.1,1.1s-.7,0-.6.9c.2,1.4,1,2.6,1.2,3.9-.2.5-8.5,2.2-9.4,1.1,2.6,0,5.4-2.2,7.9-2.9-1.4-.7-4.4.7-5.6.8s-1.9-.4-3.5-.3c-4.5.2-2.3,1-3.2,1.5s-.4-.9-.6-.9c-.6-.1-1,.5-1.5.3s.5-2.1-3-.3c-1.7-.3,2.5-2,2.6-2.3-.5-1.5-3.1.1-3.6-.6s.5-.7.3-1.2-1.8-2-.8-2.3c3.2.2,6,3.3,8.5,4.2s5.2.6,8-.5l-4.2-1.2c.5-1.1,1.5-1.1,2.4-1.4h0Z"/>
          <path class="st30" d="M88.3,124.2c.1.6-.3.9-.3,1.5-.1,1.6-.8,3.3-1.1,4.8-.8-1,0-2.7-1.5-3-1.4,3.2-5,2-6.4,6.4-.3,0-1-2.7-2.6,0-.6.3-3.3,3.4-4.1,2.7s.6-2.1-1.4-2.6c1-.2.9-.1,1.5-.8,3.8-3.8.9-.4,2.6-.9l9.1-9.4,1.5,2.1,1.2-3c-.1.9,1.3,1.8,1.4,2.1h0Z"/>
          <path class="st10" d="M90.8,74.6c-1.1,1.2.4,5,.3,5.3-.4,1.1-3.6.2-4.2,1.5s.1,1.4,0,1.7c-.7,1.2-2,1.6-3.2,2.1l-.5.5c2.5,1,.3,1-.6,1.7l-.9-.6c.3-.1,1.3,0,.8-.9-1.5.9-2.9-.3-3-.3s0,.7-.5.6c-2.2-.4-4.7-1.4-7-2,2.7-1,5.5.6,8,.5s1.5-1.6,3-.6l-.2-4.8c1.8-1.7,5.4-5.2,7.9-4.5v-.2Z"/>
          <path class="st16" d="M75.6,112.7c-.1.2.5.5.3.8-.3.4-2.6,2.6-2.9,2.6-1.2-.3.5-2.5-.6-2.4-1.5,1.3-4.7,4.4-4.2.9-.3.8-3.4,2.3-3.6,2.1-.6-.5.7-1.9-.3-1.8l-3.3,2.7c-.6-1.7,1.8-3,2-5.1s.2-1-.9-1.5c1.1-1.2,5.2.4,5.6.3s.5-1,1.7-1.5c.4.2,2.7,1.2,2.9,1.2s1-1.7,2.1-1.5-.6,3.2,1.4,3.3h-.2Z"/>
          <path class="st20" d="M86.2,119.3c-1,0-1.9-.1-2.9.3-1.4.6-4.4,4.3-5.6,5.1-4.5,3.2-9.4,6.2-15,7l-3.8,3.3c-.5,0-.6,0-.9-.5l5.7-3.9-.6-1.4c1.1-.4,2.7-1.6,2.9-1.5s.4,1.1.6,1.2,4.3-2.1,4.8-2.4c4.1-2.4,7.1-6.4,11-8.8s4.1-2.6,3.6,1.5h.2Z"/>
          <path class="st1" d="M111.6,76.1c-1.1-.9-1,.2,0,.6,0,2.8-4.8-.8-3,2-2.1,1-1.6,2.4-4.4,1.1l.5,2.3-1.2.5s-.5.1-.6-.2c-.3-.7,2.2-1.3.6-3.3h2.7l-2.4-1.8c.2-1.2,2.5,1.7,2.7.3.5-3.1-2.8-1.7-3-2.1.9,0,.8-1,.9-1.1,1.4-1.4,9.5-3.6,11.6-5.1,1.7.5-2.4,3.9-2.6,4.1-.3.4.7.5.6.6-.6,1-1.2,2.2-2.4,2.3v-.2Z"/>
          <path class="st16" d="M127.1,117.5c-1.6,2.8-2.8-.5-3.5,0s1.2,4.9-3.3,0l-2.7,3.3c-3.6-1-4.7-4.5-5.9-7.6.1,0,1.4,0,2,1.2l-.2-1.8c4.2,2.1,8.6,4.3,13.5,3,.6.1.2,1.7.2,1.8h-.1Z"/>
          <path class="st30" d="M71.4,132.6c-1.1-.2-7,2.3-7.3,2,.9-2.9-1.2,0-2,.2s-1.5-.3-1.8-.3-1.2.6-1.4.6l3.8-3.3c5.6-.8,10.5-3.7,15-7,1.2-.2-.1,1.8-.3,2-1.7,2.2-4.4,3.7-6.1,5.9h0Z"/>
          <path class="st4" d="M109.2,107.2c-3.2-.7-7.3-2.6-10-1.2s-1.1,3.8,1.2,5.1c-.1,1.5-.8.6-1.5.6-.4-1.1-4.4-3.6-4.5-4.4s1.1-4,1.4-4.1,1.4.9,3.2.6,1.9-1.1,2.3-1.2,1.7.9,1.8.9c.3,0,.5-.9.6-.9,1.9.2,6.3,2.2,5.6,4.5h-.1Z"/>
          <path class="st20" d="M89.9,71.8c-2.7-.9-2.3,1.1-2.4,1.2-3.9,4.3-4,1.3-8,1.5s-1.8,1-2.1.9c-.9-.2,0-2.3-3.2-.9-.7.2-2.7.2-3.3.3.2-.3.4-.6.6-.9.8-1,.2-1.4.5-1.5s5.6.8,7.3.6c4-.4,7.3-4.1,11.8-3,.5,1-.6,1.3-1.1,1.8h0Z"/>
          <path class="st26" d="M94.7,135.1c.2,0,.8.2.9-.2s-1.3-1.3-.5-1.4c.5.9,1.6,1,2.3,1.5s.7.4.9.6c.6.6,1.3,1.5,1.2,2.4-2.4-.4-1.1.8-1.4.9-1.2.6-3.6-2.4-3.9-2.4-.6,0-1,.9-1.2.9-1.2,0-3.7-.6-3.9-.6-.4,0-1.2,1.7-1.8,1.8s-.7-.8-1.2-.6c-1,.4-1.6,1.3-2.9,1.5-2.6-.5,1.8-3.4,2.7-3.9s.8-.4,1.2-.6,3-1.6,3.2-1.5c1.1.3.8,3.3,4.4,1.5h0Z"/>
          <path class="st23" d="M68.7,122.4l-8.6,3.6c-2.4.1-3.4.5-5,1.5-.5-.7-2.2-.3-2.3-.3-.2,0,0-1-.6-1.2s-2.9,1-3,.9c-.3-.1.8-2.4-1.8-1.8-.4-.2,0-.8.3-.9,1.1-.3,6.4.2,8.2,0,4.2-.5,8.5-1.3,12.9-1.8h-.1Z"/>
          <path class="st30" d="M89.2,105.1c-.4,1.2-.6,2.5-1.2,3.6-.5-.7-1.3-2.7-2-2.7-1.6,1-4.5,2.8-3.5,5.1-1,.3-3.2,0-4.2-.6.4-.4,1.3-1,1.5-1.4s0-1,0-1.4c.3-1,0-.8,0-1.2,0-.6.2-1,.3-1.5,1.2-.9,2.2-3.8,4.7-3.6.3.1-3.1,5.6-1.8,5.4,1.4-2.6,4,0,4.8-3l1.4,1.2h0Z"/>
          <path class="st14" d="M75.6,104.5c-2,1.2-4,2.8-6.2,3.6s-5.5,2-5.3.8,9.7-3.4,9.7-4.2-1.5-.1-1.8-.6,1.3-1.4-.3-2c2.2-1.6,3.2-4.3,5.9-5.1.2.2.2,3.1.2,3.5-.3,1.2-3.5,3.2-2.1,4.1h-.1Z"/>
          <path class="st23" d="M85.6,37.7c0,.5-.6.1-.6.6,0,1,.9,1.1,1.2,1.5s.8.3.9.5c.3.7-.5,1,.3,2.3s1.1,1.9,1.2,0c1.9.1.9,1,1.7,1.2s1.1-.6,1.2-.6c1.1.2.7,3.6.8,4.5s0,.4,0,.9v.9c.1.6,0,.8.3,1.5-2,2.9-1.3-4.1-3.9-1.2-.2,0-.7.2-.9-.2s.3-.4.3-.8c.1-1.3.9-1.7,1.2-2.7.4-.1.9-.2,1.2-.5-3.8-.6-3.5-3-4.8-5.1s-6.6-6.9,0-2.9h-.1Z"/>
          <path class="st16" d="M99.2,106c.8,3.5,1.7.6,2.9.9s1.4,2.4,1.5,2.4c.5.1.5-2,2.1-1.2s1.2,2.5,1.4,2.7c-2.1-.5-.8,2.5-2,3.3-1.3-3.6-2.2-1.9-2.7-2.1-.8-.3-1.1-1.2-1.2-1.2-.4-.1-.6.4-.8.3-2.3-1.3-4-3.7-1.2-5.1h0Z"/>
          <path class="st6" d="M79.9,106.6c-.8.3-.8.9,0,1.2,0,.4.1,1.1,0,1.4-.2.4-1.1,1-1.5,1.4-.7.6-1.6.7-2.7,2.1-2-.1.1-3-1.4-3.3s-2,1.5-2.1,1.5-2.4-1-2.9-1.2c2.7-1.2,8.8-3,10.9-4.5-.1.6-.3.9-.3,1.5h0Z"/>
          <path class="st2" d="M79,86.7c.3,0,1.5.3,1.8.3-.4,2.1,2,2.1,2.3,2.4.8.8-.9,1.8,1.1,1.5-.2.2-.5.4-.6.6-1.7-1.1-2.6.5-1.5,1.5-2-.3-.8-1.1-1.7-1.5s-2.4.6-2.6.6c.6-1.4-1.5-1.2-.9-2.9s1.6-.4.9-2.6h1.2Z"/>
          <path class="st14" d="M117.1,97.6c.2,2.1,3.7.8,4.7,2.4l-10.7.6c-.2-.1-3-2.4-3-2.6-.2-1.6,5.2,1.1,6.4.3l-1.1-.8c0-1.3,1.5.3,1.8.3.9,0,1.5-.3,2-.3h0Z"/>
          <path class="st8" d="M101.6,133.5l.6.9c-.5.9-1.1,2.9.3,2.7,0,.4,1,1.5.5,1.8-1.4.1-2.1-.7-3.5-.9,0-.9-.6-1.9-1.2-2.4,1.8-.6-.9-2.8.2-3.9,1.2.5,2.1,1.1,3.2,1.8h-.1Z"/>
          <path class="st7" d="M75.6,96.9c-2.4,1.6-3.7,5.6-5.3,1.2l-2.4,1.8c-.3-2.6-1.1-.7-1.5-.9s-.8-1.3-1.2-1.5-.3.4-.5.3c-.6-.3-1.8-.2-1.4-.9,3.7.4,8.7,1,12.3,0h0Z"/>
          <path class="st13" d="M100.4,88.2l-.6.9c-1.5-.7-2.6-1.9-3.8-2.4s-3.2,1.1-2.6-1.8,2-1.2.3-2.7c3.2,1.4,4,4.8,6.7,6.1h0Z"/>
          <path class="st7" d="M98.3,57.3c.3.2.6.7.9.9-.6.4-1.2.9-1.8,1.2-1.8,1-2.8,2.1-4.5-.6s-.6-.1-.6-.8.8-.5.6-1.1h.3c.3,0,1.3.9,2,.6s0-2.4,3.2-.3h-.1Z"/>
          <path class="st9" d="M97.4,59.4c4.4,2.8-4,2-4.8,4.2h-.3c0-1.4-.9-3.6.6-4.8,1.7,2.7,2.7,1.6,4.5.6h0Z"/>
          <path class="st18" d="M81.7,67.9c-1.8,0-.8-.2-.9-.9s-.4-.9-.3-1.5c1.6,0,2.3.4,3.5.3s4.2-1.5,5.6-.8c-2.4.7-5.3,2.8-7.9,2.9h0Z"/>
          <path class="st5" d="M105.6,50.4c.8-1.7-2.5-.3-.3,0-1.2,1.3-.5,1.9-.6,2.4-.7-.4-4.4-2.1-2.6-2.7s1.5.6,2-.2-.1-1.2.3-2,1.5-1.5,1.8-2c.4.7-.9,2.6-.9,2.7,0,.6,2,1.1.3,1.7h0Z"/>
          <path class="st17" d="M103.8,84.5c1.9,0,2,.8,2.7,1.5-1.8.6-3.4.9-5.3.6-.2-.1.4-.9.5-.9.2-.2,1.4-1.2,1.5-1.2.5-.2.2,0,.6,0h0Z"/>
          <path class="st1" d="M110.7,89.4c.3,1.6.5,2.6,2.4,2.7-.1,1.9-2.7.4-3.9.6,2.3-1.2-.2-.8.9-3.3h.6Z"/>
          <path class="st28" d="M81.7,86.7l-.9.3c-.3,0-1.5-.3-1.8-.3v-.6c.4,0,.2-.6.5-.6s1.5,1.2,3,.3c.5.8-.5.8-.8.9h0Z"/>
          <path class="st14" d="M105.6,50.4h-.3c-2.2-.3,1.1-1.7.3,0Z"/>
          <path class="st32" d="M111.6,76.1v.6c-1-.4-1.1-1.5,0-.6Z"/>
          <path class="st20" d="M88,108.7c1.6,2.4,2.1,3.3,4.2,5.4s.7.8,1.2,1.2c3.4,2.8,6.4,3.8,10.3,5.7s8.1,4.1,12.4,5.4c.5.5.9,1.2,1.5,1.7.1.8-.6.1-.6.2-3.7-1-7.1-2.8-10.6-4.2s-7.4-3.3-8-3,1,1.1-1.1,1.2c-3.7-2.4-6.6-6.1-8.9-10-.3,1.6-2.8-.2-3.8,2.1,0,0-.7.2-.5-1.2-.4.3-1.4.7-1.7.9l-.3-.3c.5-.6,2.2-3.9,1.7-4.2-.6.3-.7,1.3-1.4,1.5-1-2.4,1.9-4.1,3.5-5.1.7,0,1.5,2.1,2,2.7h0Z"/>
          <path class="st15" d="M109.5,128.1c1.1,1.4,2,2.7,3.9,3-2.3,3-3.3-1.8-4.7-1.2-1.3,1.9.6,4,.2,5.9-.2.2-4.8-1-4.8-1.2s.9-.9.9-1.2c0-1.3,0-2.5-.3-3.8-.4-2-1.2-3.3-3-4.2,0-.1-.8-1,.5-1.2,2.6,1.6,3.8,5,7.4,3.9h-.1Z"/>
          <path class="st8" d="M117.1,128.4v.9c-3.8-.9-2.5.3-3.6,1.8-2-.3-2.9-1.6-3.9-3s.2-1-.2-1.2-3.3-.2-2.9-2.7c3.5,1.4,6.9,3.2,10.6,4.2Z"/>
          <path class="st19" d="M109.8,119.9c-1.1.7,0-.7-1.2-.6s-1,.7-1.5.6c-.6-2.3,0-2.4,1.5-4.5s.5-1,.8-1.5c3,1.6,4,5.4,4.5,8.5-.5.4-3.5-4.2-3.3-5.1-.3.1-.8,2.6-.8,2.7h0Z"/>
          <path class="st8" d="M104.7,129.6c-.5,1.5.1,6.6-2.4,4.8s-.6-.9-.6-.9c.7-3.8-1.3-4.3,0-8.2,1.9.9,2.6,2.2,3,4.2h0Z"/>
          <path class="st8" d="M117.1,129.3s.6-.1.6.2l-.5.5c-.2,0-.1-.6-.2-.6h.1Z"/>
          <path class="st9" d="M97.4,74l.3,1.2c-1.2,0-2.3.4-3.5.3-.3.1-.1.4-.2.6-.1.8,1.2,1,1.2,1.1,0,.3-.7-.3-.3.8s1.6,1.7.8,2.4c-3.4-1.3-4.3-2-4.4-5.7s.1-3.1.9-4.5c.6,2.8,2.4,4,5.1,3.9h.1Z"/>
          <g>
            <path class="st23" d="M92.9,57c.2.5-.6.9-.6,1.1,0,.6.3.3.6.8-1.5,1.2-.6,3.5-.6,4.8s-.4,4.6,0,6.4c-.8,1.4-1,2.9-.9,4.5h-.6c-2.4-.7-6.1,2.9-7.9,4.5s-1.2,3-3.8,2.7-.7-.8-.9-.9c-.5-.2-1.1,1.4-1.4-.2l2.1-3c-2.5-.2-3,2.8-5.6,2.3s.6-2.4.8-4.1l-1.5-.2c2-.7,1.4-1.2,1.5-1.2,3.2-1.4,2.3.7,3.2.9s1.8-.9,2.1-.9c4-.2,4.1,2.8,8-1.5,1.1,0,1.7-.5,2.4-1.2s1.6-.8,1.1-1.8c-4.5-1-7.8,2.6-11.8,3s-6.9-.8-7.3-.6.3.5-.5,1.5c-1.2-.8-1.7-.6-2.9,0,.3-1.9-.9-1.6-2.4-1.8,2.1-1.4,0-1.6-.6-3.3,2,.4,11.7,3.3,13,2.7s.7-1.4,0-1.5-1.5.9-1.8.9-1.6-1.4-2.1-1.5-2.7.9-3.5-.2c2-.2,3.8-1.2,5.3-1.7s.5.6.6.6c.3-.1,2.6-1.6,2.7-2.1l1.1.9c.1.7-.9.9.9.9.9,1.2,9.2-.6,9.4-1.1-.2-1.4-1-2.5-1.2-3.9s.7-.8.6-.9c-.3-.5-4.6-.4-5.1-1.1,2.1-.6,3.2-.6,5.3.3.5-.4.1-1.4.2-1.5v-2.1c0-.7.5-.2.3-.9,1.6.5.7.7,1.1.9s.5-.7.8-.6h-.1Z"/>
            <path class="st20" d="M81.5,70c.6,0,.6.5.3.9-.5.8-1.7.7-2.6.5.3-1.4,1.3-.4,1.7-.5s.3-.9.6-.9Z"/>
            <path class="st32" d="M89.9,71.8c-.7.7-1.3,1.3-2.4,1.2.1-.1-.3-2.1,2.4-1.2Z"/>
          </g>
          <path class="st18" d="M102.6,98.5c-.6-.4-.9-1.3-1.5-1.1l.9,2.4c-1.2.9-4.2-3.1-4.7-2.9l1.1,4.5c-1.6,1.2-1.6-2.6-3.2-3.6l.2,2.3c-2.1-2-1.9,2.8-3.3,3.8-1.1-1.7-.8-3.6-1.2-5.4.8-.5,1.2-2.5,2.3-2.7s1,.6,1.5.6.7-.6,1.5-.6,1.1.9,1.2.9c.6,0,4.5-5.4,6.2,1.4l-.9.5h-.1Z"/>
          <path class="st33" d="M83.5,91.5c-.3.5-.5.6.3.6-.2,0,.5,1.2-1.8.9-1.1-1-.2-2.6,1.5-1.5Z"/>
          <path class="st6" d="M89.2,84.2c.6,1.5-1.7,2.3-1.5,3.5s2,2.5,2.3,2.6c.9,0,1.5-2.3,3.2,1.8v.3c-.7-.1-1.5,2.3-2-1.8-1.5,4.7-3.6-1-4.2-1.2s-2.4,1.1-2.9,1.5c-1.9.3-.2-.7-1.1-1.5s-2.6-.3-2.3-2.4l.9-.3.9.6c-3.4,2.4,2.6,1.2,4.1,0s1.3-2.2,2-3.6c1,.3.5.6.6.6h0Z"/>
          <path class="st20" d="M88.6,83.6c-.6,1.4-.7,2.6-2,3.6s-7.4,2.4-4.1,0,3.1-.7.6-1.7l.5-.5c1.2-.5,2.5-.9,3.2-2.1.6.3,1.2.4,1.8.6h0Z"/>
          <path class="st22" d="M100.7,77c2.2,2-2.3.6-2.4.8,2.2,2.3-2,1.1-3.3.2-.4-1.1.4-.5.3-.8s-1.3-.3-1.2-1.1c2,1.4,4.8-.7,6.7.9h-.1Z"/>
          <path class="st20" d="M97.7,75.2c1,0,6.8.2,3,1.8-1.8-1.6-4.6.5-6.7-.9,0-.2-.1-.5.2-.6,1.2,0,2.3-.3,3.5-.3Z"/>
          <path class="st20" d="M93.8,82.1c1.7,1.5-.3,2.6-.3,2.7-1.4-.6-.5-2.2-1.2-3.2.2-.4,1.3.3,1.5.5Z"/>
          <path class="st20" d="M103.2,84.5s-1.3,1.1-1.5,1.2c-.8-2.4-.1-3,1.5-1.2Z"/>
          <path class="st6" d="M97.4,122.4c-.7,0-1.2.5-2-.6l-.8.5v1.1c-1.7-.8-2.7-1.9-3.9-3.3s-2.3-3.9-2.6-3.9c-1.4-.3.5,3-1.5,3.9s-.4-.6-.5-.6c.5-4.2-1.2-3-3.6-1.5,1-1.6,2.5-1.1,2.1-3.3,1-2.3,3.5-.5,3.8-2.1,2.3,3.8,5.2,7.6,8.9,10v-.2Z"/>
          <path class="st24" d="M82.6,114.2c-1.5,1.1-1.9,3.9-3.2,4.5s-1.5.1-1.1-1.2,1.7-1.5,1.8-1.7c.2-.3-.5-.3.2-1.1s1.4-.2,2-.9l.3.3h0Z"/>
          <path class="st22" d="M93.2,92.4v-.3c1.9.7,1.8-1.4,2.3-1.5s2.6,2.3,3.2,2.6c-1.9.8-3.8-.5-5.4-.8h-.1Z"/>
          <g>
            <path class="st7" d="M98,73.7c0,.4-.3.3-.6.3-2.8,0-4.5-1.1-5.1-3.9s0-4.5,0-6.4h.3c-.2.8.9.7,1.4.6,5.6-1.2,10.5-3.9,15.7-5.7s.9-1.8,2-.8c-1.3,2.9-3.2,3.7-4.5,6.1,1.2,2.7,3.7.6,5.1,2.1-2.1,1-3,2-5,.2l1.7,2-2.6-.5c.6,4.2-2.8,1.7-3,1.8-.4.1-.7,2.3-1.5,2.4s-1.1-1.1-1.5-1.2-.8,1.4-2.1-.9c-.4.3-.3,3.5-.2,3.9h0Z"/>
            <path class="st20" d="M98.3,67.3c.5-2.8-3.1-.9-2.1-2.7,4.1-1.3,6.7-.8,10-3.8-.3,1.6-2.7,4.6-4.1,5.3s-2.1-.4-2.4-.3c-.6.2-.3,1.4-1.4,1.5Z"/>
            <path class="st5" d="M96.2,64.6c-1,1.8,2.7,0,2.1,2.7-.6,0-1.3-.6-1.4-.6-1.2.2-.9,3.5-1.5,3.6-1.6-.9-2.5-4.9-.6-5.7s1,.1,1.4,0Z"/>
            <path class="st25" d="M100.6,67.9c1.5.1-1,2.5-.8.8s.7-.8.8-.8Z"/>
          </g>
          <path class="st20" d="M98.3,57.3c-3.1-2.1-2.4,0-3.2.3s-1.6-.6-2-.6c-.2-.6-1-.6-.2-1.2,1.2-.9,5.6-1.6,7-3l1.1,2.3c-2.4-.3-2.2,0-2.7,2.3h0Z"/>
          <path class="st20" d="M92.6,51c-.3-.7-.2-.9-.3-1.5l3.6,2.6c.4,2.1-2.7.2-3.3-1.1h0Z"/>
          <path class="st14" d="M110.7,101.8l-.8,1.8c-2.4-1.4-1.8-2.1-2.9-4.2,1.7,1.1,2,1.2,3.6,2.4h0Z"/>
          <path class="st8" d="M98,112.4c.5.3,3.8,2.7,3.9,2.9.8,1.3.3,3.9.6,4.8s1.6-.2,1.2,1.1c-3.9-1.9-6.9-2.9-10.3-5.7,1.6-.6,1.9.6,3.5.9-.3-1.1-.6-2.1-1.7-2.7-2.7-5.5.2-2.9,2.7-1.2h0Z"/>
          <path class="st30" d="M95.3,113.6c1.1.7,1.3,1.6,1.7,2.7-1.5-.3-1.9-1.5-3.5-.9-.5-.4-.8-.8-1.2-1.2-1.1-2.5,1.8-1.3,3-.6Z"/>
          <g>
            <path class="st2" d="M59.6,83.3c.9.4,1.9.7,2.7,1.2,2.2,1.4,1,1.9,1.4,2.1s.3-.7.9-.6.4.6.6.6c1.3,0,3.6-1.5,2.4.9,2.7-.1,3.4.5,5.9-.6.8,2.5,2.3,0,4.2-.3.7,2.2-.6,1.5-.9,2.6-.6,1.7,1.5,1.5.9,2.9-1,.4-2.7,2.3-4.2,2.6l1.8.8c-1.3.1-9.7.6-10.1,0s-.3-.7,0-.9c1.9-1.2,5.6.7,6.7.6s-.2-1,.6-1.5,3.3-.8,3.8-2.6c-1.1-1.5-1.8,1.5-2.3,1.4,1-3.2-2.5.5-2.9-1.1l1.1-1.7c-3.9,1.8-2.3-.1-2.7-.3s-2.6.9-3,.6.6-2.2-1.8-.3l-.3-1.5-1.8.9-.3-1.5c-2.1.6-2.9,1.1-1.8-1.2l-2.6-.5,2.1-.9c.3-1-2.8-.7-.3-1.7h-.1Z"/>
            <path class="st27" d="M62.3,84.5c-.8-.5-1.8-.8-2.7-1.2,1.1-.4,4-.4,2.7,1.2Z"/>
            <path class="st32" d="M62.2,85.8c.5,0,.8-.1.8.5s-1.1-.2-.8-.5Z"/>
          </g>
          <g>
            <path class="st30" d="M107.1,110.9s0,.1.3.3c.7.3,1.3-.3,1.4-.3.4.3.7,1.3,1.1,1.5-.6.5-1.7,2.3-1.2,3-1.5,2.1-2.2,2.3-1.5,4.5s.6,2.3,1.4,2.4l.2-3c1.2,0,.1,1.3,1.2.6.3,3.7,4.1,4.4,6.4,6.7-4.4-1.3-8.3-3.5-12.4-5.4.4-1.2-1-.5-1.2-1.1-.3-.9.1-3.6-.6-4.8s-3.4-2.5-3.9-2.9c.1-.5.4-.6.9-.6s1.4.9,1.5-.6c.2.1.4-.4.8-.3s.4.9,1.2,1.2,1.4-1.4,2.7,2.1c1.2-.8,0-3.8,2-3.3h-.3Z"/>
            <path class="st16" d="M105.4,116c1.8-.5-.1,3.4-.6,3.3-1-.2,0-3.2.6-3.3Z"/>
            <path class="st23" d="M107.1,119.9c.5.1,1.1-.6,1.5-.6l-.2,3c-.8-.1-1.2-1.8-1.4-2.4h.1Z"/>
          </g>
          <path class="st30" d="M94.7,123.3v-1.1l.8-.5c.8,1.1,1.3.6,2,.6,2-.1.5-1,1.1-1.2s6.8,2.5,8,3c-.5,2.5,2.4,2.4,2.9,2.7s0,1.1.2,1.2c-3.6,1-4.8-2.3-7.4-3.9-1.3.2-.4,1.1-.5,1.2-1.3,3.9.7,4.4,0,8.2-1.1-.8-2-1.3-3.2-1.8-1,1.1,1.6,3.3-.2,3.9-.2-.2-.6-.4-.9-.6,1.3,0,.2-.7,0-1.2s.5,0,.3-.5-3.3-3.1-3.5-3.2-1.3.7-1.5.6c-1-.4-2.7-5.3-4.7-5.1,0-.6.4-.9.3-1.5,1.7.5,0-1.8.3-3.3l3.2,5.4c2.8-2.1,1.5-.3,4.1.5.4-1.2-1.2-2.7-1.2-3.5h0Z"/>
          <path class="st20" d="M97.4,133.9c.2.6,1.3,1.2,0,1.2-.7-.5-1.7-.6-2.3-1.5-.9,0,.5,1.2.5,1.4-.1.3-.7,0-.9.2-.8-1-2.2-2.1-.8-3,1.8-.4,2.2,1,3.5,1.8h0Z"/>
          <path class="st16" d="M90.8,119.9c1.2,1.4,2.2,2.5,3.9,3.3,0,.8,1.7,2.3,1.2,3.5-2.5-.8-1.3-2.6-4.1-.5l-3.2-5.4c0-.3.3-1.5.5-1.5l1.7.6h0Z"/>
          <g>
            <path class="st10" d="M92.3,47.6c0-1,.3-4.3-.8-4.5s-.9.7-1.2.6c-.7-.2.2-1.1-1.7-1.2s-.8,0-1.2,0c-.8-1.3,0-1.6-.3-2.3s-.8-.3-.9-.5c1.4-.8-.1-1.5-1.2-1.5,0-.5.6-.2.6-.6,1.4.8,3.9,4.3,4.8,2.4,0,0,.7,1.2,1.1,1.5s.3-.4.5-.3,0,.8.5.9c3.5.6,5.8-5.5,7.7-7.4l-2.4,7.3c-.5.8-3.3.7-.6,1.5l-4.8,4.1h-.1Z"/>
            <path class="st20" d="M86.2,39.8c-.3-.4-1.2-.5-1.2-1.5,1.1,0,2.6.7,1.2,1.5Z"/>
            <path class="st20" d="M93.6,43.7l1.7.5c-.7.3-2,.9-1.7-.5Z"/>
            <path class="st20" d="M88.6,42.5c-.2,1.9-.7.8-1.2,0h1.2Z"/>
          </g>
          <path class="st29" d="M79.9,107.8c-.8-.3-.8-.9,0-1.2,0,.4.3.2,0,1.2Z"/>
          <g>
            <path class="st8" d="M62,110.9c1.1.5,1,.9.9,1.5-.9,2.2-3.4,3-4.5,3.9.4-2.8-.7-2.3-2.9-1.8,1.9-4-1.2-1.8-1.8-2.1s.4-1.9-1.7-2.3c.3-.4,9,.3,10,.8h0Z"/>
            <path class="st23" d="M57.9,112.4c.8-.1.3.6-.3.6-.3-.2.3-.6.3-.6Z"/>
          </g>
        </g>
      </g>
    </g>
  </g>
</svg>