<?xml version="1.0" encoding="UTF-8"?>
<svg id="Layer_1" xmlns="http://www.w3.org/2000/svg" xmlns:xlink="http://www.w3.org/1999/xlink" version="1.1" viewBox="0 0 178.1 248.7">
  <!-- Generator: Adobe Illustrator 29.8.1, SVG Export Plug-In . SVG Version: 2.1.1 Build 2)  -->
  <defs>
    <style>
      .st0 {
        fill: #b0957f;
      }

      .st1 {
        fill: #fafafb;
      }

      .st2 {
        fill: #b7d4e7;
      }

      .st3 {
        fill: #e3b6a5;
      }

      .st4 {
        fill: #e6d8cb;
      }

      .st5 {
        fill: #edcda3;
      }

      .st6 {
        fill: #b89f24;
      }

      .st7 {
        fill: #ad9e21;
      }

      .st8 {
        fill: url(#linear-gradient1);
      }

      .st9 {
        fill: #eb752d;
      }

      .st10 {
        fill: #dbe1e7;
      }

      .st11 {
        fill: #c6502f;
      }

      .st12 {
        fill: #190c10;
      }

      .st13 {
        fill: #8d4123;
      }

      .st14 {
        fill: #735d42;
      }

      .st15 {
        fill: #f2ece2;
      }

      .st16 {
        fill: #724233;
      }

      .st17 {
        fill: #efede2;
      }

      .st18 {
        fill: #cba07a;
      }

      .st19 {
        fill: #371713;
      }

      .st20 {
        fill: #d3b011;
      }

      .st21 {
        fill: url(#linear-gradient);
      }

      .st22 {
        fill: #e45531;
      }

      .st23 {
        fill: #a39589;
      }

      .st24 {
        fill: #b3a698;
      }

      .st25 {
        fill: #eded90;
      }

      .st26 {
        fill: #cfc4b6;
      }

      .st27 {
        fill: #dcb756;
      }

      .st28 {
        fill: #f5af4b;
      }

      .st29 {
        fill: #f6edc5;
      }

      .st30 {
        fill: #a7a48f;
      }

      .st31 {
        fill: #847a28;
      }

      .st32 {
        fill: #d59a8a;
      }

      .st33 {
        fill: #f08929;
      }

      .st34 {
        fill: #cc3926;
      }

      .st35 {
        fill: #b22021;
      }

      .st36 {
        fill: #4c1715;
      }

      .st37 {
        fill: #e7c2a9;
      }

      .st38 {
        fill: #927f09;
      }

      .st39 {
        fill: #cab39c;
      }

      .st40 {
        fill: #fefefa;
      }

      .st41 {
        fill: #ecdec3;
      }

      .st42 {
        fill: #e69a52;
      }

      .st43 {
        fill: #ecece9;
      }

      .st44 {
        fill: #9b907b;
      }

      .st45 {
        fill: #5e8c3d;
      }

      .st46 {
        fill: #4a2225;
      }

      .st47 {
        fill: #c4c5b1;
      }

      .st48 {
        fill: #562f26;
      }

      .st49 {
        fill: #d96430;
      }

      .st50 {
        fill: #f4f5e4;
      }

      .st51 {
        fill: #816b4f;
      }

      .st52 {
        fill: #464446;
      }

      .st53 {
        fill: #73322b;
      }

      .st54 {
        fill: #130f0e;
      }

      .st55 {
        fill: #f2ae69;
      }

      .st56 {
        fill: #a79430;
      }

      .st57 {
        fill: #290e13;
      }

      .st58 {
        fill: #73504d;
      }

      .st59 {
        fill: #59482e;
      }

      .st60 {
        fill: #302d30;
      }
    </style>
    <linearGradient id="linear-gradient" x1="938" y1="883.5" x2="948.1" y2="1612.4" gradientTransform="translate(-191.3 -253.8) scale(.3)" gradientUnits="userSpaceOnUse">
      <stop offset="0" stop-color="#bece43"/>
      <stop offset=".4" stop-color="#9cb741"/>
      <stop offset=".4" stop-color="#94b13e"/>
      <stop offset="1" stop-color="#3a7036"/>
    </linearGradient>
    <linearGradient id="linear-gradient1" x1="88.6" y1="66.9" x2="92.1" y2="89" gradientUnits="userSpaceOnUse">
      <stop offset="0" stop-color="#eb802a"/>
      <stop offset="1" stop-color="#f1582a"/>
    </linearGradient>
  </defs>
  <g id="Generative_Object">
    <path class="st21" d="M154.6,40.1l1.5-.6c31.9,44.9,6.7,92.9-18.2,134.2-10.6,17.6-26.6,43-40.5,57.8-4.8,5.1-5.1,7-10.6,1.7-.2-.1-.4-.7-.6-.9-25.5-26.2-63.5-90.7-72.6-126C3.4,66.7,26,22.9,65,10c-.2.7.6.6.6.8s-.8.5-.6,1.1c-.5.2-3.7,1-3.6,1.4,43.1-14.9,92.2,8.6,104.5,53.1-1.7-8.8-6.2-18.6-11.3-26v-.3h0Z"/>
    <g>
      <path class="st45" d="M154.7,103.8c7.7-25,.6-49.8-17.8-67.8-1.3-1.2-2.3-2.2-3.6-3.3C80.7-11.4,2.4,39.7,24.1,105.3l-1.2.5C2.7,47.9,60.8-5.7,117.4,18.5c56.6,24.2,50.5,50.9,39.2,83-.3.9-.6,2.6-1.8,2.3h-.1,0Z"/>
      <path class="st40" d="M152.3,37.6c5.2,7.4,9.6,17.2,11.3,26C151.3,19.1,102.2-4.4,59.1,10.5c0-.4,3.1-1.2,3.6-1.4,32.7-10.8,69.8,0,89.5,28.4h.1Z"/>
      <g>
        <circle class="st10" cx="88.1" cy="83.1" r="67"/>
        <path class="st2" d="M133.2,32.7l-4.2,3.6c-2.2-2.1-6.6-4.8-9.4-6.4-9.2-5.3-19.2-8.1-29.9-8.2s-.4,0-.6,0c-31.1,0-40.9,15.8-58.7,37.1-1,1.2-3.5,2.5-3.6,2.7-3.9,4.9-3.8,26.3-2.7,32.7,13.3,81.6,142.9,65.1,130.1-21.5-.2-1.1-2.3-10.2-2.7-10.6s-.8.4-1.1.2c-7.2-6.8-12.7-14.1-18.6-21.9s.4-.3.3-.5l4.8-3.9c18.4,17.9,25.6,42.7,17.8,67.8-2.6,8.6-7.6,17.1-13.3,23.9-3.1-.3-5.3,3.8-7.7,5.7-22.6,18.7-52.1,22.3-78,7.9-8.2-4.6-14.4-11.3-21.6-16.9-4.4-6-7.6-12-10-19.1C2.4,39.7,80.7-11.4,133.3,32.7h-.1Z"/>
        <path class="st25" d="M141.4,127.7c-28.8,34.2-80.8,32.6-107.4-3.3,7.2,5.6,13.4,12.4,21.6,16.9,26,14.4,55.5,10.8,78-7.9,2.4-2,4.6-6.1,7.7-5.7h.1Z"/>
        <path class="st40" d="M119.6,30l-1.7,4.5c-5.9-2.8-13.5-5.6-20-6.1s-4.8-.7-5.3,1.1l2.7.3c-1.4.6-3.1,1.1-4.5,1.7l1.2-3.5-2.7,2.7.3-8.9c10.7.1,20.8,2.9,29.9,8.2h0Z"/>
        <path class="st2" d="M136.9,36.1l-4.8,3.9c-.9-1.1-2-2.7-3-3.6l4.2-3.6c1.3,1.1,2.4,2.1,3.6,3.3h0Z"/>
      </g>
    </g>
  </g>
  <ellipse class="st10" cx="90.3" cy="90" rx="51.1" ry="48.3"/>
  <g id="Generative_Object1" data-name="Generative_Object">
    <g>
      <g>
        <path class="st56" d="M117,99.8c.2,1.5.6,2.4.8,3.9-.7.5-.9,1.4-1.6,2s-1.8.7-1.9.8-.2,2-.3,2.5c-.1.8-.2,1.6-.3,2.4s-.4,1.3-.5,1.9c2.8-2.1,5.3-4.7,7.4-7.5.5.7,1.1-.9,1.2.3-1.8,1.3-4.2,4.8-6.1,6.6s-2.3,1.7-3.2,2.6c1.5,0,1.8.2,2.7-.8,2.3.8,4.5-.4,6.4-.2,1.5-1.2,2.1-3.1,3.6-4.4.4,0,.2.2,0,.4-.4.5-2.7,2.8-2.6,3.3s1.2,0,1.6,0,.9.2.9.2c.3-.1,2.3-3.6,2.9-3.6s0,.3.2.3c.9,0,1.9,0,2.8,0,.2.3-2.4,2.2-1.3,2.6.4-.4,1.5-.1,1.8-.3s2.1-3.1,1-.5c.6.5.9,0,1,0,.5,0,2.4.1,2.8,0-1.2,1.1-2.3,2.3-3.5,3.3-.1-.6,3-2.7,2.3-3l-5.6.9c-.7.5,1.4,1.1,1.4,1.5-.7-.3-2.1-1.3-2.2-1.4-.2,0-2.6.7-3.1.7l2,1.3c-.2.9-2-1.2-2.3-1.2-.6-.1-2,.5-2.7.3v.5c.3.3.6.6.9.9s0-.4.2-.2,0,.4.4.7c.7.5,1.7.7,2.1,1.2-2.6-.4-4-4.1-6.7-2.2l3.6,3.2c-2.4-.8-3.2-4.2-5.9-3.3l-.2.3,3,3.3c-.9,0-3.2-3.4-3.5-3.5s-1.5,0-1.8,0,0,.3,0,.3c-4.4.6-3.9,1-7.3,2.9s-5.8,3.1-8.8,4.4c-.9,0-.8.3-1.1.5-1.8.7-3.6,1.4-5.4,2.1s-1.1.4-.5.6c-.2,0-3-.5-1.9-1.1,2.9-1,6.4-2,9.1-3.3s.6-.3.5-.8c.7-.3,2.5-.8,3-1.4.3.2.2.1.5,0,1.6-.8,9.1-4.9,9.8-6.1s.5-1.7.5-1.8c-.1-.4-1.6-.2-1.8-.8.5.2,1.2.2,1.7.5,0-.9.3-.7.2-1.7s.3,0,.3-.2c0-.3-3.9-1.9-3.8-3.4.3,0,2.6,3,3.2,3s.8-1.8.7-2-3.3-2.4-3-3.6c.8,1.1,1.7,2.6,3,3.2-.2-.5.3-.7.3-.8.2-.8-.3-1.6-.3-1.8,0-1.8.9-1.9-.9-3.5l1.2.5.2-6c.9,1.1,2.2,3.4,2.7,4.7Z"/>
        <path class="st6" d="M140,72.9c-.1.6-.5,1.3-.8,1.8.4-.9.4-2.3.8-3.2-.6.3-.7.7-1.4,1,2.4-1.9,1.5-4.9,1.1-7.6s0-1.9-.2-2c-.7.9-1.6,1.5-1.9,2.6l1.1.2c-.4.2-1.2.5-1.2.5-.4.3-1.1,2.3,0,2.1-1.1.1-1.6,1.3-1.4,2.3l2.2-.5c-.5.6-2.2.5-2.5.7s-.6,1.7-.7,2c-.3.5-1,1.1-1.1,1.9.6-.1,1.2.4,1.3.4.3,0,.2-.3.3-.3.2,0,1.3,0,1.4,0-.2,0-.7.4-1,.5-.5,0-2.2-.2-2.3-.2s-.7,1.2-.7,1.3c.1,1.2,3.8-.2,3,.8s-2.6-.3-3.2,0-.5,1.6-.5,1.7c-.3.6-1.1,1.7-1.4,2.4-.4.2-.2-.8-.2-1.1.1-.5.9-1.8.9-1.9,0-.2-.9-3-1.1-3.9-.9-6.4,2.7-11.3,8.5-13.8,1,3.9,1.7,8.3.8,12.2Z"/>
        <path class="st38" d="M114.3,95.1l-.2,6-1.2-.5c1.8,1.6.9,1.6.9,3.5s.5,1,.3,1.8-.5.2-.3.8c-1.3-.6-2.2-2-3-3.2-.3,1.2,3,3.4,3,3.6s0,2-.7,2-3-3-3.2-3c-.4,0-.8.3-1.2.3-.6-4.2,2.5-9,5.2-11.9.3,0,.4.6.4.6Z"/>
        <path class="st56" d="M125.8,79.5c-.6,1.1.4,2.1-1.4,2.6-.8-1.2-1.8-2.3-2.3-3.6l-.5.5,2.9,3.6-.2.4-1.9-.2c.8.7,1.9,0,2.7.8s.8,1.3.8,1.4c-.4.4-1,0-1.2.3,1.6,0,1.5.5,2.1,1.7-.5.6-.7.4-1.1.4s-2.4-.1-2.5-.2c-.3,0-1.3-1.4-1-.2,0,0-.2.2-.2.2-.4-.3-.6-1.2-1.1-1.1-1.5-3-1-6.4-.9-9.6,2.1.3,4.3,1.7,5.9,3.1Z"/>
        <path class="st56" d="M121,95.7c-.4-.3-.7-.7-1.2-.5.8.6.2.9,1.2.5.4.2.3.2.8.2l.2,2.3-1.8-.5c.2.5,1.8.6,2,.9s-.2.6-.2.6c0,.2.7.3.5,1.1-.2.8-2,.4-2.6.2-4-1.4-4-7-3.3-10.4.7.7,1.8,0,2,0s1.5.9,1.6,1,.8,1.4.8,1.5c0,.1-.5.6-.5.6.1.2.5,0,.8.3s-.2.3-.2.5c.3.8.9,1.4,0,1.7Z"/>
        <path class="st20" d="M128.2,71.9c1.1,1.7,1,2.2,1.1,4.2s-.6,1.1.5,1.6c0,.2,0,.6-.2.6,0-.2-.7-1.3-.8-1.4-5,3.3-9.4-3.8-9.7-8.2.9-.7,2.4,1.3,3.2,1.8s.4-.3.5-.3c2.3,1.5,4.4,3.9,6,6l.2-1.4-.8-2.9Z"/>
        <path class="st20" d="M131.2,49.9c-.1-.2-.8-1.3-1.1-1.3-.4.6.2,2,.2,2.1s-.4.5-.5.6c-.2,1.9-.2,3.8-.5,5.7.6.7.8-.7,1.2-.2-1.3.7-1.5,1.2-1.4,2.7,1.6-.3,2.4-1.7,3.5-2.8-.9,2.9-3.7,2-3.8,4.8,0,.3,1.2.1,1.4,0-.3.2-1.4.7-1.5.8s-.3,1.8-.5,2.2c-.3-.2-.4-.2-.6-.5,1-.6.3-.7.5-1.1s.3,0,.3-.2c.1-.8,0-1.7.3-2.7l-2.2-2,.5-.3c.4.8.9,1.4,1.6,2,.3,0,.1-1.7,0-1.9s.3,0,.3-.3-1.8-1.9-1.7-2.5c-.5,0-.8,1.1-.8,1.4l-1.5.2c0-3.1,2.6-7.4,5.2-9.1l1,2.3Z"/>
        <path class="st20" d="M127.6,67.3c.1.2.5.6.2.8-.3-.6-1-1.2-1.5-1.7-.9-1-1.1-1-2.1-1.7s-2.5-1.9-3.9-1.7c-.2-.3.4-.2.3-.5s-2.8-1.1-3.2-1.2-1.5-1.2-1.9-.6c-.1-.3-.6-.6-.2-.9,2.6-.4,5.3-.6,7.7.6,3.6,1.8,2.7,4.3,4.6,6.8Z"/>
        <path class="st6" d="M122.3,43.1c.7.9,1.6,1.8,2,2.9.8,2.3.7,7-2.4,7.2,0-.2-.2-.9-.2-1.1.1-.3,2.1-1.6,2.1-2.4l-1.7,1.9c-1.8-1.4,1.6-3.3,1.3-5.2-.5.2-.3,1.2-.6,1.7s-1,1.6-1.3,1.4c-.2-1.2-1.1-2,0-2.9-2,.6-1-3.9.9-3.4Z"/>
        <path class="st20" d="M128.2,71.9l.8,2.9-.2,1.4c-1.6-2.1-3.8-4.6-6-6s-.1.5-.5.3c-.9-.6-2.3-2.5-3.2-1.8,0-.3,0-.4-.2-.7,3.3-.3,7.5.8,9.4,3.9Z"/>
        <path class="st6" d="M131.2,49.9c.2.3.3.7.5,1.1.2,2.3,1.8,3.5,1.1,5.9-1,1.1-1.9,2.5-3.5,2.8-.1-1.6,0-2,1.4-2.7-.4-.5-.6.8-1.2.2.3-1.9.2-3.8.5-5.7s.4-.6.5-.6c0-.1-.5-1.5-.2-2.1.3,0,.9,1.1,1.1,1.3Z"/>
        <path class="st56" d="M128.7,65s0-.2-.3-.3c.1-.4.4-2.1.5-2.2,0-.2,1.2-.6,1.5-.8s.8-.1.8-.2c.5-.3,2.2-2,1.8-2.7-.6.7-1.8,2.5-2.6,2.9s-1.3.2-1.4,0c0-2.7,2.8-1.9,3.8-4.8s-.8-3.6-1.1-5.9c1.7,3.6,3,8.7.3,12.2s-2.1,2.1-3.3,1.9Z"/>
        <path class="st6" d="M124.1,64.7c-.9,0-.6.6-.6.7-.6.6-3.1,1-3.9.7-1.7-1.2-3.2-3.4-4.1-5.3.4-.6,1.4.4,1.9.6s3,1,3.2,1.2-.5.2-.3.5c1.4-.3,2.7.9,3.9,1.7Z"/>
        <path class="st56" d="M119.3,86.2c1.2.9,3,2.6,3.9,3.8.3,1.2,1.5,2.6,1.5,3.9s-.4,1.3-.6,1.9l-.8,1-.3-.2c-.2-1.1-.2-2.5-.6-3.5s-1.2-1.7-1.7-2.5c0-.1.1-.3.2-.5s.4-.3,0-.3c-.2,0,.2.3,0,.3-.2,0-.4.3-.6,0-.1-1.2-1-2.4-1.4-3.5s-.4-.6.3-.5Z"/>
        <path class="st6" d="M119.3,86.2c-.7,0-.4.1-.3.5.4,1.1,1.2,2.2,1.4,3.5.2.2.4,0,.6,0,0,.2-.1.3-.2.5,0,.2-.3.3-.3.5s.9,2.4,1.1,3c.3,1.2.6,2.5.8,3.7s.3,2,.3,3-.2,1.4.2,2c-.1.2-.3.3-.3.3,0-3-.8-1.4-2.7-2.6.6.2,2.4.6,2.6-.2.3-.8-.4-.8-.5-1.1s.3-.3.2-.6-1.7-.4-2-.9l1.8.5-.2-2.3c-.5,0-.4,0-.8-.2.9-.4.3-.9,0-1.7s.3-.3.2-.5c-.3-.4-.7-.1-.8-.3s.5-.5.5-.6-.7-1.5-.8-1.5-1.5-1-1.6-1c-.3,0-1.3.7-2,0,.1-.7,1.4-5,1.7-5,.4.2.8.8,1.1,1.1Z"/>
        <path class="st38" d="M124.4,82.1c.4.6,2,3.7,2.2,3.8.9.6,1.3-2.6,1.7-3,.6,1.6.9,3.5.3,5.2s-1.6.9-.3,2.2c-.1.3,0,.3-.5.5-.2-2.4-.5-1.1-1.3-1.1-2.5.1-4.7-1.4-5.8-3.6.5-.1.8.8,1.1,1.1s.2-.2.2-.2c.6.4,2.4,1.9,2.9,2s2.2,0,2.2-.5c-.1-1.3-1.5-.3-1.7-1.1.4,0,.5.3,1.1-.4-.6-1.2-.6-1.6-2.1-1.7.2-.3.9.1,1.2-.3s-.7-1.3-.8-1.4c-.8-.7-1.9,0-2.7-.8l1.9.2.2-.4-2.9-3.6.5-.5c.5,1.4,1.6,2.4,2.3,3.6Z"/>
        <path class="st20" d="M106.1,41.4c0,0-.7.2-1.4-.3s-2.2-2.2-2.4-2.8-.9-3.6,0-3.6,5.4,5,3.7,6.6Z"/>
        <path class="st20" d="M107.2,43.5c.8,2.7-5.7,3.4-7,1.3,0-.4,1.9-1.6,2.3-1.7,2-.7,3-.4,4.7.5Z"/>
        <path class="st20" d="M103.3,40.8s-.2,0,0,.3c-.3,0-.5.5-.8.6l.2-.9c-1.8-1-3.2.6-4.8.2s-3.2-2.4-2-2.9c2.2-.8,6.3.6,7.3,2.7Z"/>
        <path class="st6" d="M126.5,56.5c0,1,.3.8.6,1.4l-.5.3,2.2,2c-.4,1-.2,1.9-.3,2.7s-.3,0-.3.2c-.1.5.6.6-.5,1.1-1.2-1.3-2.7-5.8-2.7-7.6l1.5-.2Z"/>
        <path class="st56" d="M128.4,82.8c-.4.4-.9,3.6-1.7,3s-1.8-3.2-2.2-3.8c1.8-.4.7-1.4,1.4-2.6,1.3,1.1,1.9,1.6,2.6,3.3Z"/>
        <path class="st31" d="M109.9,106.1c0,1.5,3.7,3.1,3.8,3.4s-.3,0-.3.2c0,1-.1.9-.2,1.7-.5-.3-1.3-.2-1.7-.5-1.5-.8-2.5-3-2.7-4.5.4,0,.8-.3,1.2-.3Z"/>
        <path class="st38" d="M113.7,111.4c.1-.8.2-1.6.3-2.4,1.9-.7,2.5-1.3,3.3-3.1s.5-.3.6-.5c.2-.5-.1-1.2-.2-1.7-.1-1.6-.6-2.5-.8-3.9,1,2.5,1.5,4.7.8,7.5s-2.3,4.5-4.1,4.2Z"/>
        <path class="st38" d="M124.7,98.4c-.2.8-1,2.6-2.1,2.4,0-1-.2-2-.3-3,1.2,0,1.5-1.2,1.8-2.1s.6-1.2.6-1.9c0-1.3-1.2-2.7-1.5-3.9,1.8,2.4,2.3,5.5,1.5,8.5Z"/>
        <path class="st56" d="M124.1,64.7c1,.7,1.2.7,2.1,1.7-1.9,2.1-4.7,1.1-6.6-.3.8.3,3.3-.1,3.9-.7s-.3-.6.6-.7Z"/>
        <path class="st43" d="M107.2,43.5c-1.7-.8-2.7-1.1-4.7-.5.9-.9-1.1-.4-1.4-.5-.9-.2-2.1-.7-2.9-1.1-.2-.2.2-.1.2-.2,1.7.5,2.3.8,4.1.3s.5-.6.8-.6c.4,0,3.8,2,3.9,2.4Z"/>
        <path class="st20" d="M102.5,41.7c-1.8.5-2.4.2-4.1-.3-.1-.2-.4-.2-.5-.5,1.5.5,3-1.1,4.8-.2l-.2.9Z"/>
        <path class="st17" d="M130.6,74.4c.1.8,1.1,3.7,1.1,3.9s-.8,1.4-.9,1.9c-.3.1-.4-.9-.5-1-.2-1.8,0-3.6-.3-5.5l.6.8Z"/>
        <path class="st17" d="M122.8,102.8c-.3-.6-.1-1.3-.2-2,1.1.2,1.9-1.6,2.1-2.4v.3c0,0,.5-.5.5-.5-.8,1.5-1.5,3.1-2.4,4.5Z"/>
        <path class="st31" d="M131.1,114.9c.5.2,1.5.3,1.5.8-3.5,3-6.9,5.5-11.9,4.8s-6-2.2-5.8-4.7c0,0,0-.3,0-.3.3,0,1.7,0,1.8,0,.2,0,2.5,3.4,3.5,3.5l-3-3.3.2-.3c2.7-.8,3.5,2.5,5.9,3.3l-3.6-3.2c2.7-2,4.1,1.8,6.7,2.2-.4-.5-1.4-.7-2.1-1.2s-.2-.5-.4-.7-.2.3-.2.2c-.3-.3-.6-.6-.9-.9v-.5c.7.2,2.1-.4,2.7-.3s2.1,2.1,2.3,1.2l-2-1.3c.5,0,2.9-.7,3.1-.7s1.5,1.1,2.2,1.4Z"/>
        <path class="st38" d="M145,77.5c-1.4,5.2-3.2,14.3-9.6,15.7s-4.7.4-4.9-1.2.7-1.4,1.1-1.5,1.2.7,1.7.8c1.3.3,2.5.6,3.7-.2-1.8,0-3.4,0-4.8-.9,1-.9,1.2-1.6,2.6-1.3s1.3.6,1.7.6c.8,0,2.5.1,2.7-.6-1.9.3-3.5,0-5.1-.5.4-.2,1.8-1.7,1.9-1.7,1.2-.3,3.8,1.4,4.7-.3-1.6.4-2.9.6-4.3,0,1-.9,1.7-2,3.2-1.5l-1.1-.6c1.1-.9,1.3-1.9,2.9-1.7,0,0-.8,0-.8-.5s2.6-2.7,3-3.1.9-1,1.4-1.4Z"/>
        <path class="st38" d="M139.2,74.7c-.9,2.4-4.4,5.6-7,4.1,0,0-.1-1.4.5-1.7s2.9.5,3.2,0c.8-.9-2.9.4-3-.8s.6-1.3.7-1.3c.1,0,1.7.2,2.3.2s.8-.4,1-.5c.5-.2,1.2,0,1.4-.7,0-.5-1.2.6-1.4.7s-1.2,0-1.4,0,0,.3-.3.3-.7-.5-1.3-.4c0-.8.8-1.4,1.1-1.9,1.6,0,2.2.3,3.6-.5s.8-.7,1.4-1c-.4,1-.4,2.3-.8,3.2Z"/>
        <path class="st6" d="M145,77.5c-.5.4-.9.9-1.4,1.4l-1.1.3-1.7,2.3-.4-.2c0-2.4-.3-1-.8-.8s-.6-.5-.6-.5c-.8.3-.8,2.8-1,3.5,0-.8-.3-2,.2-2.3l-.4-.4c-.8.5-1.2.5-1.6,1.4-.7-.3-1.5.7-2,1.2s-1.3,0-.4.9c-1,.7-.3-.4-.9,0s-1.6,3.4-2.6,3.7c.6-4.2,2.7-6.4,6.4-8.2s7.8-3,8.2-2.1Z"/>
        <path class="st38" d="M130.2,90.8c0-1,0-1.9.2-3,1-.3,1.7-3.3,2.6-3.7s-.1.7.9,0,1.4-1.2,1.7-1c0,1.1-.5,2.1.2,3.2-1.4,1-2.5,2.4-3.9,3.6s-1.1.9-1.6.9Z"/>
        <path class="st56" d="M124.6,104.1c.4-3.9,2.6-7,6.3-8.5.2.2.2.5,0,.8s-1.6,1.5-1.7,1.7.2.3.2.3c-.3.5-.4.7-.6,1.2s-.4,0-.5.2.3.3.3.3c0,.3-.6.6-.6.6,0,0,.4,0,.3.3s-.4.7-.5.8.3.5.2.9-3.2.8-3.5,1.4Z"/>
        <path class="st38" d="M132.9,115.5s-.3.1-.3.2c0-.5-1-.5-1.5-.8,0-.4-2.1-1-1.4-1.5l5.6-.9c.6.4-2.5,2.5-2.3,3Z"/>
        <path class="st56" d="M143.2,96.9c-.5.8-.9,1.6-1.5,2.3.4-1,.2-.8-.8-1.1-1-.8,1.6-1.2,2-1.7l.2.5Z"/>
        <g>
          <path class="st20" d="M122.3,43.1c-1.9-.5-3,4-.9,3.4-1,.9-.1,1.8,0,2.9.3.1,1.2-1.2,1.3-1.4.3-.5,0-1.4.6-1.7.4,2-3.1,3.8-1.3,5.2l1.7-1.9c0,.8-2,2.1-2.1,2.4s.2,1,.2,1.1c-.4,2.9,0,2.1,1.5,4.4l-.2.5c-.3-.4-1.1-1.3-1.4-1.5-1.9-1.2-1.2,0-2.4.8-3.3,2.2-9.1-1.4-11.4-4,4.1-2.2,8.7-2.6,12.1,1.1s.4,1.7,1.7,1.7c-1.1-1.3-6.7-8.1-8.4-7.3s-.7,1.5-1.4,1.8c-2.1,1-5.9-.5-7.5-2,2.1-1.9,4.6-3,7.4-1.7.8.7,1.4,1.9,2.6,1.9-.9-.6-1.6-1.4-2.6-1.9-1.3-1-3.2-2.5-4.7-3.2-.1-.4-3.5-2.5-3.9-2.4-.2-.2,0-.3,0-.3.5.1.9.4,1.4.6.6.3,1.4.7,2,1.1,5.2,3.2,10.9,7.5,14.6,12.4,1-1.9-1.4-2.8-2.5-4.3-2.5-3.5-3.2-8.9-2-12.9,2,1.7,4,3.4,5.7,5.4Z"/>
          <path class="st17" d="M106.1,41.4c.3.1.6.7.5,1.1-.5-.3-1.4-.7-2-1.1l.2-.3c.7.5,1.3.3,1.4.3Z"/>
          <path class="st43" d="M111.9,46.7c1,.4,1.7,1.3,2.6,1.9-1.2,0-1.7-1.2-2.6-1.9Z"/>
          <polygon class="st20" points="118.8 47.6 119 47.7 118.9 47.9 118.8 47.8 118.8 47.6"/>
        </g>
        <path class="st56" d="M138,83.4c-.1,1.3-1.1,1.6-2.2,2.4,0-1.2-.2-2.7.4-3.8s.8-.9,1.6-1.4l.4.4c-.5.3,0,1.6-.2,2.3Z"/>
        <g>
          <path class="st6" d="M128.4,64.7c.3.1.3.3.3.3-.9,1.8.6,4.1.9,5.8s.3,1.9.5,2.8c.3,1.9.1,3.7.3,5.5s.1,1.1.5,1c0,.3-.3,1.3.2,1.1-.7,2.3-.7,4.7-1.2,7s-1.5,5.1-1.3,5.2c.3-.4,1.8-1.6,1.9-1.9s-.2-.6-.2-.7c.5,0,1.3-.6,1.6-.9,1.3-1.1,2.5-2.5,3.9-3.6-.7-1,0-2.1-.2-3.2-.3-.2-1.4.8-1.7,1-.9-.9.3-.9.4-.9.5-.5,1.3-1.5,2-1.2-.5,1.1-.5,2.6-.4,3.8,1.1-.8,2.1-1.1,2.2-2.4.2-.7.2-3.2,1-3.5s.5.5.6.5c.5-.2.9-1.6.8.8l.4.2,1.7-2.3,1.1-.3c-.4.4-3,2.9-3,3.1,0,.4.8.4.8.5-1.6-.2-1.8.8-2.9,1.7l1.1.6c-1.5-.5-2.1.7-3.2,1.5,1.4.6,2.7.5,4.3,0-.9,1.7-3.5,0-4.7.3s-1.5,1.6-1.9,1.7c1.6.5,3.1.8,5.1.5-.2.7-1.9.7-2.7.6s-1.5-.6-1.7-.6c-1.4-.3-1.6.4-2.6,1.3,1.4,1,3,.8,4.8.9-1.2.8-2.4.5-3.7.2s-1.3-.8-1.7-.8-1.2,1-1.1,1.5c-3.1,2.1-3.6,5.6-5.3,8.7s-2.1,3.2-3.2,4.7l2.6-1.3c.3-.6,3.4-1.3,3.5-1.4.2-.4-.2-.9-.2-.9s.4-.7.5-.8c0-.3-.3-.2-.3-.3s.5-.3.6-.6-.3-.3-.3-.3c0-.2.4,0,.5-.2.2-.5.3-.7.6-1.2s-.2-.2-.2-.3c.1-.2,1.6-1.5,1.7-1.7.2-.3,0-.5,0-.8,3.9-1.5,9-1.3,12.9-.2l.2.2c0,.2-.8,1-.9,1.1l-.2-.5c-.4.5-3,.8-2,1.7-1.6-.4-1.8.3-3.2.8l-.2.2.8.7c-1.4-.8-2.8,0-3.9.8.5,0,.5.4.8.5-1.4-.4-2-.4-3.5.5.6,1.3,2.2,1.2,3.2,1.9-1.3.2-3.2-1.7-4.2-1.5s-5.2,2-5.7,2.3-.2.4-.4.5c-.7.3-2.2,1-2.7,1.4,0-1.2-.8.4-1.2-.3.6-.9,1.2-1.8,1.8-2.7s.2,0,.3-.3c.9-1.4,1.7-3,2.4-4.5s2.9-5.4,2.7-7.6c.4-.1.3-.1.5-.5.8-2.2,1.8-9.8,1.2-11.9.2,0,.2-.4.2-.6-.4-3-.4-7.1-2-9.7.4-.2,0-.6-.2-.8-1-2.8-2.5-6.8-4.4-9.2l.2-.5c1.7,2.6,3.5,5.1,4.5,8.1.4,0,.3-.6.5-1Z"/>
          <path class="st56" d="M132.4,96.6c1,0-.9,2.4-1.1,3.1s-.2,1.5,0,1.7l-2.9,1.1c-.4-.2,1.5-4.5,1.9-4.9s2-1,2.2-1Z"/>
          <path class="st56" d="M134.2,96.4c0,0,1.3,0,1.3.2-.9,1-1.1,2.2-1.5,3.5l-2.5.8c.2-1.7,1.2-4.3,2.7-4.5Z"/>
          <path class="st56" d="M137.2,95.8c0,0,1.1.2,1.1.2-.6.6-1.1,1.7-.9,2.6l-2.8,1.3c-.6-.1.6-3.9,2.6-4.1Z"/>
        </g>
        <path class="st56" d="M114,109c0-.4.2-2.4.3-2.5s1.4-.4,1.9-.8.9-1.5,1.6-2c0,.5.3,1.2.2,1.7s-.5.2-.6.5c-.8,1.8-1.4,2.4-3.3,3.1Z"/>
        <path class="st38" d="M138.6,72.4c-1.5.7-2,.5-3.6.5.1-.3.4-1.8.7-2s2,0,2.5-.7l-2.2.5c-.1-1,.4-2.2,1.4-2.3-1.1.2-.4-1.8,0-2.1s.8-.3,1.2-.5.7-.4,1.1-.9c.4,2.6,1.3,5.7-1.1,7.6Z"/>
        <path class="st6" d="M139.7,64.8c-.4.5-.6.6-1.1.9l-1.1-.2c.3-1.2,1.2-1.7,1.9-2.6.1,0,.2,1.6.2,2Z"/>
        <path class="st56" d="M125.6,87.2c.2.8,1.6-.2,1.7,1.1s-1.8.6-2.2.5c-.6,0-2.4-1.6-2.9-2-.3-1.3.6,0,1,.2s2.3.2,2.5.2Z"/>
        <path class="st6" d="M121,95.7c-1,.4-.4,0-1.2-.5.5-.2.8.3,1.2.5Z"/>
        <path class="st20" d="M127.2,57.9c-.3-.5-.6-.4-.6-1.4s.3-1.5.8-1.4c0,.6,1.7,2.3,1.7,2.5,0,.3-.3.2-.3.3,0,.2.2,1.8,0,1.9-.7-.6-1.2-1.2-1.6-2Z"/>
        <path class="st20" d="M130.3,61.7c.8-.3,2.1-2.1,2.6-2.9.4.7-1.3,2.4-1.8,2.7s-.5,0-.8.2Z"/>
        <path class="st56" d="M124.1,95.7c-.3.9-.6,2.1-1.8,2.1-.2-1.2-.5-2.5-.8-3.7s-1-2.7-1.1-3,.3-.3.3-.5c.5.8,1.3,1.6,1.7,2.5s.4,2.4.6,3.5l.3.2.8-1Z"/>
        <path class="st6" d="M121,90.1c0,0-.2-.2,0-.3.5,0,0,.3,0,.3Z"/>
        <g>
          <path class="st38" d="M140.9,98.1c1,.3,1.1,0,.8,1.1-.8,2.1-4.6,6.2-6.6,7.3-3.1,1.7-8.9,2.2-10.5-1.7.2,0,0-.2.4-.5s5.4-2.2,5.7-2.3c1-.1,2.9,1.7,4.2,1.5-1-.7-2.7-.6-3.2-1.9,1.5-.9,2-.9,3.5-.5.3.2.6.6,1.1.4-.3-.3-.7-.3-1.1-.4-.2-.1-.2-.5-.8-.5,1.1-.8,2.5-1.7,3.9-.8l-.8-.7.2-.2c1.5-.4,1.7-1.2,3.2-.8Z"/>
          <path class="st38" d="M126.5,104l3.2,2.2-2.2-1c-.2-.4-1.6-.9-1.1-1.2Z"/>
          <path class="st56" d="M135.2,101.1c.4,0,.7.1,1.1.4-.4.2-.8-.2-1.1-.4Z"/>
        </g>
        <g>
          <path class="st56" d="M136.4,112.1c-.3.1-2.3,0-2.8,0s-.4.6-1,0c1.1-2.5-.7.4-1,.5s-1.4-.1-1.8.3c-1.2-.5,1.4-2.3,1.3-2.6-.9,0-1.9,0-2.8,0s0-.3-.2-.3c-.5,0-2.6,3.5-2.9,3.6s-.5-.3-.9-.2-1.5.7-1.6,0,2.2-2.8,2.6-3.3.3-.3,0-.4c-1.6,1.3-2.1,3.2-3.6,4.4-1.9-.3-4.2,1-6.4.2.7-.8,1.2-2,2-2.8,5.1-5.4,14-3.1,19.8,0-.2.3-.4.3-.6.4Z"/>
          <path class="st6" d="M119.6,113.7v-.8c.9-.4,1.6-2.4,3.1-2.9-1.3,1.1-2.1,2.5-3.1,3.8Z"/>
          <path class="st6" d="M119.6,113.7c0,.7-.5.6-.5.2s.4-.1.5-.2Z"/>
        </g>
        <path class="st6" d="M137,74.8c.1,0,1.4-1.1,1.4-.7-.2.6-.8.5-1.4.7Z"/>
      </g>
      <g>
        <path class="st56" d="M76.2,109.1c1.9,3.7,1.8,7.6-2.3,9.6.2.3.2.7.5,1,0,0-.2,0-.3,0,0-.3-.3-.6-.5-.9s-1.1-2.6-1.3-2.7-.9,0-1.1,0c-.6-.3-2.3-2.1-2-.5-2.6-4-.4-9,1.4-12.8,2,1.8,4.3,4,5.5,6.3Z"/>
        <path class="st20" d="M55.1,56.5s.2-.4.3-.6c1.4-.5,1.8-2.4,3.1-3.2,3.1-2,7.7-1.2,10.5.7-2.2,2.5-8.2,6-11.4,3.9s-.4-1.9-2.5-.8Z"/>
        <path class="st6" d="M48.3,76.9c0,0-.1-.1-.2-.2-.9-1.3-.4-3.6.6-4.8-.2.4-1.5,4.4-.4,4.1l4.8-4.8c0-.5-.9-1.3-.9-1.4-.1-.6.9-.6.6-1.1.7-.2,5.1-1.3,5.3-.7-.8,2.8-1.5,6.4-3.9,8.4s-4.4,2.1-6,.5Z"/>
        <path class="st56" d="M55.5,86.9c-1.7-.9-3.5,1-5.5.6-1.4,1.7.7,2,2.1,1.7s2.8-1.7,3.2-2.1c-1.1,1.8-3,2.6-5.1,2.6s-.7-1-1.4,1.1c0-.1-.1-.2-.2-.3.9-1.3-.2-1.4-.6-2.4s-.2-.7-.3-1.1l.6-3.8c-.2.8-.4,5.2.5,5.4l.4-.2c.1-1.1.7-1.3.5-2.5.5.3.6-.7.8-1,.6-.8,1.1-1.6,1.7-2.4s-.2-.2-.2-.3.8-.7,1.1-1.1c1-1.5,2.1-3,3-4.5.2,0,.9-.3.9-.2.1,3.2.8,8.1-1.5,10.7Z"/>
        <path class="st20" d="M60.7,44.6c-.3,2.4-1.3,4.7-2.9,6.6s-2.7,1.4-2.3,3.7c0,0-.1.1-.2.2,0-.5,0-1.3,0-1.7s-.3,0-.3,0c0-.3.2-1.1.2-1.1,0-.1-2.4-1.9-1.7-2.2l1.5,1.7c0-.9.5-1,.2-1.9s-.8-1.1-1.2-2.5c0,.4,1.2,2.6,1.5,2-.3-.8,1-1.8,0-2.7,1.2.3,1.1-1.3,1.1-2.1,1.2,0,1.2-2.6,2.1-3.5l-1.1-.8c.3-.3,2.6-2.7,2.9-2.3.4,2.2.5,4.6.2,6.9Z"/>
        <path class="st20" d="M68.5,40.1c-.3,1.4-2.9,5.8-4.3,5.9s-1.1-.5-1.3-.7c-.3-.3-.5-1.1-.6-1.6-.5-4.2,3.5-6.7,6.3-8.9.6,0,0,4.7,0,5.3Z"/>
        <path class="st43" d="M72.1,41.1l.2.3c-6.6,4.2-11.4,7.2-16.5,13.3s-.3.1-.3.2c-.4-2.3,1.1-2.2,2.3-3.7s2.6-4.2,2.9-6.6c.8,0,1.4,0,1.7-.9,0,.5.3,1.3.6,1.6s1.2.7,1.3.7c1.4-.1,4-4.5,4.3-5.9,2.7.3,1.4,0,2.1-1.6s.4-.5.5-.5c-.5,1.2-.9,2.4-.4,3.6.5,0,1-.2,1.4-.5Z"/>
        <path class="st43" d="M60.2,99c-.4.9-.8,1.8-1.1,2.9-.5,1.9-.5,3.2,0,5.1s1.3,3.2,2.7,4.1,1.6.1,1.8,2.1c-1.8-1-8.9-8.4-9.2-10.3-.5-2.7.9-1.5,2.6-2.3s1.9-1.3,2.3-2l.8.3Z"/>
        <path class="st20" d="M63.5,48.2c.5.3.1.3.2.5-3.5.6-5.5,4.4-8,6.6,0,0,.3-.6.2-.6,5.1-6.1,9.8-9.1,16.5-13.3s3.8-3.3,6-3.5,3.1.1,3.2.5c-1.1,2.1-4.3,4.1-6.6,3.6s-1-1-1.5-.9-7.6,4.8-8.5,5.4-1.4,1.4-2.3,1.9c0,.3.8-.1.9-.2Z"/>
        <path class="st20" d="M63.7,48.7c0-.2.3-.1-.2-.5.8-.5,1.4-1.6,2.5-2,2.2-.6,4.9.8,6.6,2.2,0,.6-7.5,4.9-8.9.2Z"/>
        <path class="st6" d="M44.8,66.4c.3.4.5.9.8,1.4.4,2,1,4.2.8,6.3s-.8,3.8-1.4,3.6c-.1-.5-1.8-3.1-1.7-3.2.1-.8,2-3.3,1.8-4.5-.5-.1-.4,1-.5,1.1-.3.7-.7,1.3-.8,2-.5.4-1.6-2-1.6-2.2,0-.6,1.8-2.7,1.1-3.6,0-.2,0-.5,0-.8s1.3-.3,1.6,0Z"/>
        <path class="st6" d="M43.1,67.1c.7.9-1.1,2.9-1.1,3.6s1.1,2.6,1.6,2.2c0-.8.6-1.4.8-2s0-1.2.5-1.1c.2,1.3-1.7,3.7-1.8,4.5s1.6,2.8,1.7,3.2c.7.3,1.4-2.9,1.4-3.6.2-2.1-.3-4.3-.8-6.3.8,1.9,1.4,4,.9,6-.1.6-1.1,3.9-1.1,4.2,0,.7.9,1.5,1.1,2,.3.7.6,1.8,0,2.6-.3-1.1-1.1-2.9-1.7-3.9s-.6-1.6-.7-1.7c-.3-.1-3.5.5-3.9,0,0-.9,3.7.9,3.5-.8s-2.1-.8-3.1-1-2.3-.9-2.8-1.7l2.9,1.5h2l.2-.4c-.4-.3-1.2-1.4-1.4-1.8s.4-.3.3-.5-.4-.2-.5-.3c-.4-.9.2-1.1-1.5-1.4,0-.3,1.7.5.3-1.5s.2-.3.2-.3c-.4-.3-1.2-.3-1.5-.8h1.2c-.4-.3-.4-1.4-.5-1.5,0-.1-2-1.5-2.1-1.5-.3-.1-.4.2-.8,0,.1-1.1.3-2.1.6-3.2s0-.2,0-.3c.4,0,1.9,1.8,2,1.9s-.4.4-.3.6.5,0,.6.6-.3.6-.3.6c.1.4.8,2.3,1.1,2.3l.7-.8c-.9,1.6-.3,2.1.2,3.7.3.2,1.3-1.6,1.4-1.9s.2-1.1.3-1.6Z"/>
        <path class="st20" d="M61.6,60.6c-.3-.1.2-.4-.4-.3-1.5.2-3,1.9-4.7,2.1.5,1.1-.3.3-.8.5s-2.6,1.4-2.6,1.6c0,.3.3.5.5.7-1.6-1-1.6.7-3.2.9,0-.3,0-1.1.2-1.4,2.1-5,6.3-5.6,11.3-4.8l.2.3c0,.3-.4.4-.4.5Z"/>
        <path class="st6" d="M47.2,50.9c-.1.8-.3,2.2-.3,2.9s.4,1.3.5,2.1-.5,1.1-.5,1.2c0,.2.7.5.8.6s0,2.1-.5,2c-1.8-1.2-2.9-1.5-3.6-3.9.3-2.2,1.6-5.5,2.7-7.4.5.2.8,1.9.9,2.4Z"/>
        <path class="st20" d="M44.8,66.4c-.3-.3-1.4-.2-1.6,0s0,.5,0,.8c-.1.5-.2,1.2-.3,1.6s-1.2,2.1-1.4,1.9c-.6-1.6-1.1-2.1-.2-3.7l-.7.8c-.3,0-1-1.9-1.1-2.3s.4-.2.3-.6-.6-.6-.6-.6c0-.2.3-.6.3-.6,0-.1-1.6-1.8-2-1.9,0-.3.1-1,.4-1.1,2.9,1.1,5.4,3.1,7,5.7Z"/>
        <path class="st20" d="M51.7,56.8c-2.1,2.1-.9-1.6-2.3-2l-1.4,2.5-.3-.2c.1-.7-.1-1.4-.2-2s.4-.1.3-1.1-.6-1-.6-1.1c0-.7.2-1.2,0-2.2s-.5-2.2-.9-2.4c.2-.3,0-1,.7-.9,2.6,2.4,4.7,5.6,4.8,9.2Z"/>
        <path class="st56" d="M61.6,60.6c-.9,2.1-3.1,5.2-5.1,6.2l-2.3.3c-.3-.5.1-1.2,0-1.7s-.3-.2-.5-.3c-.2-.2-.5-.4-.5-.7,0-.1,2.4-1.5,2.6-1.6.4-.1,1.3.7.8-.5,1.6-.2,3.1-1.9,4.7-2.1s.1.2.4.3Z"/>
        <path class="st56" d="M57.8,87.1c-.4.7-.8,1.5-1.2,2.2s0,.9,0,.9c-.3.6-.5,0-.5,0-.3.4-.9,1.2-1,1.3-.2.4,0,1.3-.2,1.5-.1.3-1,1.3-1.1,1.4,0,.3.5.7.5.8,0,0-.1,1.5-.2,1.6,0,.1-.3.6-.4.8-.8-1.1-1.5-2.3-1.7-3.6.5-3,3.4-6.3,5.9-8,.5.5,0,.5-.2,1.2Z"/>
        <path class="st6" d="M57.6,40.1l1.1.8c-.9.9-.9,3.5-2.1,3.5,0,.8.2,2.4-1.1,2.1,1,.9-.3,1.9,0,2.7-.3.6-1.5-1.7-1.5-2-.2-.8,0-1.8-.8-2.1,1-2.1,2.7-3.5,4.4-5Z"/>
        <path class="st56" d="M53.1,81c-.3.4-1,1.1-1.1,1.1,0,.1.2.3.2.3-.5.8-1.1,1.6-1.7,2.4s-.2,1.3-.8,1c0-.4-.1-.5-.3-.9s0-.4,0-.5c-.3.3,0,.4,0,.5,0,.3,0,.7.3.9.2,1.2-.3,1.4-.5,2.5l-.4.2c-.9-.3-.7-4.6-.5-5.4.4-1.8,1.7-2.9,3-3.9-.2,1.1,1.1,1.1,1.7,1.8Z"/>
        <path class="st56" d="M47.2,59.9c.9.6.5,1,.5,2.1l-2.8-1.3c1.6,1.8,3.1.5,3.2,3.2s.3,0,.3.2c-.1,1.1-.6.5-1.4.7-3.5-1.9-4-5.1-3.5-8.8.7,2.5,1.8,2.7,3.6,3.9Z"/>
        <path class="st56" d="M57.8,87.1c-.3,1.5-.8,2.3-1.2,3.9s-.6,2.1-.5,2.1c.3-.2.7,0,1.1-.2s2-1.7,1.9-1.1c-.3,1-2.8,1.4-3.1,1.6s-1.1,4.1-1.1,4.5.5.5.5.6-.5,0-.6.5,0,1.8.2,1.9c5.2-.3,6.6-6,5.5-10.4-.2-.3-1.5-.3-1.8-.2l1.7-.2-.3-1.9c1.1,3.4,1.8,7.5-.5,10.6s-1.6,1.7-2.3,2c-1.7.7-3.2-.5-2.6,2.3-.2,0-.3-.3-.5-.5.9-1.8-.4-1.4-1.2-2.6s-.8-2.3-.9-3.2l.9,2.6c.2.4,1.2,1.9,1.5,1.2-.5-1.3.7-2.8-.2-3.7,0,0,.1-1.5.2-1.6s-.5-.5-.5-.8.9-1.1,1.1-1.4,0-1.1.2-1.5.7-.9,1-1.3.2.5.5,0,0-.8,0-.9c.4-.7.8-1.5,1.2-2.2Z"/>
        <path class="st20" d="M72.1,41.1c-.4.2-.9.5-1.4.5-.6-1.2,0-2.4.4-3.6.8-1.3,2.3-2.5,3.6-3.1l.3.2c.4,2.3-.8,5-2.9,6.1Z"/>
        <path class="st56" d="M48.7,71.9c.8-1.5,2.5-2.6,4.1-3.2.3.5-.8.6-.6,1.1s1,.9.9,1.4l-4.8,4.8c-1.1.3.1-3.6.4-4.1Z"/>
        <path class="st20" d="M51.7,56.8c0,1.9-.4,2.9-1.1,4.5-.2-.7,1.2-3.1.7-3.6-1.3-.8-2,1.8-2.6,2s-.5-.3-.8,0,.5,4.3.9,4.8c0,0-.2.3-.3.3-.1,0-.4.1-.5.3-.2,0-.6,0-1.1-.3.7-.2,1.2.4,1.4-.7s-.3,0-.3-.2c0-2.7-1.6-1.4-3.2-3.2l2.8,1.3c0-1.1.4-1.5-.5-2.1.5,0,.5-1.9.5-2s-.7-.4-.8-.6.5-.8.5-1.2c0-.8-.4-1.8-.5-2.1,0-.8.2-2.1.3-2.9.2,1,0,1.5,0,2.2s.6.9.6,1.1c0,.9-.3,1-.3,1.1,0,.6.3,1.3.2,2l.3.2,1.4-2.5c1.5.3.3,4,2.3,2Z"/>
        <path class="st6" d="M59.1,101.9c.2-1,.6-1.9,1.1-2.9s1.5-2.8,2.1-3.6c1,.3,0,1.9-.2,2.5s.3.6.3.6c0,.3-.6,2.1-.6,2.3,0,.3.5.5.5.6,0,.9,0,1.7,0,2.6-.1.2-1.6-.7-1.7-.8s.5,0,.3-.3-1.5-1.7-1.8-1Z"/>
        <path class="st56" d="M54,47.2c.4,1.3.9,1.7,1.2,2.5s-.2,1-.2,1.9l-1.5-1.7c-.6.3,1.7,2.1,1.7,2.2s-.2.9-.2,1.1c-3.5-.7-3-5.6-1.8-8.2.8.3.5,1.3.8,2.1Z"/>
        <path class="st6" d="M50.7,61.4c-.5,1.1-.9,2.2-1.8,3-.4-.5-1.1-4.6-.9-4.8.3-.2.6.2.8,0,.6-.2,1.3-2.7,2.6-2,.5.5-.8,2.9-.7,3.6Z"/>
        <path class="st6" d="M59.9,88.1l.3,1.9-1.7.2c-.7.2-1.1,1-2,.8.4-1.6.9-2.4,1.2-3.9s.6-.7.2-1.2c.3-.2.5-.4.7-.6.5,0,1.1,2.4,1.3,2.9Z"/>
        <path class="st38" d="M55.5,86.9c0,0-.1,0-.2.2-.4.4-2.7,2-3.2,2.1-1.4.3-3.5,0-2.1-1.7,2,.4,3.8-1.5,5.5-.6Z"/>
        <path class="st56" d="M53.6,65.1c.1.1.1.4.5.3.2.4-.2,1.2,0,1.7l2.3-.3c-1.1.5-2.8,1-4,.8s-1.5-2.1-3.1,0c-.3-.3,0-.3,0-.5.4-.2.9-.6,1.1-1.1,1.5-.2,1.6-1.9,3.2-.9Z"/>
        <path class="st6" d="M53.1,81c-.5-.7-1.9-.7-1.7-1.8,1.2-1,3.2-2.3,4.7-2.7-1,1.5-2,3-3,4.5Z"/>
        <path class="st38" d="M73.7,118.8c-1.3.4-4.2-2-4.4-3.2s1.4.1,2,.5.9,0,1.1,0,1.1,2.3,1.3,2.7Z"/>
        <path class="st38" d="M54.2,96.7c.8.9-.4,2.4.2,3.7-.3.6-1.3-.8-1.5-1.2l-.9-2.6c0-.9,0-1.8.2-2.7.2,1.3.9,2.6,1.7,3.6,0-.2.3-.6.4-.8Z"/>
        <path class="st43" d="M47.2,72.1c-.5,2.6-.6,5.2-.8,7.9-.2-.5-1.1-1.4-1.1-2s.9-3.6,1.1-4.2.3,0,.3,0c.1-.4,0-1.6.5-1.6Z"/>
        <path class="st38" d="M52.5,118.8c0,0-.4-.4-.3.2.2.2.3-.2.3-.2.7-.2,1.5-.6,2-1.1,1.6-1.2,2.9-3.8,5.1-2.2l-2.9,3.1c1-.5,1.7-1.4,2.5-2.2s.5-1.5,2.6-1l-.2,1.5c-5.5,8.3-16.1.5-20.7-4.5l6.4.9c-.3,1-1.6.8-2,1.5.7.2,2.1-1.3,2.4-1.4.6-.1,2.2.6,2.9.5.4.3-2.1,1.7-2.3,1.8.9.2,2.4-1.6,2.9-1.7s2.7.3,2.6.7c-1.1,1.1-2.5,1.9-3.9,2.8,2.9-.6,3.5-3.8,6.8-2.7.8.4-4,3.7-4.3,3.9Z"/>
        <path class="st38" d="M43,105.5c-.4,0-1.1-.2-1.5.2l.6.7c-3.2-1.7-5.5-5-7.3-8,.2-.4,1-.4,1.4-.5.7,0,2.4.3,2.9.8.7.8-1.1.5-1.1,1.1,1.7-.9,2.6-.5,4.2.5l-1.5,1.1c2.6-1.6,4.9.6,7.3,1.6.1.7-4.5,2.2-5,2.5Z"/>
        <path class="st56" d="M37.8,73.5c-.6-.1-.3.2-.6.5-1.1-2.8-.8-5.8-.5-8.8.3,0,.5-.2.8,0s2,1.4,2.1,1.5,0,1.2.5,1.5h-1.2c.4.4,1.1.4,1.5.8s-.2.2-.2.3c1.4,2-.3,1.2-.3,1.5,1.7.3,1.1.4,1.5,1.4s.4,0,.5.3-.3.4-.3.5c.2.4,1,1.5,1.4,1.8l-.2.4h-2l-2.9-1.5Z"/>
        <path class="st56" d="M35.7,82.4c1.4.3,1.2.8,2.3,1.7l-1.6.4c1.9,0,2.5,0,3.7,1.6-.2.6-1.8.3-2.5.7.6.3,2.8-.3,3-.3s1.9,1.9,2.2,2.1c-1.7.6-3.7.9-5.5.6s-1.2-1.4-1.3-.2c-1.6-2.3-2.3-4.4-3-7.1.8-.2,1.4.5,2,.6s.6-.2.7-.2Z"/>
        <path class="st20" d="M45.2,83.9c.1.2.4,1,.5,1.4-.6.6-.8-.3-1.3-.6-1.3-.3-.2,2.6-.8,3.3-.2,0,0-3.5-.4-4.2s-1.7-1.1-2-1.3-.1-.8-.6-.5c-.2-.8-.9-1-1.7-1.2-.2,0-.2,2.2-.2,2.4-.2,1.3-2-.8-2.1-1-.3-.7.2-1.6,0-2.3l-.5,1.7c-.8-.2-1.3-2-1.4-2.1s-.2.2-.5,0c-.5-.5-1.4-1.8-2-1.2,0-.3-.6-.7,0-1.1,4.3.9,10.8,2.5,13.1,6.6Z"/>
        <path class="st38" d="M42.8,88.6c.6.6,1.4,1,1.9,1.7-1.9.7-3,.7-5,1.1,1.3,0,2.6.2,3.6,0s1.5-.8,1.8-.8,1.4,1.1,1.3,1.5-1.5,1.3-2,1.4c-3.5.6-6.5-1.7-8.4-4.4,0-1.2.7,0,1.3.2,1.8.3,3.9,0,5.5-.6Z"/>
        <path class="st38" d="M37.8,73.5c.5.7,2,1.5,2.8,1.7s2.9-.3,3.1,1-3.5-.1-3.5.8c.4.6,3.6,0,3.9,0s.6,1.4.7,1.7c-2.8,2-6.6-2.1-7.6-4.7.3-.2,0-.6.6-.5Z"/>
        <path class="st56" d="M51.4,101l.5,2.9-3.1-1.1c.2-.8-1.2-3.5-1.2-3.8,0-.7,1.6-.8,1.1-1.7,1.3,1.1,2,2.3,2.7,3.8Z"/>
        <path class="st56" d="M35.7,82.4c0,0-.3.2-.7.2-.7-.1-1.3-.8-2-.6-.1-.5-.2-1.1-.3-1.7l1.7-.2c.3.7,1.9,1.5,1.3,2.3Z"/>
        <path class="st56" d="M36.2,97.9c-.3,0-1.1,0-1.4.5-.2-.4-.8-.7-.9-1.4s-.2-.4,0-.6c.5.6,2.4.6,2.2,1.5Z"/>
        <path class="st56" d="M45.7,85.2c.5,1.7,1.4,4,.5,5.7-.7-1-4.8-3.9-5.1-4.8s.1-3,.2-3.7c.3.2,1.8,1,2,1.3.4.7.2,4.2.4,4.2.5-.7-.5-3.6.8-3.3.4.3.7,1.2,1.3.6Z"/>
        <g>
          <path class="st6" d="M38.7,83.3c0,.4-.1.6,0,1s1.9,1.3,2,1.9c.6,0,0-3.8,0-4.1.5-.3.6.4.6.5,0,.7-.3,3.2-.2,3.7.2.8,4.4,3.8,5.1,4.8.8-1.7,0-4.1-.5-5.7s-.3-1.1-.5-1.4c2.1,1.8,1,5.8,1.5,7.6s1.7,1.7,1.9,2c.2-.1-.2-.8-.2-1.1.6-.8.2.4.9,0,1.2,3.7,2.7,6.7,4.7,10s.2.4.5.5c.3,1.9,7.4,9.3,9.2,10.3s0,.2.3.2c.5,1.1,8.8,6.1,10.1,6.3s.2,0,.3,0c.2.2.3.1.3.3-.2.8,1.2.7,1.3.8,5.4,2.7,11.1,4.8,16.8,6.6-.6,1.4-2.7-.4-3.6-.6-3.2-.7-9.9,1.8-13.3,3.2-.3.1-.6.2-.7.6,0,0-.6-.7-.6-.8l10.2-3.7c-.8-.6-1.9-1-2.8-1.4-1-1-2.5-1.2-3.8-1.7s-4-1.6-5.4-2.6,0-.4,0-.5l-.2.3c-.2-.1,0-.4-.2-.5-.4-.3-1.5-.4-1.9-.6-1.5-.7-2.7-1.7-4.1-2.6s-1.6-1.1-2.1-1.5c-2.6-1.9-4.4-3.7-6.6-6s-1.5-2.3-2.2-2.8-3-1.7-3.2-1.7-.4.6-.5.8c-.4-.2.3-.8.3-.8,0-.3-3.6-1.6-3.9-1.6s-.7.8-.9.9c-1.5.7-2.8,1.3-4.5,1.5.5-.3,5.1-1.8,5-2.5-2.4-1-4.8-3.2-7.3-1.6l1.5-1.1c-1.6-.9-2.5-1.3-4.2-.5,0-.6,1.8-.3,1.1-1.1s-2.2-.9-2.9-.8c.2-.9-1.7-.9-2.2-1.5-.3.2-.1.4,0,.6l-1.1-1.3c4.5-1.8,11.9-1.7,15.9,1.4.5.9-1,1.1-1.1,1.7s1.4,3,1.2,3.8l3.1,1.1-.5-2.9c.4.9.8,2.2.9,3.2l2.7,1.4c-2.1-2.5-3.5-5.3-5-8.2s-.5-2.1-.9-2.7-2-2.2-2.7-2.6c.1-.4-1.1-1.5-1.3-1.5-.3,0-1.2.7-1.8.8-1,.2-2.4,0-3.6,0,1.9-.4,3.1-.3,5-1.1-.5-.7-1.3-1.1-1.9-1.7s-2-2.1-2.2-2.1c-.2,0-2.4.6-3,.3.7-.4,2.3,0,2.5-.7-1.2-1.5-1.9-1.6-3.7-1.6l1.6-.4c-1.1-1-.8-1.4-2.3-1.7.6-.7-1-1.6-1.3-2.3l-1.7.2c-.1-.7-.3-1.3-.5-2,.6-.5,1.6.7,2,1.2s.4,0,.5,0c.1.1.5,1.9,1.4,2.1l.5-1.7c.3.7-.2,1.6,0,2.3s2,2.3,2.1,1Z"/>
          <path class="st56" d="M44.4,97c.9.2,1.9,0,2.5.8.5,1.4,1.7,3.2,1.4,4.6-.5-.6-2.8-.9-2.9-1.4s.3-.6.2-.9-1.3-3-1.1-3.1Z"/>
        </g>
        <path class="st56" d="M40.7,82.1c0,.3.6,4,0,4.1-.2-.6-1.9-1.6-2-1.9s0-.6,0-1,0-2.4.2-2.4c.8.2,1.5.4,1.7,1.2Z"/>
        <g>
          <path class="st56" d="M64,113.4c-.3,0-.3-.1-.3-.2-.2-2-.5-1.3-1.8-2.1h1.1c.1-.1-.2-2-.3-2-.1-.1-.7,0-.8-.2-.7-.7-1.7-2.3-2.6-1.8-.5-2-.5-3.2,0-5.1.3-.7,1.6.7,1.8,1s-.3.3-.3.3c0,0,1.5,1,1.7.8,0-.9,0-1.7,0-2.6s-.5-.3-.5-.6.6-2,.6-2.3-.4-.2-.3-.6c0-.6,1.1-2.2.2-2.5.2-.2.5-1,.8-.9,3.5,4,8.3,12.4,2.4,16.5s-2.7.2-1.6,2.4Z"/>
          <path class="st31" d="M67.7,105c.7-.2.2,1.7,0,2-.5,1.8-2.2,4.2-4.3,4-.8-2,.8-1.6,2-2.7s2.1-3.3,2.3-3.3Z"/>
        </g>
        <path class="st38" d="M61.9,111.1c-1.4-.9-2.3-2.5-2.7-4.1.9-.5,1.9,1.1,2.6,1.8s.7.1.8.2.4,1.9.3,2.1h-1.1Z"/>
        <path class="st17" d="M48.7,90.4c-.2-.8-.5-1.6-.6-2.4.4,1,1.5,1.1.6,2.4Z"/>
        <path class="st20" d="M54,65.4c-.3,0-.3-.2-.5-.3.1,0,.3,0,.5.3Z"/>
        <path class="st56" d="M49.8,85.8c-.4-.3-.2-.6-.3-.9.2.4.2.5.3.9Z"/>
        <path class="st56" d="M49.5,84.9s-.3-.2,0-.5c.2.1,0,.4,0,.5Z"/>
        <path class="st56" d="M58.5,90.2c.3,0,1.6,0,1.8.2,1.1,4.3-.3,10.1-5.5,10.4-.3-.1-.3-1.6-.2-1.9s.6-.4.6-.5c0-.1-.5-.1-.5-.6s1-4.3,1.1-4.5c.3-.2,2.8-.5,3.1-1.6,0-.6-1.7,1.1-1.9,1.1-.3.1-.7,0-1.1.2,0,0,.5-1.8.5-2.1.8.2,1.2-.6,2-.8Z"/>
        <g>
          <path class="st56" d="M64.4,115.2c.5.4,1.6,1.2,2.1,1.5l-4.5-.9c-.3,0-.3.9-.5,1.2l.2-1.5c-2.2-.6-1.6,0-2.6,1s-1.5,1.7-2.5,2.2l2.9-3.1c-2.2-1.6-3.4,1-5.1,2.2s-1.3.9-2,1.1c.3-.2,5.1-3.5,4.3-3.9-3.3-1.1-3.9,2.2-6.8,2.7,1.3-.9,2.7-1.7,3.9-2.8,0-.4-2.5-.7-2.6-.7-.5,0-2,1.9-2.9,1.7.2-.1,2.7-1.5,2.3-1.8-.7.1-2.3-.6-2.9-.5s-1.7,1.6-2.4,1.4c.4-.7,1.6-.5,2-1.5l-6.4-.9c-.2-.2-.6-.4-.8-.7-.1-1.3,8.6-3.2,9.9-3.2,4.6-.3,7.3.5,10.4,4s1.3,3.6,4.1,2.6Z"/>
          <path class="st56" d="M47.4,112.4c0,0-.6-1.5-.6-1.6.4.1,1.9-.3,2.2-.2s1.6,2.1,1.6,2.2c-.2.8-2.6.2-3.2-.4Z"/>
          <path class="st6" d="M47.4,112.4c0,.8-3.2,0-2.9-.8s1.6-.7,1.7-.7c.4,0,.7,1.3,1.1,1.5Z"/>
        </g>
        <path class="st56" d="M52.5,118.8s-.1.4-.3.2c0-.6.2-.2.3-.2Z"/>
        <g>
          <path class="st38" d="M51.9,105.5c-2.8,2.8-6.4,2.7-9.8.9l-.6-.7c.4-.4,1.1-.2,1.5-.2,1.6-.3,3-.8,4.5-1.5s.8-.9.9-.9c.3,0,3.9,1.3,3.9,1.6s-.7.6-.3.8Z"/>
          <path class="st38" d="M50.5,104c-.7,1-2.3,1.7-3.4,2l3.4-2Z"/>
        </g>
      </g>
    </g>
    <g>
      <g>
        <path class="st5" d="M89.1,93.4s0,.2.2.2c.2,0,.1-.1.2-.1.6,0,1.4,0,1.9-.2s0,0,0,0h0c.2,0,.1.2.2.2s0,.1,0,.1.3-.1.5,0l-.4.7s-.2.1-.2.1c-.4,0-.9,0-1.3,0s-1-.5-1-.5-.5.4-.7.4c-.8.2-1.1.2-1.9,0s-.5-.1-.6-.2-1-.7-1.1-.5.6.5.7.6c.1.3.6.6.9.8,2,1.2,4.2,1,5.9-.5h-.2c.4-.2.9-.5,1.1-.9,0,0,.1,0,.2,0,.2,0-.1.5-.2.6-.6.8-2.2,2.1-3.2,2.3-2.3.5-4.4-1-5.6-2.9l.4-.2s0,0,.1,0c.5,0,1,0,1.4,0s.5,0,.4-.1h0c.6.1,1.4.3,2,.1Z"/>
        <path class="st41" d="M87.6,90.1c-.1,0-.3.3-.4.4-.6.8-.5,1.6.4,2.2s1,.3,1.5.7c-.7.2-1.4,0-2-.2s-.6-.3-1-.4c-.6-.2-.8-.3-1.4-.4s-.1,0-.1,0c0,0,0-.1,0-.1-.2,0-1-.1-1.1,0-.2-.1,0-.2,0-.2.3,0,.8,0,1.1,0s0,0,0,0c0,0,0,0,.1,0,.4,0,.9.2,1.3.4l-.5-.6c.1,0,.2,0,.3.2.2.1,1.2.7,1.4.7.3,0-.4-.3-.5-.3-.2-.1-.4-.3-.6-.4-.1-.2-.3-.5-.5-.7v-.6c.1.1.3.3.4.4.3.4.3.6.8.9,0,0,0,.2.2.2.1-.2-.2-.2-.2-.2-.3-.3-.5-.6-.8-.9-.1-.2-.2-.5-.5-.6.2-.3.2-1.5-.3-1.1-.2,0,0-.5.1-.7.1,0,0,0,.2,0,.2-.1.5-.4.8-.5,0,.9.5,1.4,1.3,1.8Z"/>
        <path class="st41" d="M92.8,92.1c0,0-.1.4-.2.5.4-.1.8-.3,1.3-.4s0,0,.2,0,0,0,0,0c.3,0,.9,0,1.1,0h0c-.4,0-.8.1-1.2.2s0,0-.1,0c-.6.1-.9.3-1.4.5s-.8.4-1,.5,0,0,0,0c.1-.4,0-.3,0-.5.5-.1.9-.4,1.3-.8h.1Z"/>
        <path class="st0" d="M93.9,92.3v.5c-.6,0-1.2.2-1.7.2,0,0,.3-.2.2-.2.5-.2.8-.4,1.4-.5Z"/>
        <path class="st0" d="M86.1,92.8c0,0,.2.2.3.2-.4,0-1.2,0-1.6-.2v-.5c.5.1.7.2,1.3.4Z"/>
        <path class="st23" d="M84.6,92.4c.1.1,0,.3,0,.4-.3.5-.9-.2-1.3-.4.1-.2.9,0,1.1,0s0,.1,0,.1Z"/>
        <path class="st0" d="M95.2,92.2c0,.1-.7.7-.8.7s-.4,0-.6,0v-.5c.5,0,.9-.2,1.3-.1Z"/>
        <path class="st18" d="M93.3,93.6c-.4.4-.9.6-1.5.7l.4-.7c-.1-.1-.4,0-.5,0,0,0,0-.1,0-.1.5,0,1.1,0,1.6,0Z"/>
        <path class="st19" d="M93.5,93.6c-.3.4-.7.6-1.1.8s-.4.1-.7.2v-.2s.1-.1.1-.1c.6-.1,1.1-.3,1.5-.7.1,0,.1,0,.2,0Z"/>
        <path class="st0" d="M86.6,93.4c-.5,0-.9,0-1.4,0l-.3-.4c.6,0,1.2,0,1.7.4Z"/>
        <path class="st0" d="M93.7,93l-.3.4c-.4,0-.9,0-1.3,0,.5-.3,1.1-.3,1.6-.3Z"/>
        <path class="st18" d="M93.6,93.5l.2-.5c.1,0,.5-.1.6,0-.4.4-.3.5-.8.5Z"/>
        <path class="st18" d="M84.8,93l.2.4c-.5,0-.4.1-.8-.4,0-.2.5,0,.6,0Z"/>
        <path class="st14" d="M92.4,92.8s-.2.2-.2.2c-.2.1-.5.1-.7.2h0c.2,0,.7-.4,1-.5Z"/>
        <path class="st14" d="M87,93.2h0c-.2,0-.4,0-.7-.2s-.3-.1-.3-.2c.3.1.7.3,1,.4Z"/>
        <path class="st48" d="M93.8,93l-.2.5c-.1,0-.1,0-.2,0l.3-.4s0,0,.1,0Z"/>
        <path class="st19" d="M84.9,93l.3.4s0,0-.1,0,0,0,0,0l-.2-.4s0,0,0,0Z"/>
        <path class="st13" d="M94,92.3v.5c-.2,0-.2,0-.2,0v-.5c.2,0,.2,0,.2,0Z"/>
        <path class="st48" d="M84.7,92.4v.5s0,0,0-.1,0-.3,0-.4c0,0,0,0,.1,0Z"/>
        <path class="st5" d="M93,88.8c0,0,.1,0,.2,0,0,.2.1.4.2.6-.7,0-.7.7-.5,1.3-.4.4-.7,1-1.2,1.4,0-.2,0-.3-.1-.3,0-.7,0-.8-.4-1.3s-.1-.3-.2-.4c.7-.5,1.2-.9,1.2-1.7.3,0,.5.4.8.5Z"/>
        <path class="st23" d="M79.2,84.8c.9.1,2,.6,2.7,1.2s.5.5.2.4-1-.8-1.3-.7c0-.3-.8,0-.8-.1-.2-.2.2-.2-.6-.3s-.8,0-1.3.3c0-.1,0-.2,0-.2,0,0-.3.3-.4,0,0,0,0,0,.1-.1.1-.1.3-.3.2-.4h1.2Z"/>
        <path class="st23" d="M84.2,89.6v.9c-.4-.2-1-.3-1.4-.4-.1-.3.5-.3.8-.5s.1-.2.2-.3c.2,0,.3.2.5.3Z"/>
        <path class="st18" d="M84.3,89.6c.1,0,.6.5.6.5s.2-.4.3-.5c.5-.4.5.8.3,1.1h0c-.2-.2-.4-.4-.6-.5s-.1,0-.1,0c-.2-.2-.4-.3-.6-.5s-.3-.2-.5-.3c0,0-.3,0,0-.1.2.1.4.2.6.4Z"/>
        <path class="st4" d="M82.7,90.1c.5.1,1,.2,1.4.4s.3.2.4.2,0,0,0,0c.2.1.8.5,1,.7s.4.5.5.7c0,0-.1,0-.1,0-.4-.3-.7-.7-1.3-1.1s-.1,0-.2-.1c-1-.5-1.9-.7-2.9-1l1.1.2Z"/>
        <path class="st4" d="M77.9,85.3s0,0-.1.1-.5.3-.5.3c0,0-1,.3-.8.1.4,0,1-.8,1.4-.5Z"/>
        <g>
          <path class="st23" d="M84.5,87.9c0,.5,0,1.1-.2,1.6-.2-.1-.4-.2-.6-.4-.3,0,0,.1,0,.1,0,.1,0,.2-.2.3-.2.1-.9.2-.8.5l-1.1-.2c1,.3,1.9.4,2.9,1v.4c-.8-.3-1.7-.5-2.5-.5l2.3.5.2.8c-.3,0-.8,0-1.1,0-3.7-2.9-8.1-5.4-12.6-6.5,0-.2.3-.2.4-.2.9-.2,1.9,0,2.9-.2s1.9-.7,2.9-.9c-.3.2-.6.4-.8.6-.7,0-1.3.5-2,.7s-1,0-1.4.1c-.1.1.2.2.2.2,1,.2,1.8-.2,2.6-.6.7,0,1.4-.4,2.1-.5-.4.5-1.3.8-2,.9-.4.3-1.3.2-1.8.5.9.1,1.7,0,2.5-.3h0c0,.1-.3.3-.3.3.2.2,2-.3,1.2-.5,0,0,.5-.3.5-.3.1.2.3,0,.4,0,0,0,0,.1,0,.2s-.1,0,0,.1l1.4-.4c.8,0,.4.1.6.3s.8-.1.8.1c.3-.1,1.1.6,1.3.7.4.1,0-.3-.2-.4-.7-.6-1.9-1.1-2.7-1.2s-2.1-.2-3.1.3c.8-1,2.1-.8,3.2-.7-2.1-.9-4,.4-6.1.7,1.9-.6,3.6-1.4,5.6-1.1s3.4,1.4,4.2,2.8c-.8-1.8-2.8-2.8-4.6-3.2,2.1,0,4.3,1.6,4.9,3.5,0-.7-.3-1.3-.8-1.8-1-1.2-2.5-1.9-3.9-2.2,2.8-.1,5.4,2.9,5.3,5.6l.5-.9Z"/>
          <g>
            <path class="st23" d="M78,84.9c0,.1,0,.3-.2.4-.4-.2-.9.5-1.4.5-.2.2.7,0,.8-.1.8.2-1,.7-1.2.5l.3-.2h0c-.8.2-1.6.3-2.5.2.5-.3,1.4-.2,1.8-.5.6,0,1.6-.4,2-.9,0,0,.3.2.5,0Z"/>
            <path class="st23" d="M80.1,89.4c-.7-.1-.4-.3-.5-.3s-.5,0-.7-.2c.2,0,.4,0,.7,0s.6.2.6.2c.2,0,.5-.1.5-.1s.2.1.2.1,0,.1,0,.1c.4,0,1.5-.8,1.9,0-.3-.1-.7.3-1,.4s-1.4,0-1.8-.1Z"/>
            <path class="st23" d="M81.1,87.9c.4,0,.7.2,1,.3-.3,0-1.2.7-.6,0-.9.3-1.8.5-2.7.5,0-.2,0-.1.2-.2.4-.1,1.2-.2,1.6-.3s.4-.3.6-.3Z"/>
            <path class="st23" d="M80.4,87.3s.2,0,.2,0c0,0-.1.3,0,.4-.2,0-.3.2-.5.2-.6.1-1.2.3-1.8.2s-1.2-.3-.7-.4c.5.1,1.1.2,1.6.1s1-.2.6-.5c.2,0,.4-.1.6-.2Z"/>
            <path class="st23" d="M80.3,87.2c-.4,0-.7.2-1,.3s-1.6.2-2.1.1-.6-.1-.4-.2c.5,0,1,0,1.5,0s.5-.2.7-.2c.5.4.7-.2,1.4.1Z"/>
            <path class="st23" d="M75.9,85c-.2.1-.3.3-.5.4-.8.4-1.7.8-2.6.6s-.4,0-.2-.2c.5,0,1,0,1.4-.1.7-.2,1.3-.6,2-.7Z"/>
            <path class="st24" d="M83.4,89.1c-.4.1-.8.3-1.1.4-.7.2-1.1.2-1.9.1s-.2,0-.2-.2c.4,0,1.4.2,1.8.1s.7-.5,1-.4c-.4-.7-1.5.1-1.9,0s0-.1,0-.1c.4,0,1-.4,1.4-.4s.5.2.6.2.3-.2.5.2Z"/>
            <path class="st1" d="M84.5,91.2s0,0,.1,0c.4.1.7.3,1,.6-.3-.1-.7-.3-1-.4s0,0-.1,0-.1-.2-.2-.1l-2.3-.5c.8,0,1.7.2,2.5.5Z"/>
            <path class="st23" d="M82.2,89.4c.4,0,.8-.2,1.1-.4,0,0,.1.2,0,.3,0,.2-1.1.4-1.2,0Z"/>
            <path class="st4" d="M79.6,85.7c0,0,1,0,.7.2s-1.5,0-1.7,0c0-.1.9-.3,1.1-.3Z"/>
            <path class="st26" d="M78.9,87.1c-.2,0-.5.2-.7.2,0-.3.3-.2.3-.2.7-.3,1.2-1.1,2-.6-.3,0-.7,0-1,0s-.5.4-.7.5Z"/>
            <path class="st26" d="M79.4,85.3l-1.4.4c0,0,0,0,0-.1.5-.3.7-.4,1.3-.3Z"/>
            <path class="st55" d="M84.5,91.4v.7s0,0,0,0l-.2-.8c0,0,.2.1.2.1Z"/>
            <path class="st4" d="M80.3,87.2s0,0,.1,0c-.2,0-.4.1-.6.2s-.5.3-.5,0c.4,0,.7-.3,1-.3Z"/>
            <path class="st4" d="M80,88c.2,0,.3-.2.5-.2.3-.1.7,0,.3,0s-.7.1-.8.2Z"/>
            <path class="st48" d="M84.7,91v.3c-.1,0-.1,0-.2,0v-.4c0,0,.1,0,.2.1Z"/>
          </g>
        </g>
        <path class="st24" d="M97.8,83.1c-1.2,1-2.4,1.9-3,3.5s-.2.7,0,.8c0,.3-.1.7-.2,1,0-.1-.2-.5-.3-.7.2-.6.3-1.2.5-1.7.4-.9,1.4-2,2.2-2.5s.6-.3.8-.4Z"/>
        <path class="st15" d="M94,90.9c0,0,0,0,0,0-.4.2-.5.4-.8.7-.6.4-1,1-1.7,1.1,0-.1,0-.1,0-.2l.3-.2h-.2s0,0,0,0c0-.2.1-.3.1-.5.2,0,0,.1.1.3s0,0,0,.1c.5-.4.8-.9,1.2-1.4-.1.2-.2.4-.2.7.3-.2.6-.5,1-.7s0,0,.1,0c.2-.1.5-.3.8-.4s.7-.2,1.1-.3.4-.1.5-.1.3,0,.3,0c-.5.1-1,.2-1.4.3s-.9.4-1.2.5Z"/>
        <path class="st0" d="M94.5,88.8c0,0,0,.5.2.5s.5-.3.6-.2l-.3.2c.5.1.8.5,1.4.7-.2,0-.4,0-.5.1.1-.3-.5-.4-.7-.5s-.3-.3-.3-.3-.3.2-.4.2-.2,0-.2,0v-1.5c.1.2.2.5.3.7Z"/>
        <path class="st4" d="M94.2,87.6c0,.2.3.5.3.7s0,.5,0,.5c-.1-.2-.2-.5-.4-.7,0-.3-.2-.6-.3-.9s-.1-.4,0-.2c0,.2.2.4.3.6Z"/>
        <path class="st55" d="M94.3,91.3c0,.3,0,.6-.2.8,0,0,0,0,0,0v-.7c0,0,.1,0,.2-.1Z"/>
        <g>
          <path class="st23" d="M101.2,84.8c-.4-.1-1.8-.2-2,.2.5,0,1.2-.1,1.7,0,.4.3,1.2,1,1.4.3.1,0,.9.3.9.2l-1.3-.9c.8.1,1.6.6,2.4.8s2.1,0,3.1.2.4,0,.6,0c-1.4.5-2.8.9-4.2,1.5,0,0,0-.2.2-.2,0-.2-1.7,0-2,0s-1.3-.4-1.2-.5c.4-.2,1.1.4,1.3,0-.5-.2-1.1-.4-1.6-.5-.2-.3-.9-.6-1.2-.5s-.2.2-.2.2c-.2,0-.7,0-.8.1-.2,0,0,.2-.1.2-.5.2-1,.4-1.5.8,0,.1.1.1.2,0,.1,0,.7-.3.8-.3,0,0,.8,0,.8.2,0,0-.5,0-.4.1h.8c.5.2.8.5,1.3.7s1.4,0,1.8.2-1.1.2-1.1.2,0,0-.1,0c-.2,0-.6,0-.7,0s-.5-.1-.7-.2c-.6-.1-1.1-.5-1.8-.3,0,.3.6,0,.8.1-.1.2,1,.6,1.1.6.5,0,1.1,0,1.5,0,.2.2-.4.3-.6.3-.5,0-1.3,0-1.8-.2s-.5-.4-.8-.4c.2.2.5.3.8.5.5.2.8.4,1.4.4.4.2-.9.2-1,.2-.2,0-.6-.2-.6-.2-.2,0-.1.2-.3.1-.3,0-.9-.5-1.3-.3l1.6.5-.2.2c.5,0,1.3-.4,1.5.1-.7.4-4.2,3-4.5,3.1s-.8,0-1.1,0c.1-.2.3-.6.2-.8,1-.4,1.5-.3,2.4-.4s.2,0,.1-.1h-1c-.6.2-1.2.3-1.8.5v-.4c.3-.2.8-.4,1.2-.5s1-.2,1.4-.3c0-.2-.2,0-.3,0-.6-.2-.8-.6-1.4-.7l.3-.2c-.2,0-.6.2-.6.2-.1,0-.2-.4-.2-.5,0,0,0-.5,0-.5,0-.3,0-.7.2-1,.6-2.1,2.9-4.2,5.1-4.1-1.9.4-3.6,1.5-4.6,3.2l-.3.9.5-.9-.3,1.1c.7-2,2.7-3.8,4.9-3.7-1.7.4-3.5,1.3-4.4,2.9,2.3-3.4,6.3-2.9,9.6-1.4-2-.4-3.9-1.4-6-.8,1.2,0,2.2-.2,3.2.7,0,.2-1.1-.6-1.3-.3Z"/>
          <g>
            <path class="st41" d="M99.3,82.8c.8,0,1.7.3,2.4.5,1.9.6,3.9,1.6,5.8,2.1h-.1c-1,0-2.1,0-3.1-.1s-1.6-.6-2.4-.8l1.3.9c0,0-.8-.2-.9-.2-.3,0-.7-.2-1-.2.1-.1,0-.1-.1-.2.1-.3,1.2.6,1.3.3-1-.9-2-.7-3.2-.7,2.1-.7,4,.4,6,.8-3.3-1.4-7.3-1.9-9.6,1.4.8-1.6,2.7-2.5,4.4-2.9-2.2,0-4.2,1.7-4.9,3.7l.3-1.1-.5.9.3-.9c1-1.7,2.7-2.8,4.6-3.2-2.2-.1-4.5,2.1-5.1,4.1-.2,0,0-.7,0-.8.6-1.5,1.8-2.5,3-3.5.3-.1.6-.2,1-.2s.4,0,.6,0Z"/>
            <path class="st1" d="M94.3,91.3c-.1,0-.2,0-.2.1s0,0-.1,0c-.3.2-.9.3-1.1.6h-.1c.1,0,.2-.2.4-.4.3-.1.6-.3.9-.4s0,0,.1,0c.6-.2,1.2-.3,1.8-.5h1c0,.2,0,.1-.1.1-.9.2-1.4,0-2.4.4Z"/>
            <path class="st23" d="M101.3,84.9c.3,0,.7.2,1,.2-.2.7-1,0-1.4-.3.2,0,.3,0,.5,0Z"/>
            <path class="st41" d="M101.2,84.8c.1,0,.2,0,.1.2-.2,0-.3,0-.5,0-.5,0-1.2,0-1.7,0,.2-.3,1.6-.3,2-.2Z"/>
            <path class="st4" d="M100.5,85.8c-.5-.1-.9-.4-1.4-.4,0,0,0-.2.2-.2.4,0,1,.2,1.2.5Z"/>
            <path class="st4" d="M100.9,85.3l1.2.6c-.4,0-1.3-.1-1.2-.6Z"/>
            <path class="st4" d="M99.3,87.5c-.2.2-.7-.1-1-.2s-.9.2-.8-.1c.7-.2,1.2.2,1.8.3Z"/>
            <path class="st24" d="M96.3,88.7l1,.2.3.2c-.4,0-1,0-1.3-.5Z"/>
            <path class="st24" d="M95.8,89.1c.3,0,.7.1.9.5,0,0-.9-.3-.9-.5Z"/>
            <path class="st4" d="M98.6,88.1h0c-.2,0-.6-.2-.8-.4.3,0,.6.3.8.4Z"/>
          </g>
        </g>
        <path class="st46" d="M94.1,91.2s0,0-.1,0v-.4s0,0,0,0v.4Z"/>
        <g>
          <path class="st41" d="M79.5,82.8c.4,0,.9.2,1.3.3.2.3.6.5.9.7,1.3,1,2.1,2.5,2.4,4.1,0-1.4-.9-3-1.9-3.9,1.2.9,1.9,2.3,2,3.8l.4-.7h.1c0,0-.1.2-.1.3,0,.3-.1.5-.2.7l-.5.9c.2-2.7-2.4-5.8-5.3-5.6,1.5.3,3,1,3.9,2.2s.8,1.2.8,1.8c-.6-2-2.8-3.6-4.9-3.5,1.8.4,3.8,1.4,4.6,3.2-.8-1.4-2.6-2.6-4.2-2.8s-3.8.5-5.6,1.1c2-.3,4-1.6,6.1-.7-1.1-.1-2.4-.3-3.2.7,1-.5,2-.5,3.1-.3h-1.2c-.2.3-.5,0-.5,0-.7,0-1.4.5-2.1.5.2-.1.4-.2.5-.4.3-.2.6-.4.8-.6-.9.2-1.9.7-2.9.9s-1.9,0-2.9.2h0c1.9-.6,3.9-1.6,5.8-2.2s1.7-.5,2.6-.5Z"/>
          <path class="st0" d="M82.2,84c1,.9,1.9,2.5,1.9,3.9-.3-1.6-1.1-3-2.4-4.1s-.7-.4-.9-.7c.6.2,1,.5,1.4.9Z"/>
          <path class="st39" d="M74.2,84.4c0,0,.1,0,.2,0,.1,0-1.5.6-1.6.6.3-.2,1.1-.5,1.4-.6Z"/>
          <path class="st26" d="M75.4,84.1c0,0,.2,0,.2,0,0,0-1,.3-1.1.3.2-.1.7-.3.9-.3Z"/>
        </g>
        <path class="st18" d="M91.7,94.6c.3,0,.4,0,.7-.2h.2c-1.7,1.6-3.9,1.8-5.9.6s-.8-.5-.9-.8c.3.2.5.2.9.3s.9.2,1.4.1,1.1-.5,1.2-.5.9.4,1.1.5.8,0,1.2,0Z"/>
        <path class="st12" d="M91.6,94.4v.2c-.3,0-.8.1-1.2,0s-1.1-.5-1.1-.5-.9.4-1.2.5c-.5,0-.9,0-1.4-.1v-.2c.8.2,1.2.2,2,0s.6-.4.7-.4c0,0,.7.5,1,.5s.9,0,1.3,0Z"/>
        <path class="st41" d="M91.5,92.3c0,0,0,0-.1.2s0,.1,0,.2,0,0,0,.1c0,.2.1.1,0,.5-.5.2-1.3.1-1.9.2.1-.5,1-.6,1.5-.8s.4-.2.6-.4c0,0,0,0,0,0Z"/>
        <path class="st19" d="M86.7,94.3v.2c-.4,0-.6-.1-1-.3s-.7-.5-.7-.6c0-.3.9.4,1.1.5s.4.1.6.2Z"/>
        <g>
          <path class="st23" d="M99.1,85.4c.5,0,1,.2,1.4.4s1.1.3,1.6.5c-.2.5-.9-.2-1.3,0,0,0,1.1.4,1.2.5.3,0,2-.2,2,0-.2,0-.2.2-.2.2-1,.7-3,1.3-4.1,2-.2-.5-1.1,0-1.5-.1l.2-.2-1.6-.5c.4-.2,1,.2,1.3.3s0-.2.3-.1.4.2.6.2,1.3,0,1-.2c-.6,0-.9-.1-1.4-.4h0c.5,0,1.3.2,1.8.1s.7-.1.6-.3c-.5,0-1.1.1-1.5,0s-1.2-.4-1.1-.6c.3,0,.8.4,1,.2.2,0,.7.2.7.2.2,0,.5,0,.7,0s0,0,.1,0,1.7,0,1.1-.2-1.1,0-1.8-.2c-.6-.4-.9-.8-1.7-.8,0-.2-.7-.2-.8-.2s-.7.3-.8.3-.2,0-.2,0c.4-.3,1-.5,1.5-.8s0-.1.1-.2.6,0,.8-.1Z"/>
          <path class="st4" d="M98.4,86.4c.8,0,1.1.4,1.7.8-.5-.2-.8-.5-1.3-.7h-.8c0-.2.3-.1.4-.1Z"/>
          <path class="st23" d="M100,86.4l3.2.7c-1.1.2-2.4,0-3.2-.7Z"/>
          <path class="st4" d="M98.5,85.7c.2,0,1.6,0,1.6.3-.6,0-1.1-.1-1.7-.2,0,0,.1-.1.1-.1Z"/>
        </g>
        <path class="st0" d="M86,92.1h-.2c-.1,0-.2-.2-.3,0l.5.6c-.4-.2-.9-.3-1.3-.4v-.7c.3.1.7.3,1,.4-.3-.3-.7-.4-1-.6v-.3c.6.3.9.7,1.3,1.1Z"/>
        <path class="st18" d="M85.5,90.7s0,.1.1.2v.6c-.2-.1-.7-.5-1-.7l.2-.7c.2.2.4.3.6.5Z"/>
        <path class="st14" d="M86,92.1s0,0,.1,0c.2.1.4.3.6.4s.8.3.5.3-1.1-.6-1.4-.7h.2Z"/>
        <path class="st14" d="M86.8,92.2c-.4-.3-.5-.5-.8-.9.3.3.5.6.8.9Z"/>
        <path class="st16" d="M84.6,91.5v.7c0,0,0,0-.1,0v-.7c0,0,.1,0,.1,0Z"/>
        <path class="st14" d="M86,91.3c-.1-.1-.3-.3-.4-.4s0-.2-.1-.2h0c.2.1.3.4.5.6Z"/>
        <path class="st14" d="M86.8,92.2s.3,0,.2.2c-.1,0-.2-.2-.2-.2Z"/>
        <path class="st0" d="M93.9,91.5v.7c-.5,0-.9.2-1.4.4,0,0,.2-.4.2-.5.2-.3.8-.4,1.1-.6Z"/>
        <path class="st14" d="M93.1,91.6s0,.1,0,.1c-.1.1-.2.3-.4.4-.4.3-.8.7-1.3.8,0,0,0,0,0-.1.7-.1,1.2-.7,1.7-1.1Z"/>
        <path class="st16" d="M94.1,91.4v.7c0,0-.1,0-.2,0v-.7c0,0,.1,0,.2,0Z"/>
        <path class="st18" d="M93.5,89.4c.2.4.1.4.5.4-.1.1-.5.5-.7.7s-.3.1-.4.2c-.2-.5-.3-1.3.5-1.3Z"/>
        <path class="st51" d="M93.3,90.5h0c-.1.2-.2.3-.3.4-.4.4-.8,1-1.2,1.4,0,0,0,0,0-.1.5-.4.8-.9,1.2-1.4s.3-.2.4-.2Z"/>
        <g>
          <path class="st60" d="M91.1,90.1c.1,0,.2.3.2.4-.1.5-.3.2-.4.2-.9-.7-2.5-.8-3.4,0,0,0-.2-.1-.3-.2,0-.1.2-.3.4-.4.8-.6,2.6-.6,3.5,0Z"/>
          <path class="st54" d="M90.7,90.6l-.2.2c.2,0,.8.6.6.8-.4,0-.6.1-.7.5.1.3.7-.3.7-.2l-.2.7c-.5.2-1.4.4-1.5.8,0,0,0,.2-.2.1s-.1-.2-.2-.2c-.5-.4-1-.4-1.5-.7-.5-1-.2-.5.5-.5.1-.5-.7-.6-.7-.7-.1-.2.3-.6.2-.8,1-.3,2.1-.3,3.1-.2Z"/>
          <path class="st52" d="M87.5,90.7s0,.1,0,.1c0,.2-.4.6-.2.8s.8.1.7.7c-.6,0-1-.6-.5.5-.9-.5-.9-1.4-.4-2.2,0,0,.3.1.3.2Z"/>
          <path class="st52" d="M91.7,91.8c0,.2,0,.3-.1.5-.2.2-.4.3-.6.4l.2-.7c0,0-.6.5-.7.2.1-.4.3-.5.7-.5.1-.2-.5-.7-.6-.8l.2-.2c0,0,.2,0,.2,0,0,0,.2.3.4-.2.4.5.4.7.4,1.3Z"/>
          <path class="st1" d="M90.9,90.6s-.1,0-.2,0c-1-.1-2.1-.2-3.1.2,0,0,0-.1,0-.1.9-.8,2.5-.8,3.4,0Z"/>
        </g>
        <path class="st55" d="M84.8,90.1l-.2.7c-.1,0-.3-.2-.4-.2v-.9c.2.2.4.3.6.5Z"/>
        <path class="st14" d="M84.9,90.2l-.2.7c0,0,0,0,0,0l.2-.7s0,0,.1,0Z"/>
        <path class="st23" d="M95.9,90.1c-.4,0-.7.2-1.1.3h-.3v-.8c0,0,.4-.2.4-.2s.2.3.3.3c.2,0,.8.2.7.5Z"/>
        <path class="st42" d="M94.8,90.4c-.3,0-.5.2-.8.4l-.2-.5c-.2,0-.3.1-.4.2h0c.2-.2.5-.6.7-.7s.2-.1.2-.2.2,0,.2,0v.8h.3Z"/>
        <path class="st18" d="M93.8,90.3v.5c-.2.2-.5.5-.9.7,0-.3,0-.5.2-.7.1-.1.2-.2.3-.3s.2-.3.4-.2Z"/>
        <path class="st23" d="M93.9,91.3c-.3.1-.6.3-.9.4,0,0,0-.1,0-.1.3-.3.4-.4.8-.7v.4Z"/>
        <path class="st58" d="M94,90.8s0,0-.1,0v-.5c-.1,0,.1.5.1.5Z"/>
        <path class="st59" d="M91.4,92.5c0,0,.1-.1.1-.2h.2s-.3.2-.3.2Z"/>
      </g>
      <g>
        <g>
          <path class="st41" d="M105.9,64.7c.2,2.2-.7,4.8-1.3,6.9.7.1,0,.9-.1,1.3s.2.2.2.2c-.2,1-.6,2.1-1,3-.2-.2-.4-.5-.6-.7l.3-.4c-.5,0,.2-.3.2-.6s-.2,0-.2,0c0,0,.3-.5.3-.7s-.2,0-.2-.1.2-.4.2-.5,0-.8,0-.8c0,0-.2.2-.2,0,.1-.2.6-.8.1-.7.3-.3,0-.4,0-.4,0-.3.3-.6.4-.9.2-.5.5-1,.6-1.5.3-1.2.5-2.6.4-3.8h0c0,0-.3.4-.3.4l.2-.9-.3.2c.1-.7.4-3.1-.8-2.7s-5.2,3.9-6,4.8l-.5-.5c1.3-1.2,4.3-3.8,5.9-4.6s2.3,1.5,2.5,3,.1,0,.1,0Z"/>
          <path class="st13" d="M103.3,61.7c-1.6.7-4.5,3.3-5.9,4.6s-2.6,2.5-3.4,4.3c0,0-.3-.1-.4-.5s-.2-.7-.3-1.1c1.2-1.9,3.2-3.8,5.2-5s3.2-1.9,4.4-2.4c.1,0,.3,0,.4.2Z"/>
          <path class="st49" d="M98.5,63.9c-1.9,1.2-3.9,3.1-5.2,5,0,0-.1-.1-.2-.4-.1-1.2.3-1.8,1-2.6,1.4-.4,2.9-1.6,4.4-2Z"/>
          <path class="st19" d="M105.9,64.7s-.1,0-.1,0c-.2-1.5-.4-3.9-2.5-3,0-.3-.2,0-.4-.2.5-.2,1.2-.6,1.7-.4.9.2,1.2,2.8,1.2,3.6Z"/>
          <path class="st36" d="M103.4,70.5c-.5.8-1.2,1.3-1.9,1.8l.9-.4-.5.5.7-.2c-.2.4-.7.5-1.1.6l.8.3-1.2.2,1.4.2-.4.2.4.2h-.6c.2.2.7,0,.7.2h-.4c.4.3.6,0,.6.5h-.5c0,.3.7.2.4.5-.2-.2-1.4-1.4-1.5-1.4-.3-.1-.6,0-.8,0-.8-.3-1.4-.6-2.3-.6h0c.3,0,.6-.3.9-.3l-1-.2c.2-.2.6-.2.9-.3h-.8c0,0,.6-.3.6-.3l-.7-.2c.3-.2.6,0,1-.1-.4-.3-1-.4-1.5-.3.5-.3,1.1,0,1.7,0-.4-.4-1-.6-1.5-.6.9-.3,2,.3,2.8.7l-.5-.5h.8c-.5-.4-1.2-.5-1.9-.7,0-.2,1-.1,1-.2-.3-.2-.8,0-.9-.2h1c-.4-.2-.8-.3-1.2-.2,0,0,0-.1,0-.1.6-.2,1.3-.1,1.8.1,0-.2-.4-.2-.2-.4l1,.2c-.4-.4-1.1-.5-1.7-.6h.6c.4-.2-1.7-.3-1.7-.3.6-.3,1.3-.4,2-.4-.5-.4-1.5,0-2.1,0s0,0,0,0c.9-.3,1.8-.6,2.8-.4-.9-.6-1.9-.2-2.9,0,1-.3,1.9-.8,2.9-.6-.6-.3-1.3-.2-2-.3.5,0,.9-.2,1.4-.3s.6,0,.6-.1h-1.4s2-.9,2-.9c-.2-.2-1.1.3-1.2.2,1.2-.6,2.1-1.5,2.9-2.5l-1.1,2c0,.2.3-.2.3-.2.2-.2.4-.6.6-.8.2,0-1,1.5-.8,1.6l.8-.6c0,.2-1,1.1-.9,1.2l1.1-.8-1.3,1.4,1.3-.8-1.4,1.4,1.2-.5-.9,1,1.4-.9-1.6,1.4,1.6-1-1.5,1.5,1.4-.7-1.8,1.7c.1.2,1-.8,1.2-.7l-1.3,1.2,1.7-1.1-1.9,2c.6.1,1-.6,1.4-.9Z"/>
          <path class="st32" d="M104.1,70.2c-.1.3-.4.6-.4.9s.2.2,0,.4c.4-.1,0,.4-.1.7,0,.2.1,0,.2,0s0,.8,0,.8-.2.5-.2.5.2,0,.2.1-.3.6-.3.7.2,0,.2,0c0,.3-.7.6-.2.6l-.3.4c0,0-.1-.2-.2-.2.3-.3-.4-.3-.4-.6h.5c0-.5-.1-.2-.6-.4h.4c0-.3-.5,0-.7-.2h.6s-.4-.2-.4-.2l.4-.2-1.4-.2,1.2-.2-.8-.3c.4-.1.9-.3,1.1-.6l-.7.2.5-.5-.9.4c.7-.6,1.4-1.1,1.9-1.8s.2-.6.3-.5.3.4.5.3Z"/>
          <path class="st3" d="M104.1,70.2c-.2.1-.4-.3-.5-.3-.1,0-.3.5-.3.5-.4.3-.9,1-1.4.9l1.9-2-1.7,1.1,1.3-1.2c-.2,0-1.1,1-1.2.7l1.8-1.7-1.4.7,1.5-1.5-1.6,1,1.6-1.4-1.4.9.9-1-1.2.5,1.4-1.4-1.3.8,1.3-1.4-1.1.8c-.2,0,.8-1,.9-1.2l-.8.6c-.2,0,1.1-1.5.8-1.6-.2.3-.4.6-.6.8s-.3.4-.3.2l1.1-2c-.8,1-1.7,1.9-2.9,2.5,0,.2,1-.4,1.2-.2l-2,.9h1.4c0,.2-.4.1-.6.2-.4,0-.9.3-1.4.3.6,0,1.3,0,2,.3-1-.2-1.9.3-2.9.6,1-.1,2-.5,2.9,0-1-.2-1.9,0-2.8.4s-.4.4-.7.2c-.1-.2.8-.3.8-.3-.2,0-.2-.1-.4-.2,0-.4-.4-.5-.5-.8,0,0,.1-.2.2-.2.8-.9,5-4.5,6-4.8s.9,2,.8,2.7l.3-.2-.2.9.3-.5h0c0,1.2,0,2.6-.4,3.9s-.4,1-.6,1.5Z"/>
          <path class="st26" d="M97.9,66.8c0,0-.1.2-.2.2-.2.2-.4.5-.6.8s-.5.7-.8,1-.4,0-.4,0-.1.3-.2.4c-.3.4-.3.5-.4,1l-.2-.7c0,0-.2,1.2-.5,1.2v-.8c0,.3-.3.9-.3,1.1-.2,0-.3-.5-.4-.6.7-1.8,2-3,3.4-4.3l.5.5Z"/>
          <path class="st30" d="M96.2,70.4s-.2.4,0,.3l.2-.6c.1-.3.2-.9.5-1-.2.8-.3,1.5-.7,2.2,0,.1.5-.2.5-.3l.7-.5-.4.5h.1c-.4.6-1,1-1.3,1.7l.2.2c.2-.4.5-.5.7-.8s-.1,0,0,0c0,0,.7-.6.7-.6,0,.2,0,.1,0,.2-.4.4-1.1.9-1.2,1.5-.2,0-1.6-1.6-1.7-1.9s0-.2,0-.2c0-.2.2-.8.2-1.1v.8c.3,0,.5-1.2.5-1.2l.2.7c0,.4-.2.4.2.5,0-.2,0-.5.2-.7.2.8.4-.6.7-.8,0,.4-.2.8-.3,1.2h.2Z"/>
          <path class="st44" d="M97.7,71.4c.5,0,1.1,0,1.5.3-.3,0-.7-.1-1,.1l.7.2-.6.2h.8c-.3.1-.7.1-.9.4l1,.2c-.3,0-.6.2-.9.3-.7,0-1.4,0-2,.2.2-.6.8-1.1,1.2-1.5s0,0,0-.2c0,0,.2,0,.2,0Z"/>
          <path class="st0" d="M98.3,67.8c.1,0,.2.2.4.2,0,0-.9.2-.8.3.3.2.5-.1.7-.2,0,0,0,0,0,0l.2.3-1.2.8c.5,0,1.1-.3,1.6-.3-.3.4-1,.4-1.3.8.3.1,1.1-.7,1.3-.4-.1,0,0,.1-.1.2s-.2,0,0,.1c.4,0,.8,0,1.2.3h-1c0,.2.7,0,.9.1,0,0-.9,0-1,.2.7.2,1.4.3,1.9.8h-.8c0,0,.5.5.5.5-.8-.4-1.8-1-2.8-.7.5,0,1.1.2,1.5.6-.5-.2-1.1-.4-1.7,0,0,0-.2,0-.2,0s-.7.5-.7.6.2,0,0,0c-.3.3-.5.5-.7.8l-.2-.2c.3-.7.8-1,1.3-1.6h-.1c0,0,.4-.5.4-.5l-.7.5c0,.1-.4.5-.5.3.4-.7.5-1.4.7-2.2s.2-.9.4-1.4c.3,0,.7,0,1,0Z"/>
          <path class="st3" d="M99.9,68.9c-.4,0-.4,0-.8,0-.5,0-1.1.2-1.6.3l1.2-.8-.2-.3c.6,0,1.6-.4,2.1,0-.7,0-1.3.1-2,.4,0,0,2.1.1,1.7.3h-.6Z"/>
          <path class="st32" d="M99.9,68.9c.6,0,1.2.2,1.7.6l-1-.2c-.2.2.2.2.2.4-.6-.2-1.3-.4-1.8-.1,0,0,0-.1.1-.2-.2-.2-1,.5-1.3.4.4-.4,1.1-.4,1.3-.8.4,0,.4,0,.8,0Z"/>
          <path class="st32" d="M98.3,67.8c-.2,0-.7,0-1,0s-.1,0-.2,0c.2-.2.4-.5.6-.8.1.3.5.4.5.8Z"/>
          <path class="st24" d="M97.3,67.8c-.2.4-.3.9-.4,1.4-.3,0-.4.6-.5,1s-.1.1-.2.2h-.2c.2-.4.3-.8.3-1.2-.3.2-.5,1.6-.7.8,0-.3.3-.6.1-.8,0,0,.2-.4.2-.4s.2,0,.4,0c.3-.3.5-.6.8-1,0,0,0,0,.2,0Z"/>
          <path class="st44" d="M95.6,70.1c0,.2,0,.5-.2.7-.4-.1-.2-.2-.2-.5s.1-.6.4-1c.1.3,0,.6-.1.8Z"/>
          <path class="st47" d="M96.2,70.4c0-.1.2-.2.2-.2l-.2.6c-.2,0,0-.3,0-.3Z"/>
        </g>
        <g>
          <path class="st41" d="M75.3,61.7c.7.7,2.2,1.4,3,2.1s1.9,1.6,2.8,2.4l-.5.5c-.9-1-4.9-4.3-6-4.7s-.8,1.9-.8,2.5c-.2.2,0,0-.2,0,0,.4.4,1.4-.2.5,0,.2,0,.5,0,.7,0,1,0,2.3.4,3.4s.5,1,.7,1.4-.2,0,0,.3.2.3.2.3c0,0-.2,0-.2,0,0,.1.2.3.2.4,0,0-.2,0-.2,0,0,.2.1.3.1.4,0,.1-.1,0-.1.2,0,.2.3.3.3.5s-.2.2,0,.4h-.2c0,0,.2.5.2.5,0,.2-.1,0-.2,0-.1.2.3.7.3.9s-.2,0-.1.2.3.3.3.3-.3.2.2.5c-.2.2-.5.6-.7.8-.3-.9-.8-1.9-1-2.9s.1-.3.1-.5-.5-.9-.4-1,.3,0,.4-.1-.6-1.7-.7-2c-.4-1.4-.8-3.2-.7-4.7s.6-4.6,2.6-3.2Z"/>
          <path class="st13" d="M75.9,61.6c1.4.7,2.8,1.6,4.3,2.3,1.8,1.6,4,2.9,5.1,5.2-.2.8-.3.8-.7,1.4-.7-1.7-2.1-3-3.4-4.3s-1.8-1.6-2.8-2.4-2.3-1.4-3-2.1,0-.1,0-.2c0,0-.4,0-.3-.2l.9.2Z"/>
          <path class="st49" d="M84.5,65.9c.5.8.9,1.3.9,2.3s0,.5-.2.9c-1.1-2.2-3.3-3.6-5.1-5.2,1.1.6,3.3,1.7,4.4,2Z"/>
          <path class="st19" d="M75.9,61.6l-.9-.2c0,.2.2.2.3.2s0,.1,0,.2c-2-1.4-2.5,1.9-2.6,3.2-.1-.8.3-3.7,1.2-3.9s1.5.3,2,.5Z"/>
          <path class="st36" d="M78,66.1c0,0,.5.2.5.4h-1.3l1.8.5c-.6,0-1.3,0-1.9.2.2,0,2.1,0,1.9.4-.6,0-1.3,0-1.9.3.9,0,1.9,0,2.7.5-.7,0-1.6-.4-2.3,0,.5,0,1.1,0,1.6.2s.1,0,.2,0c.2,0,.4.1.5.2-.7-.1-1.3,0-2,0,.2,0,.4.1.6.2-.5,0-1.2.2-1.6.6.4,0,1.5-.4.7.1.6-.3,1.3-.3,2-.1,0,0,0,0,0,.1-.4,0-.8,0-1.2.3h1.3-1.1c0,0,.9.3.9.3l-1.8.7h.5s-.4.5-.4.5c.9-.4,1.8-.9,2.8-.6-.5,0-1.3.2-1.5.7.5-.4,1.1-.3,1.6-.1-.5,0-1,0-1.4.3h.8s-.6.3-.6.3l.7.2h-.9s.9.4.9.4c0,0-.8,0-.9.2.3,0,.7.2,1,.2-1,0-1.6.4-2.5.7s-.6,0-.8,0-1.3,1.2-1.4,1.4c-.3-.2.4-.3.4-.5l-.5-.2.7-.2c0-.2-.4.1-.3-.2h.6s-.6-.1-.6-.1l.4-.2-.5-.2c.5,0,1,0,1.5-.2l-1.5-.2,1.1-.2-1.1-.5c0-.2.8.1.8,0l-.6-.5,1,.5c-.7-.6-1.5-1.1-1.9-1.9.4.4.8.9,1.4.9-.5-.5-1.1-1-1.5-1.5s-.4-.3-.2-.4l1.4,1c-.2-.3-.9-.8-1.1-1s0-.2,0-.2c.2.2.5.5.7.6s.3.2.3,0l-1.7-1.7c.1,0,1.2.8,1.3.6l-1.6-1.4,1.6.9-1.6-1.5,1.5.9-.9-1,1.2.5-1.4-1.4c0-.2.2,0,.3,0,.3.2.6.6,1,.7l-1-1.2,1,.6-1-1.2.9.6c-.3-.4-.7-.8-.9-1.4l.8.8c.1,0-1-1.6-1.1-1.9.9.9,1.7,1.9,2.9,2.4-.2.1-1.2-.3-1.2-.2.4.3,1,.4,1.5.6Z"/>
          <path class="st32" d="M75.8,75.1s-.1.2-.2.2c-.5-.2-.2-.4-.2-.5,0,0-.3-.2-.3-.3,0-.2.2,0,.1-.2s-.4-.8-.3-.9.2.2.2,0l-.2-.5h.2c-.3-.2,0-.3,0-.4,0-.1-.3-.3-.3-.5s.1,0,.1-.2-.1-.2-.1-.4.2,0,.2,0-.3-.3-.2-.4.2,0,.2,0-.2-.2-.2-.3c.3-.3,0-.5.7-.5-.1-.2-.5-.4-.1-.5.4.6,1,1,1.5,1.5-.6,0-1-.5-1.4-.9.4.8,1.2,1.3,1.9,1.9l-1-.5.6.5c0,0-.8-.3-.8,0l1.1.5-1.1.2,1.5.2c-.5.2-1,.2-1.5.2l.5.2-.4.2h.6c0,0-.6.1-.6.1,0,.3.3,0,.3.2l-.7.2.5.2c0,.2-.8.3-.4.5Z"/>
          <path class="st44" d="M81.2,71.7c.2.2,1,1.1,1.1,1.3s0,.2,0,.2c-.5,0-1.1-.4-1.6-.1,0,0,0,0-.1,0-.3,0-.7-.2-1-.2,0-.2.9-.1.9-.2l-.9-.4h.9s-.7-.2-.7-.2l.6-.3h-.8c.4-.4.9-.4,1.4-.4.3.1.1,0,.4.3Z"/>
          <path class="st3" d="M80.6,66.7c.2.2.4.4.5.7-.3.2-.5.1-.7.2v-.2s-.6-.2-.6-.2c.3,0,.3,0,.4-.2-.2,0-.3-.4-.5-.4s-.2.2-.3.1c-.4-.1-1.1-1-1.5-.5-.5-.2-1.1-.4-1.5-.6,0-.1,1,.3,1.2.2-1.2-.5-2.1-1.5-2.9-2.4,0,.3,1.2,1.8,1.1,1.9l-.8-.8c.1.5.5.9.9,1.4l-.9-.6,1,1.2-1-.6,1,1.2c-.3-.2-.7-.6-1-.7s-.3-.2-.3,0l1.4,1.4-1.2-.5.9,1-1.5-.9,1.6,1.5-1.6-.9,1.6,1.4c0,.2-1.2-.6-1.3-.6l1.7,1.7c0,.2-.3,0-.3,0-.3-.1-.5-.4-.7-.6-.1,0,0,.1,0,.2.2.3.9.7,1.1,1l-1.4-1c-.2,0,.1.3.2.4-.4.1,0,.3.1.5-.6,0-.4.2-.7.5-.2-.4,0-.2,0-.3-.2-.4-.5-.9-.7-1.4-.3-1.1-.5-2.5-.4-3.4s-.1-.5,0-.7c.6.9.2,0,.2-.5.2,0,0,.3.2,0,0-.6-.4-2.9.8-2.5s5.1,3.8,6,4.7Z"/>
          <path class="st26" d="M84.5,70.5c0,.2-.2.5-.4.6-.1-.4-.2-.8-.3-1.2l-.2.4-.2-.6-.2.4c0-.4-.1-.6-.4-.9v.2c0,0-.5-.5-.5-.5,0-.3-.7-.9-.9-1.1s-.1-.2-.2-.4c-.2-.2-.4-.5-.5-.7l.5-.5c1.4,1.3,2.7,2.5,3.4,4.3Z"/>
          <path class="st0" d="M81.3,67.8c.2.5.3,1,.4,1.6s.1.8.2,1.2c0,.1.7,1.2.3,1.1s-.4-.7-.5-.5c-.1-.2-.3-.4-.4-.5-.1.2.2.4.2.5s-.2,0-.1.1c0,.2.4.5.6.6.2.4.6.6.5,1.1,0,0,0,0,0,0-.3-.5-.8-1.2-1.3-1.3-.2-.2,0-.2-.4-.3-.5-.2-1.1-.2-1.6.1.2-.5,1-.7,1.5-.7-1-.3-1.9.2-2.8.6l.4-.5h-.5s1.8-.7,1.8-.7l-.9-.2h1.1c0,0-1.3,0-1.3,0,.4-.2.8-.3,1.2-.3,0,0,0-.1,0-.1.1,0,.1-.2.2-.2,0,0,.7.5.7.2-.6-.4-1.2-.5-2-.7.8,0,1.5.1,2.3.3-.4-.3-.9-.8-1.5-.8,0,0-.1,0-.2,0,.4-.2.9,0,1.4,0h0c0-.1-.6-.5-.6-.5.3,0,1,0,1.3,0Z"/>
          <path class="st30" d="M82.7,69.3l.4,1.5c.3.2,0-.7,0-.8l.2-.4.2.6.2-.4c0,.4.2.8.3,1.2s0,0,0,.1c-.3.4-.6.8-.9,1.1s-.5.5-.7.7c0-.5-.3-.8-.5-1.1s-.3-.6-.3-.7c0-.3.4.5.5.5.4,0-.3-1-.3-1.1,0-.4-.1-.8-.2-1.2.1-.2,0-.1.2,0,.1.3.3.6.4.9-.3.1.4.6.4.8.2,0-.1-.4-.2-.5.2,0,0-.9,0-1.1s-.2,0-.2,0,.1-.5.1-.6l.4.5Z"/>
          <path class="st30" d="M82.5,73c-.1,0,0,.2-.3.2,0,0,.1-.2,0-.2,0-.2-.9-1.1-1.1-1.3.5.2,1,.9,1.3,1.3Z"/>
          <path class="st32" d="M78.6,68.9c.7.2,1.3.3,2,.7,0,.3-.7-.2-.7-.2s0,.1-.2.2c-.6-.2-1.3-.2-2,.1.8-.6-.3-.2-.7-.1.4-.4,1.1-.5,1.6-.6Z"/>
          <path class="st3" d="M78.6,68.9c-.2,0-.4-.1-.6-.2.7,0,1.3-.2,2,0-.1-.1-.3-.2-.5-.2.6,0,1.1.4,1.5.8-.8-.2-1.5-.4-2.3-.3Z"/>
          <path class="st32" d="M81.2,67.4c0,.1.2.3.2.4,0,0-.1.1-.1.1-.3.1-.9,0-1.3,0v-.2c.2.1.3,0,.4-.1.3-.1.5,0,.7-.2Z"/>
          <path class="st24" d="M82.3,68.9c0,0-.1.6-.1.6,0,0,.2,0,.2,0s.2,1,0,1.1c0-.1-.1-.2-.2-.3-.2-.3-.3-.6-.4-.9s0-.2-.2,0c-.1-.5-.2-1.1-.4-1.6,0,0,0-.1.1-.1.2.3.9.9.9,1.1Z"/>
          <path class="st44" d="M83.2,70.1c0,.1.2,1,0,.8l-.4-1.5v-.2c.3.3.4.5.5.9Z"/>
          <path class="st44" d="M81.7,71.2s.2.5.3.7c-.2,0-.5-.4-.6-.6s.1,0,.1-.1c0,0-.3-.3-.2-.5,0,.2.3.4.4.5Z"/>
          <path class="st47" d="M82.2,70.3c0,.1.1.2.2.3s.4.5.2.5c0-.2-.7-.7-.4-.8Z"/>
          <g>
            <path class="st37" d="M80.4,67.6c0,0-.3.2-.4.1v.2s.6.4.6.4h0c-.4.1-.9-.1-1.4.1-.5-.1-1-.2-1.6-.2.7-.3,1.5,0,2.3,0-.8-.5-1.8-.5-2.7-.5.6-.3,1.2-.2,1.9-.3.2-.3-1.8-.4-1.9-.4.6-.2,1.3-.2,1.9-.2l-1.8-.5h1.3c0-.1-.4-.3-.5-.4.3-.4,1,.4,1.5.5s.3-.1.3-.1c.1,0,.2.4.5.4,0,.3-.1.2-.4.2l.6.2v.2Z"/>
            <path class="st53" d="M79.3,67.5c0,0,.7,0,.6.2-.2,0-.5,0-.6-.2Z"/>
          </g>
        </g>
      </g>
      <g>
        <path class="st9" d="M84.8,72.5s0,.1,0,.1c.3.1,1.1.2,1.3.4s.3.5.4.5.2-.2.2-.2c.1,0,.7.9.8,1.1.3.4.5,1.4.6,1.8s0,.5,0,.7c0,.4.1.8.1,1.4s.3.1-.1.4c0,0-.2-.3-.2-.4,0-1.6-.3-3.3-1.2-4.6.2,1.3,1.1,2.6.9,4,0,0-.3-.4-.3-.4-.3,0,.3.8.3.9.4.9.8,1.9.7,2.9-.2,0-.1.1-.2,0s0-.8-.1-1c-.4-1.5-1.7-3.6-3.1-4.6s-3-1.5-3.6-1.3c.1-.1-.1-.2-.2-.2-.5,0-1,.2-1.4.4h0c.2-.2.8-1,.9-1.1.5-.2,1.1.1,1.6.1s.2,0,.3-.2,0,0,0,0c.2-.2.5-.5.7-.7,0,.1.5,0,.6,0,.1,0,.2-.1.5-.1s.4.2.5.2Z"/>
        <path class="st33" d="M88.1,78.6c.4-.3.1-.4.1-.4,0-.5,0-1-.1-1.4s0-.6,0-.7c0-.4-.3-1.4-.6-1.8s-.7-1-.8-1.1-.2.2-.2.2-.2-.5-.4-.5c-.2-.1-1-.3-1.3-.4s0-.1,0-.1l.4-.3c-.3-.4-.8-.6-1-1s0,0,0-.1c.2-.1.3-.4.4-.6.4-.6.5-.7.7-1.4s.2-.5.2-.9c.4,0,.3.5.4.5.2.3,1.2,2.2,1.3,2.3.2.2.1,0,.3,0,.4,0,1.8,3.5,1.4,4.1-.1-.2-1.5-1.7-1.6-1.7-.3.1.3.6.4.8.5.8,1,1.9,1.1,2.8s.2,1.1,0,1c0-.3,0-.8-.3-.9l.2,2.8c0,.1-.2-.2-.2-.2,0-.2-.2-.8-.3-1Z"/>
        <path class="st9" d="M93.2,68.5c0,.3.2.4.2.4,0,.4.1.7.3,1.1s.4.4.4.5c0,.1.2.5.4.6,0,0,0,.2,0,.2-.2.1-.4.3-.6.5s0-.1,0,0c-.3.2-.7.6-1,.8s-.2-.2-.5.3c0,0-.1,0-.2,0s-.3.2-.4.2c-.2-.3-.4.3-.4-.4.5-.5.9-.8,1.6-1.1,0-.1-.1,0-.2,0-.6.1-1.8,1.7-2,1.6-.2-.2.4-.9.6-1.1.4-.5,1-.8,1.5-1.2l.5-.6-2.3,2.1c-.3,0,.3-1,.2-1.1.3-.5,0-.2,0-.6s.8-.9.9-1.1c.3-.5.4-1.5.9-1Z"/>
        <path class="st33" d="M87,83.6l-.7,2.1c.4.3.8-.6.9-.9s0,0,0,0c.1.2,0,.4,0,.6-.3,1-1,1.9-1,3-.3,0-.5.4-.8.5v-1.1c-.1.3,0,.7-.2,1.1s-.3.6-.1.7c-.1,0-.3.5-.3.5s-.5-.4-.6-.5c.2-.5,0-1.1.2-1.6s.1-.4.2-.7l.2.4s.2-.5.2-.6c.2-.3.4-.7.6-1s.4-.7.6-1.1.5-1.1.6-1.4.1,0,.2,0Z"/>
        <path class="st9" d="M90.8,77.9c-.4.7-.7,1.4-1,2.1l.2-3.2c.4-1.2.9-2.6,1.7-3.6s0-.1,0-.1c0,0,.3-.2.4-.2l-.7,1.4c-.4.9-.7,1.9-.8,2.9s0,.6.1.8Z"/>
        <path class="st9" d="M92.2,85.7c.1.4.3.8.5,1.2s.1.9.2,1.1.1,0,.1,0v.8c-.2,0-.4-.5-.7-.5,0-.7-.7-2.7-1.1-3.4s-.2,0-.2,0c0-.2-.4-1.3-.4-1.4s.3-.2.3-.4c0,.6.7,2.3,1.2,2.6s0,0,.2,0Z"/>
        <path class="st49" d="M91.2,82.5c0,.5.7,2.5,1,3.1-.1,0,0,.1-.2,0-.5-.3-1.1-2-1.2-2.6s-.1-1.7,0-2.3.1-.3.1-.5c0-.1.3,0,.3,0,0,.2-.3,1.5-.2,1.9s0,.3.2.3Z"/>
        <path class="st33" d="M91.5,72.8c-.5.5-.9,1-1.4,1.5,0-.8.4-2.1.9-2.8s.3-.2.4-.3c0,.1-.5,1.1-.2,1.1l2.3-2.1-.5.6c-.5.4-1.1.7-1.5,1.2s-.8,1-.6,1.1,1.3-1.5,2-1.6.1,0,.2,0c-.7.3-1,.6-1.6,1.1Z"/>
        <path class="st33" d="M92.4,72.8c-.4.7-1.4,3.5-1.4,4.4s0,.2.2.3c-.1,0-.3.3-.4.4-.2-.1-.1-.6-.1-.8,0-1,.4-2,.8-2.9l.7-1.4c0,0,.1,0,.2,0Z"/>
        <path class="st33" d="M87.9,78.2c-.1-.2-.2-.4-.4-.6.2-1.4-.6-2.7-.9-4,.9,1.2,1.2,3,1.2,4.6Z"/>
        <g>
          <path class="st8" d="M94.1,65.9c-.7.8-1.1,1.5-1,2.6-.5-.5-.6.5-.9,1s-.9,1.1-.9,1.1c0,.3.3.1,0,.6s-.3.3-.4.3c-.5.7-.9,2-.9,2.8.5-.5.9-1,1.4-1.5,0,.7.1.1.4.4,0,0,0,.1,0,.1-1.6,1.4-1.9,3.3-2.2,5.1.2.3.4-1.4.5-1.5l-.2,3.2c.3-.7.6-1.5,1-2.1s.2-.3.4-.4c.1,0,0,.2,0,.2.1,0,.9-1.3,1.2-1.3-.6.7-1.3,1.9-1.6,2.7s-.7,2.4-.3,3.5v-1.9c0,0,.2.2.2.2-.1.6,0,1.6,0,2.3,0,.2-.3.4-.3.4,0,.1.3,1.2.4,1.4s.2,0,.2,0c.4.7,1.1,2.6,1.1,3.4s-.5,1.3-1.2,1.7c-.8-.6-2.6-.6-3.5,0-.7-.4-1.3-.9-1.3-1.8s.6-2,1-3c.3-.2.8-1.3.8-1.6.3-1,.3-1.9.1-2.7.1-1-.3-2-.7-2.9s-.7-.9-.3-.9.3.4.3.4c.1.2.2.4.4.6s.2.3.2.4c0,.2.2.8.3,1s.2.3.2.2l-.2-2.8c.2.1.2.7.3.9.2,0,0-.9,0-1-.2-.9-.7-2.1-1.1-2.8s-.7-.6-.4-.8,1.4,1.5,1.6,1.7c.4-.6-1-4.2-1.4-4.1s0,.3-.3,0-1.1-2-1.3-2.3,0-.5-.4-.5c0-1-.4-1.5-.9-2.3.3,0,.6.1.9.2l-.8-.4c.7,0,1.5.3,2.2.4s1.4,0,2.1.1.3.2.3.2.3-.2.3-.2c1.3-.1,2.6-.1,3.9-.5l-.4.3c.3,0,.7,0,1-.2Z"/>
          <g>
            <path class="st33" d="M90,76.8c0,.1-.3,1.8-.5,1.5.3-1.7.6-3.7,2.2-5.1-.9,1-1.4,2.4-1.7,3.6Z"/>
            <path class="st9" d="M88.5,85.1c-.1.3-.1.7-.3,1s-.6.8-.9.9c.1-.1.7-1,.7-1.1,0-.1-.2,0-.2-.2s.3-.7.4-.8.2,0,.2-.1,0-.5.2-.7h.1c0,.2-.5.9-.2,1.1Z"/>
            <path class="st49" d="M88.2,86c.2-.3.2-.7.3-1s.2-.5.4-.3c0,.1-.5,1.9-.7,1.3Z"/>
            <polygon class="st33" points="92.2 69 91.5 69.8 90.6 70.3 92.2 69"/>
            <path class="st33" d="M92.5,68.1c.2.1-.6.6-.7.6l.7-.6Z"/>
          </g>
        </g>
        <path class="st35" d="M85.2,78.5c-.4,0,.2.3,0,.5-.8-.8-1.9-1-2.9-.6s-1.8,1.2-1.8,1.4.1,0,.1,0,0,0,0,.1,0,0,0,0l-2,.9c.1,0,.2-.3.3-.4.9-.8,1.8-1.8,3-2.4l-.4-.3c1.2-.3,2.6-.1,3.7.6Z"/>
        <path class="st22" d="M86.1,82c0,.1.2.5,0,.4-.2-1.2-1.3-.8-2-.8s-.8,0-1.2-.1c-.8-.3-1.4-1.6-2.3-1.3,0,0,0-.1,0-.2s0,0,0,0c1.6-.7,1.6,1.2,3,1.4s2-.5,2.5.7Z"/>
        <path class="st34" d="M93.8,78.3c-.9,1-1.5,2.2-1.4,3.6.3-2.8,2.1-4.9,4.9-2.9s.9.8.8.9c-2.6-2.3-5.3-1.6-5.6,2,0,.1-.2.5,0,.4,0,0,0,.6,0,.7,0,1,.4,2,.6,3-.2-.3-.4-.6-.5-.8-.3-1.5-.9-2.8-.8-4.4s.5-2.8,1-3.7.6-.8.9-1.1c0,0,0,.3,0,.3s.1,0,.1,0c0,0-.7,1.1-.8,1.4s-.3.9-.3,1.3c.4-.3.7-.7,1.2-.9Z"/>
        <path class="st35" d="M97,77.9c.1.3-.4.2-.4.3s1,.6,1.3.8,2,1.8,2,1.9,0,.1-.2,0c-.5-.3-1.2-.8-1.7-.9,0,0,0,0,0,0,0,0-.7-.8-.8-.9-2.8-2.1-4.6,0-4.9,2.9,0-1.4.5-2.6,1.4-3.6,1.1-.6,2.1-.6,3.2-.4Z"/>
        <path class="st12" d="M94.6,81.6c0,.2-.2.1-.3.1-.5,0-.8,0-1.3.2s-.4.7-.6,1.1c0,0,0-.7,0-.7.2-1.1,1.3-.7,2.1-.7Z"/>
        <path class="st34" d="M85,87c0,0-.2.6-.2.6l-.2-.4c0,0,0-.2.1-.3h-.1l-.4.7c-.1-1.5-.8-2.9-2-3.8-.4-.4-.9-.7-1.4-.9s-.9-.3-1.3-.3c.1-.2-.2-.1-.3-.4s0-.5.2-.5c0,.3,0,.8.5.7-.2,0-.4-.9-.2-.9s0,.2.1.2.1-.2.2-.2.5,1.1,1.3,1,0-.2.1-.2.5.2.5.2c.8,0,1.5,0,2.2-.4-.8.8-2.1.6-3.2.4,0,.2,0,.1,0,.2,1.3.7,2.7.4,3.8-.5l-1,1c.4,0,.8-.3,1-.6.3.5-1.2.8-1.2,1,0,.4,1.1-.5,1.1-.2l-1.2.8c.7.2,1.1-.7,1.6-1.1-.1.8-.8,1.1-1.4,1.4.6.2,1.1-.4,1.5-.9h.2c.2,1.1-.2,1.9-.5,2.8s0,.2,0,.3Z"/>
        <path class="st55" d="M85.5,88.8c0,0,0,0-.2,0,0-.4,0-.7.3-1.1v1.1Z"/>
        <path class="st34" d="M86.2,84.9c-.2.4-.4.7-.6,1.1-.2,0,0-.1,0-.2.3-.9.5-1.7.5-2.6s0-.6,0-.8c.2,0,0-.3,0-.4,0-.5-.2-1.1-.4-1.6.3-.3-.3-1.2-.5-1.4.2-.2-.4-.4,0-.5.3.2.6.5.8.8,0-.4-.1-.8-.2-1.2s-.8-1.3-.8-1.4c-.1-1.1,1.1,1,1.2,1.1,1.1,2.4.7,4.5,0,6.9s0,.3,0,.2Z"/>
        <path class="st9" d="M87.2,84.8c-.1.3-.5,1.2-.9.9l.7-2.1c.7-.7-.3,1,.2,1.2Z"/>
        <g>
          <path class="st49" d="M80.6,73.1c-.1,0-.7.9-.9,1-.9.6-2.3,1-3.4,1.9s-1.9,1.9-1.9,3.2c.4-.5.6-1.5.9-1.9.8-1.1,3.2-2.6,4.4-3.1s1-.4,1.4-.4.3,0,.2.2c-.2,0-.4.4-.5.5-1.5,1.2-3,1.8-4.3,3.3s-2.8,4.7-2.9,5.6-.1.1,0,.2c-.3.2-.8.5-.9.8.5-.2,1.1-.5,1.5-.9,0,.2.1.1.2,0,1.1-.5,2.3-1.9,3.2-2.8s1.2-.8,1.4-1.1,0-.7.1-.8c.2-.2,1.3-.2.8-.5.4-.1.8-.3,1.2-.4s.2-.1.4-.2l.4.3c-1.2.5-2.1,1.5-3,2.4-.4-.3.3-.4.2-.7-.3.4-1.8,1.2-2,1.5-.3.6.9-.7.9-.2s-1.5,1.2-1.6,1.5c.7-.6,1.4-1.2,2.1-1.8l2-.9c0,0,0,.1,0,.2-1.1.4-2.6,2.5-3.7,3.1-1.9.6-3.9,1.6-5.8,2.1s-.3,0-.4,0c.3-.2,2-2.7,1.8-2.9,0,.2-1.1.5-1.1.3.9-.4,1.4-1.2,1.8-2-.5.2-1,.5-1.6.4.6-.3,1.9-1.4,2.2-1.9s0-.2,0-.2c0,.2-1.4.8-1.4.6,1.3-.8,1.8-2.4,2.6-3.6s.5-.6.7-.8.2-.2.2-.2c.1-.2,1.3-1.3,1.4-1.4.2,0,.6,0,.8,0,.9-.3,1.5-.6,2.5-.7,0,0,0,0,.1,0Z"/>
          <path class="st9" d="M79,79.7c-.2.3-1.1.8-1.4,1.1-.9.8-2.1,2.3-3.2,2.8s-.2.1-.2,0c.2-.2.9-.7.8-1,.2-.1.4-.1.5-.4s-.2,0-.1-.1c.2-.3,1.6-1.8,1.8-1.8s0,.2,0,.2c-.6.5-1,1.3-1.6,1.8,0,.1,0,.1.2,0s1.4-1.4,1.7-1.6.3-.4.4-.5,1-.7,1.1-.7v.2Z"/>
          <path class="st33" d="M79.7,74.1h0c-1.3.6-3.7,2.1-4.4,3.2s-.5,1.4-.9,1.9c0-1.3.9-2.4,1.9-3.2s2.5-1.2,3.4-1.9Z"/>
          <path class="st9" d="M78.9,80.6c-.1,0-.2.3-.3.4-.7.6-1.4,1.2-2.1,1.8,0-.3,1.6-1.4,1.6-1.5,0-.4-1.2.9-.9.2s1.6-1.2,2-1.5c.1.3-.6.4-.2.7Z"/>
          <path class="st34" d="M74.1,83.5c-.5.4-1,.7-1.5.9.2-.3.6-.6.9-.8.5-.4,1-.8,1.4-1.1,0,.3-.6.8-.8,1Z"/>
          <path class="st9" d="M81.2,78.1c-.4.1-.8.3-1.2.4s-.5.1-.7,0c.5-.2.9-.2,1.4-.4s.3-.1.3-.2c-.5,0-1.2,0-1.7.2.3-.5,1.3-.3,2-.3v.2Z"/>
          <path class="st49" d="M79.3,78.5c-.2,0-.6.1-.9.2s-.5.5-.6.2c.2-.1.3-.2.6-.4s.7-.4.8-.4c.5-.2,1.2-.3,1.7-.2,0,0-.3.2-.3.2-.5.1-.9.2-1.4.4Z"/>
          <path class="st49" d="M77.9,80.2c-.1,0-.3.4-.4.5-.2.2-1.5,1.6-1.7,1.6s-.2,0-.2,0c.6-.5,1.1-1.3,1.6-1.8s.4-.4.5-.2Z"/>
        </g>
        <g>
          <path class="st49" d="M88.2,81c.2.8.2,1.7-.1,2.7,0-.3-.2-.5-.2-.6,0-.6.2-1.4,0-2,0,1.3,0,2.5-.5,3.7s0,0,0,0c-.4-.2.5-1.9-.2-1.2-.1,0-.1-.1-.2,0-.1.2-.4,1-.6,1.4-.2,0,0-.2,0-.2.7-2.4,1.1-4.5,0-6.9s-1.3-2.2-1.2-1.1.7,1.1.8,1.4.3.8.2,1.2c-.3-.3-.5-.5-.8-.8-1-.7-2.4-.9-3.7-.6s-.2.1-.4.2v-.2c-.6,0-1.7-.2-2,.3,0,0-.7.4-.8.4,0-.1-.1,0-.2,0s-1.3.9-1.3.9c.3,0,.6-.3.9-.5.2.3.5-.1.6-.2.3-.1.6-.2.9-.2.1,0,.5,0,.7,0,.5.3-.6.3-.8.5s0,.5-.1.8v-.2c-.2,0-1,.6-1.1.7-.2-.1-.4.1-.5.2,0,0,0-.2,0-.2-.2,0-1.6,1.5-1.8,1.8s.1.1.1.1c-.1.2-.4.3-.5.4-.5.4-1,.8-1.4,1.1,0-.1,0-.2,0-.2,1.2-1.6,1.6-3.6,2.8-5.2s1.4-1.5,2-1.9,2.2-.9,2.4-1.9c.1-.1.3-.4.5-.5.6-.1,3,1,3.6,1.3,1.4,1,2.7,3.1,3.1,4.6s0,.8.1,1,0,.1.2,0Z"/>
          <g>
            <path class="st9" d="M88.1,83.7c0,.3-.6,1.4-.8,1.6,0-.2.1-.4,0-.6.5-1.2.6-2.4.5-3.7.2.7,0,1.4,0,2s.3.3.2.6Z"/>
            <g>
              <path class="st33" d="M73.6,83.4c0-.9,2.2-4.8,2.9-5.6,1.3-1.5,2.9-2.1,4.3-3.3-.3,1-1.6,1.3-2.4,1.9s-1.5,1.3-2,1.9c-1.3,1.6-1.6,3.6-2.8,5.2Z"/>
              <path class="st9" d="M78.4,78.6c-.3.1-.4.2-.6.4s-.6.5-.9.5c0,0,1.2-.9,1.3-.9s.2,0,.2,0Z"/>
            </g>
            <path class="st9" d="M81.2,74.4c.2.4.7.7,1.1.9-.5,0-1.1-.3-1.1-.9Z"/>
            <path class="st9" d="M79.8,76.1c.3,0,.6.2.9.4-.2,0-.7-.2-.9-.4Z"/>
            <path class="st9" d="M79.9,76.3s.4.4.5.4c-.1,0-.7-.3-.7-.3,0,0,.2,0,.2,0Z"/>
          </g>
        </g>
        <path class="st33" d="M92.5,85.2c.2.3.4.6.5.8.3.4.3.9.8,1.1,0,.3.3.6.3.9v1.5c0,0,0,.1-.2.2-.4,0-.3,0-.5-.4s-.2-.4-.2-.6-.2-.6-.2-.8-.1,0-.1,0c0-.2,0-.8-.2-1.1-.1-.4-.4-.8-.5-1.2-.2-.7-1-2.6-1-3.1s0-.4.2-.3c.1,1.1.6,2.1,1.1,3Z"/>
        <g>
          <path class="st49" d="M102.8,75.2c0,0,.1.2.2.2.2.2.4.5.6.7.8,1.2,1.3,2.8,2.6,3.6-.5.2-1-.4-1.5-.5.7.8,1.3,1.6,2.3,2-.6,0-1.1-.2-1.6-.4.5.8,1,1.6,1.9,2,0,.2-1-.1-1.1-.3-.1,0-.1,0,0,.2,0,.3,1.2,2,1.5,2.4-.2,0-.7,0-.8-.1s0-.3-.3-.4-.3-.1-.5-.2c-.4-.3-.8-.5-1.1-.8.2-.1,0,0,0-.2,0-.2-1.2-2.9-1.4-3.3,0-.2.7-.3.7-.3,0-.1-.2-.6-.2-.8.2-.1.2,0,.1-.2-.5-2.7-3.2-3.4-5-4.6s-1.1-.8-.9-1.1c.9,0,1.5.3,2.3.6s.5,0,.8,0,1.3,1.3,1.5,1.4Z"/>
          <path class="st49" d="M100.7,80.7c-.3-.3-.9-.4-1.2-.8l.6.7c0,.1.3.5.5.6s.1-.1.1-.1c.1.1.8.8.9.6,0-.1-.1-.3-.2-.4,0-.2,0-.2.1,0s.8.9,1,.9.2-.1.4,0c.3,0,.4.7,1.1.8.4.5,1.1,1,1.7,1.3s.5.3.6.2c.2.1.3.2.5.2.2.2,0,.3.3.4s.6.2.8.1c0,0,.2.2.3.3,0,0-.3,0-.4,0-1.9-.5-3.9-1.5-5.8-2.1-.9-.5-3-3-3.8-3.1s-1,.6-1.5.9-1,.6-1.8.6-1.9-.4-2.1.7c-.2,0,0-.3,0-.4.5-1.1,1.7-.5,2.6-.6,1.4-.2,1-1.8,3-1.4s1.2.6,1.7.9c0,0,.2,0,.2,0s-1.8-1.7-2-1.9-1.3-.7-1.3-.8.5,0,.4-.3c.1,0,.5,0,.5,0,0,0,0,.2,0,.2,0,0,1.5.5,1.6.5v-.2c0,0-1-.2-1-.2l-.2-.2c1.1,0,2.7.4,3.3,1.4-.2,0-1.2-.4-1.3-.4s0,.2-.2.2c-.2,0-.3-.1-.5,0,0,.2,1.4.4.7.7,0,.1,1,.6.8.9Z"/>
          <path class="st49" d="M99,74.3c2.3,1,4.3,2.3,5,4.7s.3.6.2.8-.7.1-.7.3c-.9-1.7-2.1-3.2-3.7-4.3s-1.2-.5-1.7-.9-.7-.7-.9-1c.8-.1,1.1.1,1.8.4Z"/>
          <path class="st33" d="M97.2,73.8c.3.3.6.8.9,1,.5.4,1.2.6,1.7.9,1.6,1.1,2.8,2.6,3.7,4.3s1.5,3.1,1.4,3.3c-1.4-1.7-1.6-3.6-2.9-5.3s-2.5-1.8-3.9-2.9-.3-.5-.5-.7-.5-.4-.7-.6c0,0,0,0,.2,0Z"/>
          <path class="st33" d="M99.2,74.2c1.8,1.2,4.5,1.9,5,4.6s0,0-.1.2c-.7-2.4-2.7-3.8-5-4.7h.1Z"/>
          <path class="st34" d="M104.9,83.6c.4.3.8.5,1.1.8,0,0-.6-.1-.6-.2-.6-.3-1.2-.8-1.7-1.3,0,0,0-.1,0-.1.1,0,.9.7,1.1.8Z"/>
          <path class="st9" d="M100.7,80.7c.1.1.5.4.6.5s.2.3.2.4c0,.2-.7-.5-.9-.6s-.1.1-.1.1c-.1,0-.5-.5-.5-.6l-.6-.7c.3.4.8.6,1.2.8Z"/>
          <g>
            <path class="st49" d="M105,83.4c0,0,.1,0,0,.2-.2-.1-1-.8-1.1-.8s0,.1,0,.1c-.7,0-.7-.7-1.1-.8s-.1.2-.4,0-.8-.8-1-.9-.1,0-.1,0c0-.1-.5-.4-.6-.5.2-.3-.8-.7-.8-.9.7-.2-.7-.5-.7-.7.1-.2.3,0,.5,0s.2-.2.2-.2c0,0,1.1.4,1.3.4-.6-1-2.2-1.4-3.3-1.4l.2.2,1.1.2v.2c-.1,0-1.6-.4-1.7-.5s.2-.2,0-.2-.4,0-.5,0c-1.2-.2-2.2-.1-3.2.4s-.8.6-1.2.9c0-.4.2-.9.3-1.3s.8-1.3.8-1.4-.1,0-.1,0c0,0,0-.3,0-.3s0-.1-.2-.1l-1.1,1.2c0,.2.2.1.4,0-.5.9-1,2.7-1,3.7,0,1.5.6,2.9.8,4.4-.5-.9-1-1.9-1.1-3-.1-.1-.2.3-.2.3-.2,0-.2-.2-.2-.3,0-.4.3-1.7.2-1.9s-.3-.1-.3,0c0,.2,0,.3-.1.5l-.2-.2v1.9c-.4-1.1-.1-2.4.2-3.5s.9-2,1.6-2.7c.9-1,3.2-2.2,4.6-2.5.2.1.5.4.7.6s0,.3.5.7c1.4,1.1,2.5,1.3,3.9,2.9s1.5,3.6,2.9,5.3Z"/>
            <g>
              <path class="st9" d="M96.1,74.4c-.2.4-1.9,1.7-2,2.1s0,0,0,.2l1.3-.8c0,.1.9-.3.9,0-.9.2-1.7.6-2.4,1.2v-.5c0,0,0,0,0,0l-.2.2c.3-1,1.5-1.5,2.3-2.2Z"/>
              <path class="st49" d="M93.6,76.1c-.3.3-.7.7-.9,1.1-.1,0-.3.2-.4,0l1.1-1.2c0,0,.1,0,.2.1Z"/>
              <path class="st9" d="M96.4,74.4c.2,0-.9,1.1-1.1,1.2l1.1-1.2Z"/>
              <g>
                <path class="st33" d="M97.4,74.4c.3.1-.9,1.1-1.2.9.5-.1.9-.5,1.2-.9Z"/>
                <path class="st9" d="M99,76.1c0,0,.2,0,.1.1l-.8.4c.2,0,.6-.5.7-.5Z"/>
              </g>
            </g>
          </g>
        </g>
        <path class="st9" d="M84.8,72.5s-.2-.2-.5-.2-.4.1-.5.1-.6,0-.6,0c.3-.4.6-.8.9-1.1.2.4.7.6,1,1l-.4.3Z"/>
        <g>
          <path class="st9" d="M96.2,73.2c.7-.2,1.4,0,2-.2h0c-.2.4.6,1,.9,1.2h-.1c-.7-.2-1-.5-1.8-.4s-.2,0-.2,0c-1.4.3-3.7,1.4-4.6,2.5-.3,0-1.1,1.3-1.2,1.3s0-.1,0-.2c-.2-.1-.3.2-.2-.3,0-.9,1.1-3.7,1.4-4.4s.4-.3.5-.3c.3-.2.6-.6,1-.8s0,.1,0,0c.2-.1.4-.3.6-.5,0,.2,1.5,1.8,1.7,1.9Z"/>
          <path class="st33" d="M93.3,72.9l-.7,2.2,1.7-1.4.9-.2c-.5.3-1.9,1-2.2,1.4s.2,0,.1.2-1.3,1-1.4.9v-.5s1.6-2.7,1.6-2.7Z"/>
          <path class="st33" d="M94.7,72.8c.2,0-.5.7-.6.7l.6-.7Z"/>
        </g>
        <path class="st28" d="M93.2,88.8c0,0-.1,0-.2,0v-.8c0,.3,0,.6.2.8Z"/>
        <g>
          <path class="st35" d="M84,81.6c.2.3.6,0,.9,0,.7,0,1,.9,1.1,1.5,0,.9-.3,1.7-.5,2.6s0,.3,0,.2c-.2.3-.4.7-.6,1-.1,0,0-.2,0-.3.3-.9.7-1.7.5-2.8h-.2c-.3.4-.8,1-1.5.8.6-.3,1.3-.6,1.4-1.4-.5.4-.9,1.2-1.6,1.1l1.2-.8c0-.3-1.1.6-1.1.2s1.5-.5,1.2-1c-.2.3-.6.7-1,.6l1-1c-1.1.9-2.5,1.2-3.8.5s-.1,0,0-.2c1.1.3,2.4.5,3.2-.4-.7.4-1.4.4-2.2.4s-.5-.2-.5-.2c-.2,0,0,.2-.1.2-.9,0-1.2-1-1.3-1s-.2.2-.2.2c0,0,0-.2-.1-.2-.2,0,0,.9.2.9-.4.1-.5-.3-.5-.7-.1,0-.2.4-.2.5,0,.3.4.1.3.4-.9,0-1.8.2-2.6.5,1.1-.6,2.6-2.7,3.7-3.1s1.5,1,2.3,1.3.8.1,1.2.1Z"/>
          <path class="st34" d="M80.4,81.1c.6,1.2,1.5,1.3,2.7,1l-.4.3h1.4s-.6.2-.6.2c-.1,0-1.9-.1-2-.2-.5-.1-1.1-.7-1-1.3Z"/>
          <path class="st57" d="M86.1,82.4c0,.2,0,.6,0,.8-.1-.6-.4-1.4-1.1-1.5s-.7.2-.9,0c.8,0,1.9-.4,2,.8Z"/>
          <path class="st34" d="M81,81.3c.1.2,1.2.5,1.1.7s-1.2-.4-1.1-.7Z"/>
        </g>
        <path class="st11" d="M85.2,79c.2.2.8,1.1.5,1.4-1.1-2.8-3.3-2.1-5.2-.6,0,0-.1,0-.1,0,0-.2,1.6-1.2,1.8-1.4,1.1-.4,2.1-.2,2.9.6Z"/>
        <path class="st34" d="M97,83.4c-.9.5-1.8,1.5-2.2,2.5l-.3.6c-.3-.1-.5-.4-.9-.3.4,0,0,.3,0,.3-.3-.2-.8-3-.1-3.2h0c.3.1,0-.5.1-.5,0,.2,1.1,1.1,1.1.6s-.9-.6-1-.8c.9.6,1.5.9,2.6.9s1-.4.8,0Z"/>
        <g>
          <path class="st35" d="M101.7,83.3c-.7-.2-1.6-.5-2.4-.5,0-.1.1-.7,0-.7l-.5.8c-.3,0-.6.1-1,.2s-.6.3-.8.4c.2-.4-.5,0-.8,0-1.2,0-1.7-.3-2.6-.9,0,.2.9.7,1,.8,0,.5-1-.3-1.1-.6,0,0,.2.6-.1.7h0c-.6.2-.2,2.9.1,3.1s.5-.2,0-.3c.4,0,.5.2.9.3l.3-.6c-.3.6-.4,1.1-.5,1.7,0-.2-.3-.4-.3-.6-.2-.2,0,.2,0,.2-.5-.2-.6-.7-.8-1.1-.2-1-.6-2-.6-3,.3-.4.2-.8.6-1.1s.7-.2,1.3-.2.3,0,.3-.1c.8,0,1.2-.1,1.8-.6s.8-1,1.5-.9,2.9,2.7,3.8,3.1Z"/>
          <g>
            <path class="st34" d="M99.3,82.8c-.2,0-.4,0-.6,0l.5-.8c.2,0,0,.6,0,.7Z"/>
            <path class="st34" d="M98.5,81.8c.3.2-.5,1-.7,1.1s-1.8.3-1.9.3-1.6-.4-1.5-.6c1,.3,2.1.5,3-.2l-.3.3c.6.1,1.2-.5,1.4-1Z"/>
            <path class="st34" d="M96.2,82.4s.3,0,.4-.1c.9-.3,1.2-.3,1.6-1.3.2,1.1-1,1.5-2,1.4Z"/>
            <path class="st34" d="M97.5,80.7c.2.5-1.1,1-1.3.8s1.2-.4,1.3-.8Z"/>
            <path class="st34" d="M96.6,82.2c0,0-.3.1-.4.1-.5.1-1.2.3-1.7-.1.4.1,2.1.3,1-.2.4,0,.7,0,1.1.2Z"/>
            <path class="st34" d="M97.6,81.2c.2.5-1.5,1-1.7.8s.8-.2.9-.2c.2,0,.6-.4.8-.6Z"/>
          </g>
        </g>
        <g>
          <path class="st54" d="M98.1,79.9s0,0,0,0c-1.9-.5-1.6,1.2-3,1.4s-2.1-.5-2.6.6c.3-3.6,2.9-4.3,5.6-2Z"/>
          <g>
            <g>
              <path class="st7" d="M93.9,79.4h.4c0,.1,0,.1,0,.2-1,.6,1.5,1.8,1.1,0s0-.3-.2-.4h-.2c-.1,0,0,.2,0,.2s-.1,0-.2,0c0-.2-.2-.4-.4-.2,0,0,0,0,0,0,1.6-.9,2.6,1,1.5,1.9s-1.7.4-2.1-.3-.1-.8.2-1.3Z"/>
              <path class="st27" d="M94.2,79.1s0,0,0,0c0,0-.2.3,0,.4h-.4c0-.2.2-.4.4-.4Z"/>
              <path class="st54" d="M95,79.3c.1.2.2.3.4.2.4,1.9-2.1.7-1.1,0s.3,0,.4-.2.2,0,.2,0Z"/>
            </g>
            <path class="st50" d="M94.7,79.4c-.2,0-.4.2-.4.2,0,0,0,0,0,0,0-.1,0-.3,0-.4.2-.1.5,0,.4.2Z"/>
            <path class="st41" d="M95.4,79.5c-.2,0-.3,0-.4-.2,0,0,0-.2,0-.2h.2c.2.1.1.3.2.4Z"/>
          </g>
        </g>
        <g>
          <path class="st54" d="M85.7,80.4c.2.5.3,1,.4,1.6-.5-1.2-1.6-.6-2.5-.7-1.4-.1-1.4-2-3-1.4,0,0,0,0,0-.1,1.9-1.5,4.1-2.2,5.2.6Z"/>
          <g>
            <path class="st7" d="M83.3,78.8c1.5-.2,2.4,2,1,2.4-2.1.6-2.5-2.2-1-2.4Z"/>
            <path class="st54" d="M83.9,79.4c.1,0,.3.3.5.1.4,1.8-1.9.9-1,0s.3-.2.3-.2c0,0,.2,0,.2,0Z"/>
            <path class="st50" d="M84.3,79.5c-.2.2-.4-.1-.5-.1,0-.3.4-.4.5-.2s0,.2,0,.3Z"/>
            <path class="st29" d="M83.6,79.4s-.3.2-.3.2c-.4-.4.4-.8.3-.2Z"/>
          </g>
        </g>
      </g>
    </g>
  </g>
</svg>