<?xml version="1.0" encoding="UTF-8"?>
<svg id="Layer_1" xmlns="http://www.w3.org/2000/svg" xmlns:xlink="http://www.w3.org/1999/xlink" version="1.1" viewBox="0 0 178.1 248.7">
  <!-- Generator: Adobe Illustrator 30.0.0, SVG Export Plug-In . SVG Version: 2.1.1 Build 123)  -->
  <defs>
    <style>
      .st0 {
        fill: #f1f1f3;
      }

      .st1 {
        fill: url(#linear-gradient2);
      }

      .st2 {
        fill: url(#linear-gradient1);
      }

      .st3 {
        fill: #4684c0;
      }

      .st4 {
        fill: url(#linear-gradient);
      }

      .st5 {
        fill: #10b8cb;
      }

      .st6 {
        fill: #fafbfc;
      }

      .st7 {
        fill: #14d1dc;
      }

      .st8 {
        fill: #fff;
      }

      .st9 {
        fill: #0fc9d8;
      }

      .st10 {
        fill: #3ea0d2;
      }

      .st11 {
        fill: #a4d8ec;
      }

      .st12 {
        fill: #4898ce;
      }

      .st13 {
        fill: #67c0e1;
      }

      .st14 {
        fill: #aceeed;
      }

      .st15 {
        fill: #4190c8;
      }

      .st16 {
        fill: #6eb2db;
      }
    </style>
    <linearGradient id="linear-gradient" x1="258.3" y1="441.5" x2="701.6" y2="1076" gradientTransform="translate(-20.6 -83.2) scale(.2)" gradientUnits="userSpaceOnUse">
      <stop offset="0" stop-color="#bff5f0"/>
      <stop offset=".3" stop-color="#8fcfe6"/>
      <stop offset=".7" stop-color="#58a2d3"/>
      <stop offset="1" stop-color="#507fbe"/>
    </linearGradient>
    <linearGradient id="linear-gradient1" x1="293.6" y1="527.7" x2="597.6" y2="817.5" gradientTransform="translate(-20.6 -83.2) scale(.2)" gradientUnits="userSpaceOnUse">
      <stop offset="0" stop-color="#fafbfc"/>
      <stop offset="1" stop-color="#d2d3db"/>
    </linearGradient>
    <linearGradient id="linear-gradient2" x1="402.2" y1="564.4" x2="488" y2="750.5" gradientTransform="translate(-20.6 -83.2) scale(.2)" gradientUnits="userSpaceOnUse">
      <stop offset="0" stop-color="#1b8bba"/>
      <stop offset="1" stop-color="#1a5ea5"/>
    </linearGradient>
  </defs>
  <g id="Generative_Object">
    <g id="Generative_Object1" data-name="Generative_Object">
      <path class="st3" d="M169,86.7c.2,3.6.4,8.1.2,11.7s-.8,2.9.2,3.5c-5,31.9-33.9,78-52.6,104.7-2.9,4.2-22.3,30.4-25.8,30.3-7.1-5.5-13.1-13.2-18.6-20.3-9-11.7-17.3-24.9-24.9-37.5l3.7-1.2c4.4,7.5,8.9,15.1,13.7,22.3,4,6,19.8,29.1,24.8,32.1s1.7.9,3,.2c5.1-2.5,26.1-35.7,30.3-42.5,14.7-23.5,34.6-55.7,41.9-82.2l2.6.5c.3-2.1,2.9-8.5-.9-7.5l2.2-14Z"/>
      <path class="st13" d="M33,34.5c-35.5,42.3-11.2,90.3,11.5,131.5-1.6,0-2.2,1.8-4,1C16.2,124-7.1,76.2,31.2,32.8l1.7,1.7Z"/>
      <path class="st8" d="M169.7,98.6l-.5-.2c.1-3.6,0-8.1-.2-11.7-1.1-17.1-6.4-34-17-47.7,4,.5,4.1.6,6.5,3.9,10.9,15.1,13.3,37.8,11.2,55.8Z"/>
      <path class="st14" d="M65.9,10.8c-3.6,2.5-8.2,4-12.1,6.2-7.4,4.2-15.4,11-20.8,17.5l-1.7-1.7c9-10.2,21-20,34.7-22Z"/>
      <path class="st12" d="M46.5,169.7c1.5,2.7,3.2,5.3,4.7,8l-3.7,1.2c-1.7-2.8-3.4-5.6-5-8.5l4-.7Z"/>
      <path class="st3" d="M44.5,166c.7,1.2,1.3,2.5,2,3.7l-4,.7c-.7-1.2-1.3-2.3-2-3.5,1.8.8,2.4-1,4-1Z"/>
      <path class="st16" d="M169.7,98.6c-.1,1,0,2-.2,3.2-1.1-.6-.3-2.5-.2-3.5l.5.2Z"/>
      <path class="st12" d="M165,107.6c.6-2.3,1.4-4.6,1.7-7,3.8-1,1.2,5.4.9,7.5l-2.6-.5Z"/>
      <g>
        <path class="st4" d="M151.8,38.8c0,.2,0,.2.2.2,10.6,13.6,15.9,30.5,17,47.7l-2.2,14c-.4,2.4-1.1,4.7-1.7,7-7.3,26.5-27.2,58.7-41.9,82.2-4.2,6.8-25.2,40-30.3,42.5s-1.7.5-3-.2c-5.1-3-20.8-26-24.8-32.1-4.8-7.2-9.3-14.8-13.7-22.3s-3.2-5.3-4.7-8-1.3-2.5-2-3.7C21.8,124.8-2.5,76.8,33,34.5c5.4-6.5,13.5-13.2,20.8-17.5s8.5-3.7,12.1-6.2c33.6-4.9,63.9,0,85.8,27.9Z"/>
        <path class="st8" d="M152,39c-.2,0-.3,0-.2-.2,0,0,.1,0,.2.2Z"/>
        <path class="st11" d="M28,86.4c1,35.5,33,62.4,68,60.1,30.9-2,57.6-29.4,58.3-60.4.8-.1.5.7.5,1.1,1.1,32.3-27.6,60.2-59.3,62-35,2-69-25.4-68-61.7,0-.5-.2-1.2.5-1.1Z"/>
        <path class="st10" d="M153.5,74.4l-3-10.4C131.8,14.6,65.8,6.4,37.5,52.6s-5.1,11.7-7.7,18.5-.3.7-.7.9C40.3,2.8,144.1,3.7,153.5,74.4Z"/>
        <g>
          <path class="st15" d="M153.5,74.4c.5,4,.8,7.7.7,11.7-.7,31-27.3,58.4-58.3,60.4-35,2.3-67-24.6-68-60.1s.2-9.7,1-14.5c.5-.1.6-.5.7-.9,2.6-6.8,3.7-11.9,7.7-18.5,28.3-46.2,94.3-38,113,11.5l3,10.4Z"/>
          <path class="st2" d="M86.5,26.5c51.4-3.4,82,56.9,49,96.2s-69.5,26.9-91.6-3.2c-26.4-36.1-2.2-89.9,42.5-92.9Z"/>
          <g>
            <path class="st9" d="M92.9,48.7l-20.5,19.7c0-3.3-.3-6.7-.2-10,.9,0,.3-1.3.5-1.6,1.7-3.2,11.3-5.5,14-8.4,2.1,0,4.2.2,6.2.2Z"/>
            <path class="st6" d="M72.4,115.6h12.7c0-.1.4-23.5.4-23.5,8.4,0,15.9,1,23-4.2,10-7.4,11.2-21.8,4.1-31.7,8.6,9.2,6.8,24.9-3.1,32.7-7.1,5.6-14.6,4.8-23.2,4.7l-.4,23.1h-13.6c-1-.6.1-.9.1-1.1Z"/>
            <path class="st5" d="M72.9,48.5c-1.4,6.1,8,2.2,10,0,1.2,0,2.5,0,3.7,0-2.7,2.8-12.2,5.2-14,8.4s.4,1.7-.5,1.6c0-3.3.5-6.6.2-9.9h.5Z"/>
            <path class="st7" d="M82.9,48.5c-2,2.2-11.4,6.1-10,0,3.3,0,6.7,0,10,0Z"/>
            <g>
              <path class="st1" d="M112.6,56.2c7,9.8,5.9,24.3-4.1,31.7-7.1,5.2-14.6,4.3-23,4.2l-.4,23.3h-12.7c-.8-15.5-.2-31.4,0-47l20.5-19.7c9,.3,13.1.5,19.7,7.5Z"/>
              <path class="st0" d="M88,60.5c7.5-.8,17.2,1.1,16.8,10.6-.4,10.3-12,9.9-19.5,9.2v-19.5c.9,0,1.8-.3,2.6-.4Z"/>
            </g>
          </g>
        </g>
      </g>
    </g>
  </g>
</svg>