<?xml version="1.0" encoding="UTF-8"?>
<svg id="Layer_1" xmlns="http://www.w3.org/2000/svg" xmlns:xlink="http://www.w3.org/1999/xlink" version="1.1" viewBox="0 0 132.9 117.3">
  <!-- Generator: Adobe Illustrator 29.8.3, SVG Export Plug-In . SVG Version: 2.1.1 Build 3)  -->
  <defs>
    <style>
      .st0 {
        fill: #25190f;
      }

      .st1 {
        fill: #be8573;
      }

      .st2 {
        fill: #f6f3ee;
      }

      .st3 {
        fill: #2f1610;
      }

      .st4 {
        fill: #6a321d;
      }

      .st5 {
        fill: url(#linear-gradient1);
      }

      .st6 {
        fill: #271918;
      }

      .st7 {
        fill: #f28825;
      }

      .st8 {
        fill: #3f2d2d;
      }

      .st9 {
        fill: url(#linear-gradient);
      }

      .st10 {
        fill: #ef7624;
      }

      .st11 {
        fill: #b8a89a;
      }

      .st12 {
        fill: #f3e1d1;
      }

      .st13 {
        fill: #cb5127;
      }

      .st14 {
        fill: #d6bcae;
      }

      .st15 {
        fill: #aa938f;
      }

      .st16 {
        fill: #919c9a;
      }

      .st17 {
        fill: #dccbc2;
      }

      .st18 {
        fill: #c4ada7;
      }

      .st19 {
        fill: #2b2422;
      }

      .st20 {
        fill: #e56225;
      }

      .st21 {
        fill: #c73f27;
      }

      .st22 {
        fill: #8c351e;
      }

      .st23 {
        fill: #976d64;
      }

      .st24 {
        fill: #181110;
      }
    </style>
    <linearGradient id="linear-gradient" x1="111.8" y1="93.4" x2="91.8" y2="80.7" gradientTransform="translate(0 130.4) scale(1 -1)" gradientUnits="userSpaceOnUse">
      <stop offset="0" stop-color="#ea5e26"/>
      <stop offset="1" stop-color="#c74327"/>
    </linearGradient>
    <linearGradient id="linear-gradient1" x1="112.7" y1="85.8" x2="99.4" y2="68.8" gradientTransform="translate(0 130.4) scale(1 -1)" gradientUnits="userSpaceOnUse">
      <stop offset="0" stop-color="#d1c6c2"/>
      <stop offset="1" stop-color="#a69693"/>
    </linearGradient>
  </defs>
  <g id="Generative_Object">
    <g id="Generative_Object1">
      <g>
        <path class="st20" d="M43.1,45.1c1.6,1.4,3.2,2.8,4.3,4.7,0,.4-.4,0-.4,0,0,.3,4.6,3.8,5.2,4s1.6,0,2.3,0c0,.5-.6,0-.8.3s.5.8-.8.6-1.7-1.1-1.9-1.1-.4.4-.6.4c-.3,0-.5-.6-.9-.3,0,.8.8,1.6,1,2.1s.4,2,.4,2.1,1.1,1.1,1.2,1.5c.5-1.3.8-.3,1.3-.3s1-.4,1.4-.4c1.5,0,.7.5.8.6s1.8-.4,2.1-.4c.6,0,0,.3.4.3s2-.6,2.6-.8.3-.5,1.1-.6.4.4.4.4c.3,0,1.8-.9,2.1-1,1.9-.4,9.7-1.2,11.1-.7s1.7,1.4,2.2,1.8.6,0,.9.2c1.6,1.5,2.9,5.3,4.5,7.2,2.8,3.4,7.5,5,11.6,4.9s.1-.4.3-.4c1.5,0,3.6,0,4.8.8s4.5,6,5.3,8,.5,1.2.2,1.3l-.6-1c0,.3-.3.7-.6.6l-1-1.3c-2.1-3.1-3.7-3.7-7.2-4.2s-2.7,0-4-.3c-4.1-.5-6.7-1.3-9.5-4.5s-2.2-3.7-2.4-3.8c-.6-.3-.9.5-1,.6s0-.2-.5,0c-1.8-1.4-4.5-.4-6.6,0l.4.4-3.4.7c-.8,0-.9.8-1.2.7s-.3-.6-.6-.7c-.7-.4-2.6,1.1-3.8,1.1.8-.8-.7-1.9-1.4-1.7s-1,1.4-1.1,1.4-1.5.2-1.8.3c-.5,0-.3-.8-.8.6l.6.3c-.9,0-2.9-1.6-2.5,0-.6-.2-1.1-1.3-1.7-1.4s-1.1.3-1.1.3c0,0-.5-.6-1.1-.7s-1.4-.2-1.5,0c-.3,1-.6,1.4-.5,2.6s.4.2.4.3c0,1,0,2,0,2.9l.3-.8c.3,0,0,4,0,4.4s.5,0,.6,0c.3.7-1.3,3.7-1.9,4.2-1.6,1.7-3.2,2.6-4.7,4v-.7l-.8.6.9-2.3-1.9,2.4v-.8c1.4-1.6,1.2-1.6,2-3.4s.4,0,.6-.3.2-1.3,0-1.7c-.7,1.6-1.4,3.1-2.9,4.2l-.2-.3c.7,0,1-2.5.9-2.6-.2.3-2,3.5-2.3,2.9l2.9-5.6c.6-1.2.7-1.7.8-3.1s0-2.3,0-3.5c0-1.8-.3-3.5-.3-5.4s.5-4.9.4-7.2c.3-.4.2-1.3,0-1.8v-.3c-.3.2-.4.6-.6.8-.5,0,0-1.5.2-1.4.5.7.8-.2,1.1,0s.6,1.2.9.6c.4-.6-.6-3.2-1-3.8s-2.1-1.8-2.1-1.9c0-.3.4,0,.3-.6s-1.3-1-1.5-1.2c.9,0,0-1.4,0-1.7,0-.7.3-.8.3-1,0-.3-.8-1.1,0-1h.3Z"/>
        <path class="st7" d="M86.9,50.5c.7.4,3,2.4,3.6,3.1,1.3,1.3,2.5,3.2,2.9,5,1.1,4.3,0,6.9,4.2,10.2l2.2,2.5c-1.2-.9-3.3-.9-4.8-.8s-.2.4-.3.4c-4.2,0-8.8-1.5-11.6-4.9-1.6-1.9-2.8-5.7-4.5-7.2s-.9-.2-.9-.2c-.5-.4-1.6-1.6-2.2-1.8-1.5-.5-9.3.3-11.1.7s-1.8.9-2.1,1-.2-.4-.4-.4c-.8,0-.9.5-1.1.6-.7.2-2.1.7-2.6.8s.2-.4-.4-.3-1.9.5-2.1.4.7-.6-.8-.6-1.2.4-1.4.4c-.4,0-.7-1.1-1.3.3,0-.3-1.1-1.3-1.2-1.5s-.4-1.9-.4-2.1c-.2-.5-1.1-1.3-1-2.1.4-.3.6.4.9.3s.3-.4.6-.4,1.7,1.1,1.9,1.1c1.2,0,.6-.4.8-.6s.9.2.8-.3c5.7.4,5.5-.8,10.1-2.4s16.4-4.4,22.2-1.1h0Z"/>
        <path class="st10" d="M33.5,41.4h1.8c0,.3-.5,1.6-.4,1.7,1.1.3,2.3,1.2,3.2,1.9s.9.7,1.3,1c.9.7,1.4,1.5,2.1,2.1s1,.5,1.4.8,1.5,1.1,1.5,1.2c0,.5-.3.3-.3.6s1.8,1.5,2.1,1.9,1.3,3.2,1,3.8c-.3.5-.8-.6-.9-.6-.3,0-.6.9-1.1,0-.2,0-.7,1.3-.2,1.4,0,0-.3.8-.5.7,0-.8,0-.7-.2-1.1s-.4,0-.7-.6c.5-.2,1.9-.9,2.1-1.4.5-1-1.1,0-1.3,0-3.2.2-7.3-3.2-10.9-2.8v-.6c2.3.6-.4-3.1-1-3.4s-3.7.2-4.2.6-.8.9-.8,1c0,.2.3.4.3.4l-.4.4c0,1.8.6,1.6,1.9.9,0,0,.2,0,.6,0l.5.8c-1-.3-1.3.3-1.9.4-1.9.4-7.1.7-8.8.3s-.5-.4-.6-.4c2.6-.9,4.7-2,6.5-4.1s2.4-3.8,3.9-5.1c1.5-1.3,3.1-2,4.2-2.1h-.2Z"/>
        <path class="st22" d="M39.8,70.6c1.1,1,2,1.7,3.2,2.5s.9.8,1.3,1c-.2.5-.4,1.1-.7,1.6-1.5,2.6-8.6,6.8-11.3,9l1.3-1.6-1.1.4,1.7-1.4h-1c0,0,2.1-3.2,2.1-3.2l-3.6,3.3c.8-1.1,1.6-2.3,2.5-3.4,0,0-.3,0-.4,0,.7-.8.9-1.3,1.4-2.2,1.8-3.8,1.9-7.4.6-11.4,1.7,2.3,1.9,3.5,4.2,5.6l-.2-.2Z"/>
        <path class="st15" d="M44.3,56.8c-.6.7-1.1.8-1.7,1.7l-.5-.6c-.2.9-1.3.8-1.4.8-.5.3-.6,1.7-1.7.4-.4,1,.2,1.8-1,.6-.5.2-.2.8-.2.9s-1.2.2-1.3.6,1.2,3.2,1.4,3.6-.4,0-.3.3c.3.8.9,2.2,1.3,3s.3.9.3.9c.2.4,2.1,1.9.6,1.6-2.3-2.1-2.5-3.2-4.2-5.6-2.6-3.7-5-6.5-9.8-7s-3.1.2-4.7,0c2.8,0,5.5-1,8.3-1,4.9,0,9,1.8,14.1-.7.3.4.3,0,.7.6h0Z"/>
        <path class="st12" d="M45.5,56.7c-.6.7,0,1.3,0,1.8,0,2.4-.4,4.8-.4,7.2-.4,0-.4.2-.4.5-.2,1.4,0,3.5,0,4.9v3.2h0c-.5-1.3-1.5-2.1-2.1-3.2s-.7-2.2-1.1-3.3c-.3-1.2-.8-2.3-1.1-3.5h.3c0,0,0-1.5,0-1.5l.7,1c.4,0,.5-1.8.3-2.2,0-1,.4-2.2,1-3.1s1.1-1,1.7-1.7c.3.4.4.3.2,1.1.2,0,.4-.5.5-.7.2-.3.2-.6.5-.8,0,0,0,.3,0,.3Z"/>
        <path class="st8" d="M43.6,84.7c-1.8,2.2-7.8,8.8-10.4,9.5s-.7-.3-1-.4-.2.5-.3.6c0,0,.2-1.1-.3-.3-.8-2.1,1.7-2,2.9-2.6s9.2-11.6,10.1-13.6l-2.9,5.6c.3.7,2.1-2.6,2.3-2.9,0,0-.2,2.6-.9,2.6l.2.3c1.5-1,2.3-2.5,2.9-4.2,0,.5,0,1.3,0,1.7s-.4,0-.6.3c-.8,1.9-.6,1.8-1.9,3.4h0Z"/>
        <path class="st6" d="M33.7,78.7s-.3,0-.3.2c.2.2.3-.2.3-.2h.4c-.9,1.1-1.7,2.3-2.5,3.4s0,.5,0,.6c0,.2-.7.3-1,.7-2.1,2.8-4.9,5.5-8.3,6.6-.2-.3,0-.3,0-.7s-.3,0-.3,0c-1-.9.6-1.2,1.1-1.8.9-.5,1.7-.8,2.6-1.5,3.2-2.5,6.1-7,9.4-9.6-.4,1-.7,1.4-1.4,2.2h0Z"/>
        <path class="st6" d="M45.4,85.5c-2.9,2.6-5.5,5.4-7.9,8.5-1.4,1.1-2.9,1.7-4.8,1.1s-.8-.8-1-.8v-.3c.6-.8.2.3.3.3s.2-.6.3-.6c.3,0-.4.8,1,.4,2.5-.6,8.6-7.3,10.4-9.5v.8l1.9-2.4-.9,2.3.9-.6v.7h-.2Z"/>
        <g>
          <path class="st9" d="M106.9,29.1c3,2.1,8.3,8.6,9.2,12.1s.4,3.1.4,4.5l-1.8-5.2c1.1,5.3-1,11.7-5.4,15.1-6.3,4.8-12.7.7-18.9-2.1-.6-.6-2.9-2.7-3.6-3.1,1.9-.3,3.5,1.2,5.2,1.7,4.2,1,11.4.5,10.7-5.4-.6-4.5-6.2-5.3-8.9-7.7s-1.6-1.9-2-2.6l3.8,2.2-2.5-3.6c.4,0,4.6,1.8,4.7,1.6l-3.3-3.5c2,.4,4.2.9,6.1,1.9l-3.3-3.6,5.9,1.5c-1.1-1.6-2.8-2.8-4.5-3.7,2.2,0,4.5,0,6.5,1l-4.7-2.9c.2-.3,4.5.8,4.9,1.3l-1.9-1.5c1.2.5,2.3,1.1,3.3,1.8v.2Z"/>
          <g>
            <path class="st5" d="M116.1,41.2c.4,0,.6.7.7,1.1s0,.5.3.6c0,1.8.9,3.9.4,5.8.8,0,.8-1.4,1.5-1.6h0c0,.3.1.4.1.5.3,2.5-.3,4.6-2.2,6.3l2.6-1.2c-.4,2.9-3.4,4.6-6.1,5.1,1.5.5,3.5-.2,4.8-.9-.6,2-3.5,2.8-5.5,2.9,1,.5,2.2.3,3.3.3-1.2,1.5-3.8,1.6-5.6,1.3l1.9.6c-2.7,2.1-6,0-8.7-.9l3.7,2.6c-3.1.3-5.9-.9-8.1-3-.4.3.8,1.7.1,1.8s-3-2.1-3.2-2.8l.3,1.7c-1.4-.3-2.2-1.7-3.1-2.9-.5-1.8-1.7-3.7-2.9-5,6.1,2.8,12.6,6.9,18.9,2.1,4.4-3.4,6.4-9.8,5.4-15.1l1.8,5.2c0-1.5,0-3.1-.4-4.5Z"/>
            <path class="st2" d="M119,47.1c-.7.2-.7,1.6-1.5,1.6.5-1.8-.4-4-.4-5.8v-.3c.7,1,1.7,3.3,1.9,4.5Z"/>
            <path class="st2" d="M119.3,47.6h-.1s-.1-.2-.1-.4c.3,0,.2.3.3.4h0Z"/>
          </g>
          <path class="st12" d="M103.6,27.3l1.9,1.5c-.4-.6-4.8-1.6-4.9-1.3l4.7,2.9c-2-1-4.3-.9-6.5-1,1.7.9,3.4,2.1,4.5,3.7l-5.9-1.5,3.3,3.6c-1.8-1-4.1-1.5-6.1-1.9l3.3,3.5c-.1.2-4.3-1.5-4.7-1.6s-.9-.3-1.3-.4-.5.3-.6.3c-4.9-1.4-7.9-5.9-10.7-9.9,0,0-.4-.5-.2-.7,5.4,5.6,12,1.3,18.4,1.7,6.4.4,3.3.6,4.8,1.3v-.2Z"/>
          <path class="st14" d="M93.1,35.1l2.5,3.6-3.8-2.2c.4.8,1.4,2.1,2,2.6-5.7-2.4-11.3-8-13.2-14.1,2.7,4,5.7,8.4,10.7,9.9s.2-.4.6-.3.9.3,1.3.4h0Z"/>
        </g>
        <path class="st24" d="M32.3,84.7c-1.3,1-6,5.7-6.9,6-1.5.4-5.1,0-3.8-2.2s1.1-.7,1.5-.9c-.6.6-2.2,1-1.1,1.8,0,.5,0,.2.3,0,.2.4,0,.4,0,.7,3.4-1.1,6.2-3.9,8.3-6.6,2.1-2.7.8-.5,1-.7s0-.5,0-.6l3.6-3.3-2.1,3.3h1c0,0-1.7,1.3-1.7,1.3l1.1-.4-1.3,1.6h0Z"/>
        <path class="st12" d="M41.5,67.8c.4,1.1.6,2.2,1.1,3.3s1.6,2,2.1,3.1c0,0-.3,0-.4,0-.3-.2-.8-.7-1.3-1-.8-1.4-1.8-3-2.8-4.3.2-.7,0-1.4-.3-2.1.5-.8,1,1,1.5,1.1h.1Z"/>
        <path class="st21" d="M43.1,45.1c-.9,0,0,.8,0,1s-.4.3-.3,1,1,1.7,0,1.7c-.4-.3-1-.5-1.4-.8,0-.5.2-1,.3-1.5.5-.4.6-1.4.8-1.9.3,0,.4.4.6.6h0Z"/>
        <path class="st4" d="M18.9,52.6s.2.3.6.4v.6s-.5.3-.6.3l-2.9-.4c-.2-1.3,2.1-1,2.9-.8h0Z"/>
        <path class="st3" d="M18.9,53.9c-.3.3-.3.9-.7,1s-2.2-1-2.2-1.4l2.9.4Z"/>
        <path class="st14" d="M45.4,71.1c0,1.2,0,2.2,0,3.5-.2,0-.3-.2-.4-.3v-3.2c0,0,0,.4,0,.4,0,0,.2-.4.3-.4h0Z"/>
        <path class="st13" d="M68.9,67.5c0,0,.7,0,.9,0,.5.3-3.8,1-2.5,1.4-4.2,1.3-7.3,4.5-10.8,7-.9.2-1.8.3-2.7.3-.7,2.4-2,3.6-3.7,5.3.7-.6,2.2-3.6,1.9-4.2s-.5,0-.6,0c0-.4.2-4.4,0-4.4l-.3.8c-.2-1,0-2,0-2.9s-.4,0-.4-.3c0-1.1.2-1.6.5-2.6,0,0,1.3,0,1.5,0,.6,0,1.1.7,1.1.7,0,0,.4-.4,1.1-.3s1.1,1.1,1.7,1.4c-.4-1.6,1.6,0,2.5,0l-.6-.3c.5-1.4.3-.5.8-.6s1.7-.2,1.8-.3,1-1.3,1.1-1.4c.7-.2,2.2.8,1.4,1.7,1.1,0,3-1.5,3.8-1.1s.5.7.6.7c.3,0,.3-.6,1.2-.7l-.2-.2Z"/>
        <path class="st1" d="M78.5,66.6c-2.3.2-2.4,0-4.5,1.1s-.6.7-.6.7c0,0-.2-.2-.3,0-2.8,1.5-5.1,3.7-7.9,5s-5.8,2.1-8.6,2.6c3.5-2.5,6.6-5.6,10.8-7-1.3-.3,3-1.1,2.5-1.4-.2,0-.8,0-.9,0l3.4-.7-.4-.4c2.1-.3,4.8-1.3,6.6,0h0Z"/>
        <path class="st8" d="M108.3,82.3c-.7.3.1.8,0,1.3-.4,1.4-1.3-1.8-1.4-2.1-1.2-2.4-2.9-5.6-4.3-7.8s-2.1-2.1-2.2-3.3c.6.3,2.2.4,2.7.7.9.5,4.9,9.7,5.2,11.1h0Z"/>
        <path class="st6" d="M100.4,70.5c.1,1.2,1.5,2.2,2.2,3.3,1.5,2.2,3.1,5.4,4.3,7.8s1,3.4,1.4,2.1-.7-1,0-1.3c.2.9.4,1.5.3,2.4-3.3,1.4-4-3.6-5.4-5.8l1,1.3c.3,0,.6-.2.6-.6l.6,1c.3,0-.1-1.2-.2-1.3-.8-2-3.7-6.7-5.3-8l-2.2-2.5c.8.6,1.9,1.3,2.8,1.7h-.1Z"/>
        <g>
          <path class="st21" d="M91.9,74.5c1.1,1,1.8,2.2,2.6,3.5,0,1-.2.7-1,1.3-2.4-2.3-5.7-.7-8.6-1-4.8-.5-9.8-5.6-11.6-9.9,0,0,.2-.5.6-.7,2.1-1,2.3-.9,4.5-1.1s.5,0,.5,0c0,0,.4-.8,1-.6s1.9,3.2,2.4,3.8c2.7,3.2,5.4,4,9.5,4.5h0Z"/>
          <path class="st6" d="M95.9,74.8c0,3.1,5.5,10.6,4.2,13.2s-1.6.6-2,.5c-1.1-.3-1.7-3.6-2-4.6,0,0,.6.6.7.8l-.6-1.8c0-.5.3.2.3.2.4-.2-.4-1.1-.3-1.5,1.2,1.3,0-1.2-.3-1.8s-1-1.2-1.4-1.7c-.8-1.2-1.6-2.4-2.6-3.5,1.3.2,2.7,0,4,.3h0Z"/>
          <path class="st21" d="M96,83.8c-.8-1.3-1.3-3.4-2.5-4.6.8-.5,1.1-.3,1-1.3.4.5,1.1,1.1,1.4,1.7s1.4,3.1.3,1.8c0,.3.7,1.2.3,1.5s-.3-.7-.3-.2l.6,1.8c0-.2-.7-.7-.7-.8h-.1Z"/>
        </g>
        <path class="st14" d="M45.1,65.7c0,1.9.2,3.6.3,5.4-.2,0-.2.4-.3.4s0-.4-.2-.4c0-1.5-.3-3.5,0-4.9s0-.5.4-.5h-.1Z"/>
        <path class="st13" d="M45.5,58.5c0-.5-.6-1.1,0-1.8.2.5.3,1.4,0,1.8Z"/>
        <path class="st20" d="M45.6,54.9c-1,0-1.6.4-2.7.3s-4.4-1.9-6.1-2.4c-4.3-1.2-8.5.4-12.8.8s-3.4-.2-4.5,0v-.6c1.7.4,6.9.2,8.8-.3,1.9-.5,1-.7,1.9-.4l-.5-.8c1.6,0,1.5-.3,2.7-.7s.7.3,1,0,0-.2.3-.3c-.4-.8-.7-.9-1.4-1.3-2.2-1.3-4.6-.5-4.5,2.3.4,0,.8,0,1.3,0-1.3.7-2.1.8-1.9-.9s.4-.4.4-.4c0,0-.4-.2-.3-.4s.8-.9.8-1c.6-.4,3.6-1,4.2-.6s3.2,4,.9,3.4v.6c3.6-.5,7.7,3,10.9,2.8s1.8-1,1.3,0h.2Z"/>
        <g>
          <path class="st6" d="M32.3,34.1c1.7,1.6,2.3,3.8,3.5,5.7,0,0,0,0,0,.6-1.1,0-1.9.2-2.9-.3-1-1.4-1.4-3.7-1.1-5.4s0-.9.7-.6h0Z"/>
          <path class="st15" d="M31.2,33.6c-.7,2-.6,5.5,1.5,6.5s1.9.3,2.9.3v.3l-2.1.7c-1.1,0-3.3,1.4-4.2,2.1v-.6c1.3-1.2,1.1-1.5,1.1-3.1s-.3-3.3,0-4.9c.3-.7,0-.9.8-1.4h0Z"/>
          <path class="st12" d="M30.5,39.8c-.6.4-.5,1.6-1.4,1.7,0-1.7.6-5,1.3-6.5,0,1.6.2,3.3,0,4.9h0Z"/>
          <path class="st8" d="M32.3,34.1c-.6-.3-.6,0-.7.6-.3,1.7,0,4,1.1,5.4-2.1-1.1-2.2-4.6-1.5-6.5v-.3c.5,0,.7.5,1,.8h0Z"/>
          <path class="st14" d="M30.5,39.8c0,1.6.2,1.9-1.1,3.1-.2-.7-.3-.6-.3-1.4.9,0,.8-1.3,1.4-1.7Z"/>
          <path class="st23" d="M35.6,40.7c0,.2-.2.5-.3.7h-1.8s2.1-.7,2.1-.7Z"/>
        </g>
        <g>
          <path class="st12" d="M45.6,54.9c-.2.4-1.6,1.2-2.1,1.4-5.1,2.5-9.2.8-14.1.7s-5.5,1-8.3,1c-1.9-.4-2.2-1.5-2.9-3.1.4,0,.4-.7.7-1s.5-.3.6-.3c1.1-.2,3.2,0,4.5,0,4.3-.4,8.5-2,12.8-.8s4.6,2.2,6.1,2.4,1.7-.4,2.7-.3Z"/>
          <path class="st19" d="M29.6,54.2c.2.4-1.2,1.1-1.5,1.3-2.4,1.3-5.5,2.2-8.1,1.2,1.8,0,3.5,0,5.2-.3s3.2-1.4,4.5-2.1h-.1Z"/>
          <path class="st11" d="M20.8,54.7h.6c-1.4.5,2.2.6,2.9.8-1.3.3-2.6,0-3.8-.3.2,0,.4-.4.4-.4h-.1Z"/>
          <path class="st11" d="M20.7,54.3c.8,0,1.9,0,2.6.3-.8,0-1.9,0-2.6-.3Z"/>
        </g>
        <path class="st15" d="M40.2,68.8c1,1.3,1.9,2.9,2.8,4.3-1.2-.8-2.1-1.5-3.2-2.5,1.6.3-.4-1.2-.6-1.6s0-.5-.3-.9c.8-.7.8,0,1.3.7Z"/>
        <path class="st18" d="M42.6,58.5c-.5.8-.9,2.1-1,3.1,0,0-1.3-1.8-1.5-1.7,0,1-.2,1.9,0,2.9l-1-.3c-.6.3.8,3.7.9,4.2s.4,1.4.3,2.1c-.4-.6-.5-1.4-1.3-.7-.3-.8-1-2.2-1.3-3s.3-.2.3-.3c0-.5-1.4-3.4-1.4-3.6,0-.4,1.2-.5,1.3-.6s-.2-.7.2-.9c1.2,1.2.6.4,1-.6,1.1,1.3,1.1,0,1.7-.4s1.2,0,1.4-.8l.5.6h0Z"/>
        <path class="st14" d="M40.1,62.8c0,.5.2,1,.3,1.5.3,1.2.8,2.3,1.1,3.5-.6,0-1-1.9-1.5-1.1,0-.5-1.5-3.9-.9-4.2,0,0,1,.3,1,.3Z"/>
        <path class="st17" d="M41.6,61.5c0,.4,0,2.4-.3,2.2l-.7-1v1.7c0,0-.2,0-.2,0,0-.5-.2-1-.3-1.5v-2.9c.2-.2,1.4,1.5,1.5,1.7h0Z"/>
        <g>
          <path class="st24" d="M42.6,44.6c-.2.6-.3,1.6-.8,1.9.9-3.9,1.3-7.5-.5-11.3-.6,0-4.4,3.2-4.9,3.9,1.2-2.2,3-4.3,5.5-5.2,1.3,3.8,2,6.7.8,10.6h0Z"/>
          <g>
            <path class="st12" d="M41.7,46.5c0,.5-.2,1-.3,1.5-.7-.6-1.2-1.4-2.1-2.1-1.2-1.5.9-2.2,1-2.4,0-.3-.8-.6.3-.7l-1-.4c.3-.4.6-.4,1.1-.3l-1.1-.4,1-.6h-.8c0,0,.7-.6.7-.6-.2-.6-1.4.4-1.5,0,.4-.5,1-.6,1.7-.7-.2-.4-.9-.3-1.3,0,0-.4.5-.5.7-.6-.4.2.6.2.6,0,0,0-.5,0-.6,0,.2-.2.9-.4.8-.7l-1.3.5c0,0,1.8-.9,1.2-1.2l-2,1h.7c0,0-1,.6-1,.6h.8l-1.6.8h1.3c0,0-1.1.7-1.1.7,1.7,0,.3,0,0,.9l1-.2-1.3,1,.9-.5-.3.6,1.2-.2c-1.2.5-1.6,1.1-1.3,2.4-.9-.7-2.1-1.5-3.2-1.9,0,0,.3-1.5.4-1.7s.2-.5.3-.7,0-.2,0-.3c.2-.4,0-.5,0-.6,0,0,.4-.5.6-.7.5-.7,4.3-4,4.9-3.9,1.7,3.8,1.4,7.3.5,11.3h0Z"/>
            <path class="st0" d="M40.1,39.3c-.2,0-.7.2-.7.6.3-.2,1-.3,1.3,0-.6,0-1.2.2-1.7.7,0,.2,1.3-.7,1.5,0l-.7.4h.8c0,0-1,.7-1,.7l1.1.4c-.5,0-.8-.2-1.1.3l1,.4c-1.1,0-.2.4-.3.7s-2.1.9-1,2.4c-.4-.3-.8-.7-1.3-1-.4-1.4,0-1.9,1.3-2.4l-1.2.2.3-.6-.9.5,1.3-1-1,.2c.2-.8,1.6-.9,0-.9l1.1-.6h-1.3c0,0,1.6-.9,1.6-.9h-.8l1-.5h-.7c0,0,2-1.2,2-1.2.6.3-1.1,1.1-1.2,1.2l1.3-.5c0,.3-.5.5-.8.7v.2Z"/>
            <path class="st24" d="M40.6,36.8c.4.2-.8,1.9-1.4,1.5l1.4-1.5Z"/>
            <path class="st0" d="M40.1,39.3h.6c0,.2-1,.2-.6,0Z"/>
          </g>
        </g>
        <path class="st8" d="M22.3,89.4c-.2.2-.2.5-.3,0,0,0,0-.3.3,0Z"/>
        <path class="st22" d="M33.7,78.7s0,.4-.3.2c0-.3.3-.2.3-.2Z"/>
        <g>
          <path class="st24" d="M32.4,49.2l1.1,1.7c-.4.3-.6,0-1,0-1.2.4-1.1.7-2.7.7s-.4,0-.6,0h-1.3c0-2.8,2.2-3.6,4.5-2.3Z"/>
          <path class="st22" d="M33.5,50.8l-1.1-1.7c.7.4,1,.5,1.4,1.3-.2,0,0,.2-.3.3h0Z"/>
          <path class="st16" d="M32.1,49.7l.6.8c-1.5,1-2.3.9-4,.4l.3-.9c.5,1.6,3.1,1.5,3.1-.3Z"/>
          <path class="st2" d="M29.7,49.2c.7-.2.5.9,0,1s-.6-.9,0-1Z"/>
          <path class="st12" d="M30.5,49c.3,0,.5.4.3.6s-.7-.5-.3-.6Z"/>
        </g>
      </g>
    </g>
  </g>
</svg>