<?xml version="1.0" encoding="UTF-8"?>
<svg id="Layer_1" xmlns="http://www.w3.org/2000/svg" xmlns:xlink="http://www.w3.org/1999/xlink" version="1.1" viewBox="0 0 132.9 117.3">
  <!-- Generator: Adobe Illustrator 29.8.3, SVG Export Plug-In . SVG Version: 2.1.1 Build 3)  -->
  <defs>
    <style>
      .st0 {
        fill: #f3a067;
      }

      .st1 {
        fill: #25190f;
      }

      .st2 {
        fill: #be8573;
      }

      .st3 {
        fill: #f6f3ee;
      }

      .st4 {
        fill: #2f1610;
      }

      .st5 {
        fill: #6a321d;
      }

      .st6 {
        fill: url(#linear-gradient2);
      }

      .st7 {
        fill: url(#linear-gradient1);
      }

      .st8 {
        fill: url(#linear-gradient3);
      }

      .st9 {
        fill: url(#linear-gradient4);
      }

      .st10 {
        fill: #ecddcf;
      }

      .st11 {
        fill: #f9f9fb;
      }

      .st12 {
        fill: #020203;
      }

      .st13 {
        fill: #271918;
      }

      .st14 {
        fill: #f28825;
      }

      .st15 {
        fill: #2a221d;
      }

      .st16 {
        fill: #3f2d2d;
      }

      .st17 {
        fill: url(#linear-gradient);
      }

      .st18 {
        fill: #ef7624;
      }

      .st19 {
        fill: #bb9c92;
      }

      .st20 {
        fill: #f9bd77;
      }

      .st21 {
        fill: #b8a89a;
      }

      .st22 {
        fill: #f3e1d1;
      }

      .st23 {
        fill: #a7563f;
      }

      .st24 {
        fill: #cb5127;
      }

      .st25 {
        fill: #d6bcae;
      }

      .st26 {
        fill: #ecbc97;
      }

      .st27 {
        fill: #aa938f;
      }

      .st28 {
        fill: #342218;
      }

      .st29 {
        fill: #725b56;
      }

      .st30 {
        fill: #89685c;
      }

      .st31 {
        fill: #a69693;
      }

      .st32 {
        fill: #563a2a;
      }

      .st33 {
        fill: #919c9a;
      }

      .st34 {
        fill: #7e5546;
      }

      .st35 {
        fill: #dccbc2;
      }

      .st36 {
        fill: #c4ada7;
      }

      .st37 {
        fill: #634544;
      }

      .st38 {
        fill: #2b2422;
      }

      .st39 {
        fill: #e56225;
      }

      .st40 {
        fill: #c73f27;
      }

      .st41 {
        fill: #8c351e;
      }

      .st42 {
        fill: #976d64;
      }

      .st43 {
        fill: #d1c6c2;
      }

      .st44 {
        fill: #b15120;
      }

      .st45 {
        fill: #dbc2a5;
      }

      .st46 {
        fill: #181110;
      }
    </style>
    <linearGradient id="linear-gradient" x1="-42.1" y1="88.8" x2="-62.1" y2="76.1" gradientTransform="translate(0 121.3) scale(1 -1)" gradientUnits="userSpaceOnUse">
      <stop offset="0" stop-color="#ea5e26"/>
      <stop offset="1" stop-color="#c74327"/>
    </linearGradient>
    <linearGradient id="linear-gradient1" x1="-41.2" y1="81.2" x2="-54.5" y2="64.2" gradientTransform="translate(0 121.3) scale(1 -1)" gradientUnits="userSpaceOnUse">
      <stop offset="0" stop-color="#d1c6c2"/>
      <stop offset="1" stop-color="#a69693"/>
    </linearGradient>
    <linearGradient id="linear-gradient2" x1="64.7" y1="33.3" x2="65.2" y2="80" gradientUnits="userSpaceOnUse">
      <stop offset="0" stop-color="#f1881b"/>
      <stop offset="1" stop-color="#ec6115"/>
    </linearGradient>
    <linearGradient id="linear-gradient3" x1="46.7" y1="30.7" x2="46.7" y2="76.1" gradientUnits="userSpaceOnUse">
      <stop offset="0" stop-color="#d94a18"/>
      <stop offset="1" stop-color="#b01e15"/>
    </linearGradient>
    <linearGradient id="linear-gradient4" x1="63.1" y1="79.5" x2="66.1" y2="90.1" gradientUnits="userSpaceOnUse">
      <stop offset="0" stop-color="#de9b73"/>
      <stop offset="1" stop-color="#efd3b9"/>
    </linearGradient>
  </defs>
  <g id="Generative_Object">
    <g id="Generative_Object1">
      <g>
        <path class="st39" d="M-110.5,40.7c1.6,1.4,3.2,2.8,4.3,4.7,0,.4-.4,0-.4,0,0,.3,4.6,3.8,5.2,4s1.6,0,2.3,0c0,.5-.6,0-.8.3s.5.8-.8.6-1.7-1.1-1.9-1.1-.7.5-.9.5c-.3,0-.2-.7-.6-.4,0,.8.8,1.6,1,2.1s.4,2,.4,2.1.9,1,1,1.4c.5-1.5,1.5-1,2-1s.6.2,1,.2c1.5,0,.8.5.9.6s1.5-.4,1.8-.4c.6,0,.1.2.5.2s1.4-.3,2-.5.2-.8,1.3-.8,1.1.1,1.1.1c.5-.4,1.3-.5,1.6-.6,2.1-.5,9.2-1.4,11.3-.8s1.7,1,2.2,1.4.6.5.9.8c1.6,1.5,2.9,5.3,4.5,7.2,2.8,3.4,5.7,3.9,10.8,4.6s-.6-.4.9-.4,3.1-.3,5,1.1,4.5,6,5.3,8,.5,1.2.2,1.3l-.6-1c0,.3-.3.7-.6.6l-1-1.3c-2.1-3.1-3.7-3.7-7.2-4.2s-2.7,0-4-.3c-4.1-.5-6.4-.5-9.2-3.7s-2.5-4.5-2.7-4.6c-.6-.3-.9.5-1,.6s0-.2-.5,0c-1.8-1.4-4.5-.4-6.6,0l.4.4-3.4.7c-.8,0-.8.6-1.1.5s-.4-.4-.7-.5c-.7-.4-2.6,1.1-3.8,1.1.5-.9-.7-1.9-1.4-1.7s-1,1.4-1.1,1.4-1.5.2-1.8.3c-.5,0-.3-.8-.8.6l.6.3c-.9,0-2.9-1.6-2.5,0-.6-.2-1.1-1.3-1.7-1.4s-1.1.3-1.1.3c0,0-.5-.6-1.1-.7s-1.4-.2-1.5,0c-.3,1-.6,1.4-.5,2.6s.4.2.4.3c0,1,0,2,0,2.9l.3-.8c.3,0,0,4,0,4.4s.5,0,.6,0c.3.7-1.3,3.7-1.9,4.2-1.6,1.7-3.2,2.6-4.7,4v-.7l-.8.6.9-2.3-1.9,2.4v-.8c1.4-1.6,1.2-1.6,2-3.4s.4,0,.6-.3.2-1.3,0-1.7c-.7,1.6-1.4,3.1-2.9,4.2l-.2-.3c.7,0,1-2.5.9-2.6-.2.3-2,3.6-2.3,2.9l2.9-5.6c.6-1.2.7-1.7.8-3.1s0-2.3,0-3.5c0-1.8-.3-3.5-.3-5.4s.5-4.9.4-7.2c.3-.4.2-1.3,0-1.8h-.3c-.3.2-.1.3-.3.5-.5,0,0-1.5.2-1.4.5.7.7,0,1,0s.4,1.3,1.2.6c.3-.6-.4-3-.8-3.7s-2.3-2-2.3-2.1c0-.3.4,0,.3-.6s-1.3-1.2-1.5-1.4c.9,0-.3-1.3-.3-1.6,0-.7.3-.8.3-1,0-.3-.8-1.1,0-1h.3Z"/>
        <path class="st14" d="M-67,45.9c.7.4,3,2.4,3.6,3.1,1.3,1.3,2.5,3.2,2.9,5,1.1,4.3,0,6.9,4.2,10.2l2.2,2.5c-1.2-.9-3.3-.9-4.8-.8s-.2.4-.3.4c-4.2,0-8.8-1.5-11.6-4.9-1.6-1.9-2.7-5.2-3.6-6.1-1.6-1.6-2-1.7-2.2-1.9-.5-.4-1.2-1.1-1.8-1.3-1.5-.5-9.3.3-11.1.7s-1.8.9-2.1,1-.2-.4-.4-.4c-1-.1-1,.4-1.1.6-.7.2-2.1.7-2.6.8s.2-.4-.4-.3-1.9.5-2.1.4.7-.6-.8-.6-1.2.4-1.4.4c-.4,0-.7-1.1-1.3.3,0-.3-1.1-1.3-1.2-1.5s-.4-1.9-.4-2.1c-.2-.5-1.1-1.3-1-2.1.4-.3.6.4.9.3s.3-.4.6-.4,1.7,1.1,1.9,1.1c1.2,0,.6-.4.8-.6s.9.2.8-.3c5.7.4,5.5-.8,10.1-2.4s16.4-4.4,22.2-1.1h0Z"/>
        <path class="st18" d="M-120.6,36.9h1.8c0,.3-.5,1.6-.4,1.7,1.1.3,2.3,1.2,3.2,1.9s.9.7,1.3,1c.9.7,1.4,1.5,2.1,2.1s1,.5,1.4.8,1.5,1.1,1.5,1.2c0,.5-.3.3-.3.6s1.8,1.5,2.1,1.9,1.3,3.2,1,3.8c-.3.5-.6-.5-.9-.6s-.5.8-1,0c-.3,0-.7.9-.5,1.4,0,0,0,.8-.3.7,0-.8,0-.7-.2-1.1s-.4,0-.7-.6c.5-.2,1.9-.9,2.1-1.4.5-1-1.1,0-1.3,0-3.2.2-7.3-3.2-10.9-2.8v-.6c2.3.6-.4-3.1-1-3.4s-3.7.2-4.2.6-.8.9-.8,1c0,.2.3.4.3.4l-.4.4c0,1.8.6,1.6,1.9.9,0,0,.2,0,.6,0l.5.8c-1-.3-1.3.3-1.9.4-1.9.4-7.1.7-8.8.3s-.5-.4-.6-.4c2.6-.9,4.7-2,6.5-4.1s2.4-3.8,3.9-5.1c1.5-1.3,3.1-2,4.2-2.1h-.2Z"/>
        <path class="st41" d="M-114.2,66.1c1.1,1,2,1.7,3.2,2.5s.9.8,1.3,1c-.2.5-.4,1.1-.7,1.6-1.5,2.6-8.6,6.8-11.3,9l1.3-1.6-1.1.4,1.7-1.5h-.9c0,0,2-3.1,2-3.1l-3.6,3.3c.8-1.1,1.6-2.3,2.5-3.4,0,0-.3,0-.4,0,.7-.8.9-1.3,1.4-2.2,1.8-3.8,1.9-7.4.6-11.4,1.7,2.3,1.9,3.5,4.2,5.6l-.2-.2Z"/>
        <path class="st27" d="M-109.6,52.2c-.6.7-1.1.8-1.7,1.7l-.5-.6c-.2.9-1.3.8-1.4.8-.5.3-.6,1.7-1.7.4-.4,1,.2,1.8-1,.6-.5.2-.2.8-.2.9s-1.2.2-1.3.6,1.2,3.2,1.4,3.6-.4,0-.3.3c.3.8.9,2.2,1.3,3s.3.9.3.9c.2.4,2.4,1.9.6,1.6-2.3-2.1-2.5-3.2-4.2-5.6-2.6-3.7-5-6.5-9.8-7s-3.1.2-4.7,0c2.8,0,5.5-1,8.3-1,4.9,0,9,1.8,14.1-.7.3.4.3,0,.7.6h0Z"/>
        <path class="st22" d="M-108.6,52.4s.2,1,.2,1.5c0,2.9,0,4.6-.4,7.2-.4,0-.3.7-.3,1-.2,1.4,0,3,.2,4.4v3.2s-.2,0-.3,0c-.6-1.2-1.6-1.9-2.2-3s-.6-2.3-1-3.4c-.3-1.2-.8-2.3-1.1-3.5h.3c0,0,0-1.5,0-1.5l.7,1c.4,0,.5-1.8.3-2.2,0-1,.4-2.2,1-3.1s1.1-1,1.7-1.7c.3.4.1.3.5.8.2,0,.1-.2.2-.4,0-.1.1-.2.2-.3h0Z"/>
        <path class="st16" d="M-110.3,80.1c-1.8,2.2-7.3,8.8-10.4,9.5s-1.1-.4-1-.4c.3.1-.2.5-.3.6,0,0,.1-.6-.3-.3-.8-2.1,1.7-2,2.9-2.6s9.2-11.6,10.1-13.6l-2.9,5.6c.3.7,2.1-2.6,2.3-2.9,0,0,0,2.6-.9,2.6l.2.3c1.4-1.1,2.1-2.5,2.9-4.2.3.4.3,1.1,0,1.7s-.4,0-.6.3c-.8,1.9-.6,1.8-1.9,3.4h0Z"/>
        <path class="st13" d="M-120.1,74.2c.5-.2.4,0,.4,0-.9,1.1-1.7,2.3-2.5,3.4s-.7.8-.8,1c-.2.2-.7,1-1.3,1.5-2.1,2.8-4,4.4-7.4,5.5-.2-.3-.2,0-.3-.4s0-.3,0-.3c-1-.9.6-1.2,1.1-1.8.9-.5,1.7-.8,2.6-1.5,3.2-2.5,6.3-7,9.6-9.6-.4,1-.2.9-.9,1.7s-.5.5-.5.5Z"/>
        <path class="st13" d="M-108.6,81c-2.9,2.6-5.5,5.4-7.9,8.5-1.4,1.1-2.9,1.7-4.8,1.1s-.8-.8-1-.8v-.3c.6-.8.2.3.3.3s.2-.6.3-.6c.3,0-.4.8,1,.4,2.5-.6,8.6-7.3,10.4-9.5v.8l1.9-2.4-.9,2.3.8-.6v.6c.1,0-.1.2-.1.2Z"/>
        <g>
          <path class="st17" d="M-47,24.5c3,2.1,8.3,8.6,9.2,12.1s.4,3.1.4,4.5l-1.8-5.2c1.1,5.3-1,11.7-5.4,15.1-6.3,4.8-12.7.7-18.9-2.1-.6-.6-2.9-2.7-3.6-3.1,1.9-.3,3.5,1.2,5.2,1.7,4.2,1,11.4.5,10.7-5.4-.6-4.5-6.2-5.3-8.9-7.7s-1.6-1.9-2-2.6l3.8,2.2-2.5-3.6c.4,0,4.6,1.8,4.7,1.6l-3.3-3.5c2,.4,4.2.9,6.1,1.9l-3.3-3.6,5.9,1.5c-1.1-1.6-2.8-2.8-4.5-3.7,2.2,0,4.5,0,6.5,1l-4.7-2.9c.2-.3,4.5.8,4.9,1.3l-1.9-1.5c1.2.5,2.3,1.1,3.3,1.8v.2Z"/>
          <g>
            <path class="st7" d="M-37.8,36.6c.4,0,.6.7.7,1.1s0,.5.3.6c0,1.8.9,3.9.4,5.8.8,0,.8-1.4,1.5-1.6h0c0,.3.1.4.1.5.3,2.5-.3,4.6-2.2,6.3l2.6-1.2c-.4,2.9-3.4,4.6-6.1,5.1,1.5.5,3.5-.2,4.8-.9-.6,2-3.5,2.8-5.5,2.9,1,.5,2.2.3,3.3.3-1.2,1.5-3.8,1.6-5.6,1.3l1.9.6c-2.7,2.1-6,0-8.7-.9l3.7,2.6c-3.1.3-5.9-.9-8.1-3-.4.3.8,1.7.1,1.8s-3-2.1-3.2-2.8l.3,1.7c-1.4-.3-2.2-1.7-3.1-2.9-.5-1.8-1.7-3.7-2.9-5,6.1,2.8,12.6,6.9,18.9,2.1,4.4-3.4,6.4-9.8,5.4-15.1l1.8,5.2c0-1.5,0-3.1-.4-4.5Z"/>
            <path class="st3" d="M-34.9,42.5c-.7.2-.7,1.6-1.5,1.6.5-1.8-.4-4-.4-5.8v-.3c.7,1,1.7,3.3,1.9,4.5Z"/>
            <path class="st3" d="M-34.6,43h-.1s-.1-.2-.1-.4c.3,0,.2.3.3.4h0Z"/>
          </g>
          <path class="st22" d="M-50.3,22.7l1.9,1.5c-.4-.6-4.8-1.6-4.9-1.3l4.7,2.9c-2-1-4.3-.9-6.5-1,1.7.9,3.4,2.1,4.5,3.7l-5.9-1.5,3.3,3.6c-1.8-1-4.1-1.5-6.1-1.9l3.3,3.5c-.1.2-4.3-1.5-4.7-1.6s-.9-.3-1.3-.4-.5.3-.6.3c-4.9-1.4-7.9-5.9-10.7-9.9,0,0-.4-.5-.2-.7,5.4,5.6,12,1.3,18.4,1.7,6.4.4,3.3.6,4.8,1.3v-.2Z"/>
          <path class="st25" d="M-60.8,30.5l2.5,3.6-3.8-2.2c.4.8,1.4,2.1,2,2.6-5.7-2.4-11.3-8-13.2-14.1,2.7,4,5.7,8.4,10.7,9.9s.2-.4.6-.3.9.3,1.3.4h0Z"/>
        </g>
        <path class="st46" d="M-122,77.4l3.4-3s-1.9,3-2,3.1,1,0,1,0c0,0-1.9,1.6-1.9,1.6l1.1-.4-1.3,1.6-.3.2c-1.3,1-5.6,5.4-6.5,5.7-1.5.4-5.1,0-3.8-2.2s1.1-.7,1.5-.9c-.6.6-2.2,1-1.1,1.8,0,.5,0,.2.3,0,.2.4,0,.4,0,.7,3.4-1.1,6.2-3.9,8.3-6.6l1.3-1.6Z"/>
        <path class="st22" d="M-112.4,63.2c.4,1.1.6,2.2,1.1,3.3s1.6,2,2.1,3.1c0,0-.3,0-.4,0-.3-.2-.8-.7-1.3-1-.9-1.3-1.8-3-2.8-4.3.2-.7-.3-1.4-.6-2.1.5-.8,1.3,1,1.8,1.1h.1Z"/>
        <path class="st40" d="M-110.6,40.7c.2.3-.3.6-.3.8s0,.3-.1,1,1.1,2.1.1,1.8c-.4-.3-1.2-.6-1.6-.9,0-.5.2-1,.3-1.5.5-.4.6-1.4.8-1.9.3,0,.3.1.5.3l.3.4Z"/>
        <path class="st5" d="M-135,48s.2.3.6.4v.6s-.5.3-.6.3l-2.9-.4c-.2-1.3,2.1-1,2.9-.8h0Z"/>
        <path class="st4" d="M-135,49.3c-.3.3-.3.9-.7,1s-2.2-1-2.2-1.4l2.9.4Z"/>
        <path class="st25" d="M-108.5,66.5c0,1.2,0,2.2,0,3.5-.2,0-.3-.2-.4-.3v-3.2c0,0,0,.4,0,.4,0,0,.2-.4.3-.4h0Z"/>
        <path class="st24" d="M-85,62.9c0,0,.7,0,.9,0,.5.3-3.8,1-2.5,1.4-4.2,1.3-7.3,4.5-10.8,7-.9.2-1.8.3-2.7.3-.7,2.4-2.8,4.1-4.5,5.8.7-.6,2.6-3.7,2.3-4.3s-.5,0-.6,0c0-.4.4-4.3.2-4.3l-.2.4c-.2-.3-.2-1.4-.4-2.3s-.3-.5-.3-.7c0-1.1.1-2.1.5-3.1,0,0,1,0,1.5,0s1.2.7,1.2.7c0,0,.7-.5,1.3-.2s1.2,1.2,1.4,1.3c-.4-1.7,1.6,0,2.5,0l-.6-.3c.5-1.6.6-.5.9-.6.6-.2,1.6-.3,1.7-.4s.3-1.1,1.1-1.3c.7-.2,2.2.8,1.6,1.8,1.1,0,3-1.5,3.8-1.1s.7.3.8.2c.4-.1.6-.3,1-.2l-.2-.2Z"/>
        <path class="st2" d="M-75.4,62c-2.3.2-2.4,0-4.5,1.1s-.7.7-.7.7c0,0-.4,0-.5,0-2.8,1.5-4.8,3.5-7.6,4.8s-5.9,2.1-8.7,2.6c3.5-2.5,5.9-5.5,10.8-7-1.3-.4,2.8-1.1,2.5-1.4-.2,0-.7,0-.8,0l3.2-.7-.4-.4c2.1-.3,5-1.3,6.8,0h0Z"/>
        <path class="st16" d="M-45.6,77.7c-.7.3.1.8,0,1.3-.4,1.4-1.4-1.8-1.5-2.1-1.2-2.4-2.8-5.6-4.2-7.8s-2.1-2.1-2.2-3.3c.6.3,2.2.4,2.7.7.9.5,4.9,9.7,5.2,11.1h0Z"/>
        <path class="st13" d="M-53.4,66.2c.2.8,1.3,1.6,2,2.7,1.5,2.2,3.1,5.7,4.3,8.1s.8,2.5,1.3,2.2-.6-1.3.1-1.6c.2.9.4,1.7.3,2.6-3.3,1.4-4-3.6-5.4-5.8l1,1.3c.3,0,.6-.2.6-.6l.6,1c.3,0-.1-1.2-.2-1.3-.8-2-3.7-6.7-5.3-8l-2.2-2.5c.8.6,1.8,1.1,2.7,1.5v.4Z"/>
        <g>
          <path class="st40" d="M-62,70c1.1,1,1.8,2.1,2.6,3.4,0,1-.2.7-1,1.3-2.4-2.3-5.7-.7-8.6-1-4.8-.5-9.8-5.6-11.6-9.9,0,0,.2-.5.6-.7,2.1-1,2.3-.9,4.5-1.1s.5,0,.5,0c0,0,.5-.9,1-.5s-.1.1,1.6,3.2c2.1,2.4,2.7,4.4,9,5l1.4.2Z"/>
          <path class="st13" d="M-58,70.2c0,3.1,5.5,10.6,4.2,13.2s-1.6.6-2,.5c-1.1-.3-1.8-3.7-2.1-4.7,0,0,0-.6,0-.4v-1c.5-.2,0-.8,0-1.2.7.7,0-.8-.3-1.4s-1-1.2-1.4-1.7c-.8-1.2-1.6-2.4-2.6-3.5,1.3.2,2.7,0,4,.3h0Z"/>
          <path class="st40" d="M-57.9,79.2c-.8-1.3-1.3-3.3-2.5-4.5.8-.8,1-.9,1-1.4.4.5,1.1,1.1,1.4,1.7s1.4,3.1.3,1.8c0,.3.7,1.2.3,1.5s-.3-.7-.3-.2l.6,1.8c0-.2-.7-.7-.7-.8h-.1Z"/>
        </g>
        <path class="st25" d="M-108.8,61.1c0,1.9.3,3.4.3,5.4-.2,0-.2.4-.3.4-.3,0,0-.4-.2-.4,0-1.5-.3-3.5,0-4.9s0-.5.4-.5h-.1Z"/>
        <path class="st24" d="M-108.4,54.1c0-.5-1.2-1.1-.3-1.8.8-.4.6,1.4.3,1.8Z"/>
        <path class="st39" d="M-126.6,45.2c.2-.9.5-.9.6-1,.3-.6,3.9-1.2,4.5-.8s3.2,4.2.9,3.6l.2.5c3.6-.5,7.9,3.2,10.7,2.8s2-1,1.5,0h0c-1,0-1.7.5-2.7.4s-4.4-1.9-6.1-2.4c-4.3-1.2-8.5.4-12.8.8s-3.4-.2-4.5,0v-.6c1.7.4,6.7,0,8.6-.4,1.9-.5,1.2-.6,2.1-.3l-.5-.8c1.6,0,1.5-.3,2.7-.7s.7.3,1,0-.1,0,0-.2c-.4-.8-.5-1-1.2-1.4-2.2-1.3-4.6-.5-4.5,2.3.4,0,.8,0,1.3,0-1.3.7-2.1.8-1.9-.9,0,0,0-.6.1-.8Z"/>
        <g>
          <path class="st13" d="M-121.6,29.5c1.7,1.6,2.3,3.8,3.5,5.7,0,0,0,0,0,.6-1.9.7-2.2,0-3.2-.4-1-1.4-1.2-3.6-.9-5.3s0-.9.8-.6h0Z"/>
          <path class="st27" d="M-122.7,29c-.7,2-.6,5.5,1.5,6.5s2,.3,3,.3c0,0,0,.2,0,.3l-2.1.7c-1.1,0-3.3,1.4-4.2,2.1v-.6c1.3-1.2,1.1-1.5,1.1-3.1s-.3-3.3,0-4.9c.3-.7,0-.9.8-1.4h0Z"/>
          <path class="st22" d="M-123.4,35.2c-.6.4-.5,1.6-1.4,1.7,0-1.7.6-5,1.3-6.5,0,1.6.2,3.3,0,4.9h0Z"/>
          <path class="st16" d="M-121.6,29.5c-.6-.3-.6,0-.7.6-.3,1.7,0,4,1.1,5.4-2.1-1.1-2.2-4.6-1.5-6.5v-.3c.5,0,.7.5,1,.8h0Z"/>
          <path class="st25" d="M-123.4,35.2c0,1.6.2,1.9-1.1,3.1-.2-.7-.3-.6-.3-1.4.9,0,.8-1.3,1.4-1.7Z"/>
          <path class="st42" d="M-118.3,36.1c0,.2-.2.5-.3.7h-1.9s2.3-.7,2.3-.7Z"/>
        </g>
        <g>
          <path class="st22" d="M-108.3,50.3c-.2.4-1.6,1.2-2.1,1.4-5.1,2.5-9.2.8-14.1.7s-5.5,1-8.3,1c-1.9-.4-2.2-1.5-2.9-3.1.4,0,.4-.7.7-1s.5-.3.6-.3c1.1-.2,3.2,0,4.5,0,4.3-.4,8.5-2,12.8-.8s4.6,2.2,6.1,2.4,1.7-.4,2.7-.3Z"/>
          <path class="st38" d="M-124.3,49.6c.2.4-1.2,1.1-1.5,1.3-2.4,1.3-5.5,2.2-8.1,1.2,1.8,0,3.5,0,5.2-.3s3.2-1.4,4.5-2.1h-.1Z"/>
          <path class="st21" d="M-133.1,50.1h.6c-1.4.5,2.2.6,2.9.8-1.3.3-2.6,0-3.8-.3.2,0,.4-.4.4-.4h-.1Z"/>
          <path class="st21" d="M-133.2,49.7c.8,0,1.9,0,2.6.3-.8,0-1.9,0-2.6-.3Z"/>
        </g>
        <path class="st27" d="M-113.7,64.2c1,1.3,1.9,2.9,2.8,4.3-1.2-.8-2.1-1.5-3.2-2.5,1.6.3-.4-1.2-.6-1.6s0-.5-.3-.9c.8-.7.8,0,1.3.7Z"/>
        <path class="st36" d="M-111.1,53.6c-.5.9-1,2.3-1.1,3.4,0-.1-1.4-1.9-1.6-1.8,0,1.1-.2,2.1,0,3.1l-1.1-.3c-.6.3.9,4,1,4.5s.4,1.5.3,2.3c-.4-.6-.5-1.5-1.4-.8-.3-.9-1.1-2.4-1.4-3.2s.3-.2.3-.3c-.1-.5-1.5-3.7-1.5-3.9,0-.4,1.3-.5,1.4-.6s-.4-.8.2-1c1.3,1.3.4.4,1.1-.6,1.2,1.4,1.2,0,1.8-.4s1.3,0,1.5-.9l.5.6h-.1Z"/>
        <path class="st25" d="M-113.8,58.2c0,.5.2,1,.3,1.5.3,1.2.8,2.3,1.1,3.5-.6,0-1.4-1.9-1.9-1.1,0-.5-1.4-3.8-.5-4.2,0,0,1,.3,1,.3Z"/>
        <path class="st35" d="M-112.2,56.7c.1.5,0,2.9-.4,2.6l-.6-.9v1.5c.2,0-.5,0-.5,0-.1-.6-.2-1.2-.4-1.8,0-1.2.2-1.9.2-3.1.2-.2,1.4,1.4,1.6,1.7h0Z"/>
        <g>
          <path class="st46" d="M-111.3,40c-.2.6-.3,1.5-.8,1.8.9-3.9,1.3-7.4-.5-11.2-.6,0-4.4,3.2-4.9,3.9,1.2-2.2,3-4.3,5.5-5.2,1.3,3.8,2,6.7.8,10.6h0Z"/>
          <g>
            <path class="st22" d="M-112.2,41.9c0,.5-.2,1-.3,1.5-.7-.6-1.2-1.4-2.1-2.1-1.2-1.5.9-2.2,1-2.4,0-.3-.8-.6.3-.7l-1-.4c.3-.4.6-.4,1.1-.3l-1.1-.4,1-.6h-.8c0,0,.7-.6.7-.6-.2-.6-1.4.4-1.5,0,.4-.5,1-.6,1.7-.7-.2-.4-.9-.3-1.3,0,0-.4.5-.5.7-.6-.4.2.6.2.6,0,0,0-.5,0-.6,0,.2-.2.9-.4.8-.7l-1.3.5c0,0,1.8-.9,1.2-1.2l-2,1h.7c0,0-1,.6-1,.6h.8l-1.6.8h1.3c0,0-1.1.7-1.1.7,1.7,0,.3,0,0,.9l1-.2-1.3,1,.9-.5-.3.6,1.2-.2c-1.2.5-1.6,1.1-1.3,2.4-.9-.7-2.1-1.5-3.2-1.9,0,0,.3-1.5.4-1.7s.2-.5.3-.7,0-.2,0-.3c.2-.4,0-.5,0-.6,0,0,.4-.5.6-.7.5-.7,4.4-3.9,5-3.8,1.7,3.8,1.4,7.2.5,11.2h-.1Z"/>
            <path class="st1" d="M-113.8,34.7c-.2,0-.7.2-.7.6.3-.2,1-.3,1.3,0-.6,0-1.2.2-1.7.7,0,.2,1.3-.7,1.5,0l-.7.4h.8c0,0-1,.7-1,.7l1.1.4c-.5,0-.8-.2-1.1.3l1,.4c-1.1,0-.2.4-.3.7s-2.1.9-1,2.4c-.4-.3-.8-.7-1.3-1-.4-1.4,0-1.9,1.3-2.4l-1.2.2.3-.6-.9.5,1.3-1-1,.2c.2-.8,1.6-.9,0-.9l1.1-.6h-1.3c0,0,1.6-.9,1.6-.9h-.8l1-.5h-.7c0,0,2-1.2,2-1.2.6.3-1.1,1.1-1.2,1.2l1.3-.5c0,.3-.5.5-.8.7v.2Z"/>
            <path class="st46" d="M-113.3,32.2c.4.2-.8,1.9-1.4,1.5l1.4-1.5Z"/>
            <path class="st1" d="M-113.8,34.7h.6c0,.2-1,.2-.6,0Z"/>
          </g>
        </g>
        <g>
          <path class="st46" d="M-121.5,44.6l1.1,1.7c-.4.3-.6,0-1,0-1.2.4-1.1.7-2.7.7s-.4,0-.6,0h-1.3c0-2.8,2.2-3.6,4.5-2.3Z"/>
          <path class="st41" d="M-120.4,46.3l-1.1-1.7c.7.4,1,.5,1.4,1.3-.2,0,0,.2-.3.3h0Z"/>
          <path class="st33" d="M-121.8,45.1l.6.8c-1.5,1-2.3.9-4,.4l.3-.9c.5,1.6,3.1,1.5,3.1-.3Z"/>
          <path class="st3" d="M-124.2,44.6c.7-.2.5.9,0,1s-.6-.9,0-1Z"/>
          <path class="st22" d="M-123.4,44.4c.3,0,.5.4.3.6s-.7-.5-.3-.6Z"/>
        </g>
      </g>
    </g>
  </g>
  <g id="Generative_Object2" data-name="Generative_Object">
    <g>
      <g>
        <path d="M30.8,18.6l5.8,9.1h-1.2c0-.1,2,5.9,2,5.9h-.2c0,.1-1.4-2.3-1.4-2.3l.5,6.6-3.7-3.3,1.2,2.6-1.4-1.4.2.9c-.5-.5-1-1-1.3-1.6-3-4.8-2.7-12.6-2.8-18.1.9.4,1.5,1,2.3,1.6Z"/>
        <path class="st36" d="M31.4,35.1c.4.6.8,1.1,1.3,1.6l-.2-.9,1.4,1.4-1.2-2.6,3.7,3.3-.5-6.6,1.4,2.4h.2c0-.1-2-6.1-2-6.1h1.2c0,.1-5.8-9-5.8-9,4,3.1,6.7,7.3,9.5,11.5,0,.3-.1.1-.3,0-.3-.2-2.2-2-2.5-1.5,1.3,2,2.6,4.1,3,6.4l-2.2-2.3c.2.3,2.3,3.7,1.9,3.8,0-.2-.8-1.6-1-.9s1,3.4.6,4c-.4-.2-.5-1.3-1-.8.3.7-.9,4.4.5,2.8l-.2,2.2c.4,0,1.1-1.5,1.1-1,.2,1.2-2.3,3.6-3,4.7l-7.3-12.7c0-.5,1.1,1.2,1.3.2Z"/>
      </g>
      <g>
        <path class="st24" d="M94.2,20.6c-2.4,1.9-4.7,4.3-6.6,6.7s-3.9,5.2-4.6,8.3c-.6,1.1-.8.5-2,.8-.7-.5-1.1-1.4-2.3-1.3,2.9-3.5,5.9-7.1,9.3-10.1s4-3.4,5.5-4.3.5-.3.7,0Z"/>
        <g>
          <path d="M97.8,35.2c-.4.6-1.9,1.9-2.7,1.7l1.1-3.5-3.7,5.2,1.5-6.8c-.3-.6-2.1,2.2-2.4,2.2l2-6.3c0-.4-1.3.2-1.5.4,2-3.3,3.7-6.7,6.3-9.6.2-.1,2-1.6,2.2-1.3,0,4.2,0,8.7-.9,12.7s-1.3,4.4-1.9,5.3Z"/>
          <path class="st36" d="M97.8,35.2c.1.9,1.3-.9,1.3-.3-2.3,3.8-4.2,8.7-6.9,12.2s-.3.5-.6.3c-.1-.2-.4-.5-.5-.6-.8-1.3-1.9-2.2-2.2-3.7l1.1.9-.2-2.1c.3,0,.5.6.8.2l-.3-3.1c-.2-.3-.6,0-.9.1-.3-.7.7-3,.6-3.3-.1-.8-1.1.7-1.1,1.1,0-1.4,1.4-2.9,2-4.2l-2.5,2.6c.3-2,1.4-3.6,2.4-5.3.8-.4.6-1.2,1.3-1.7s1.4-.7,1.5-.4l-2,6.3c.2,0,2.1-2.7,2.4-2.2l-1.5,6.8,3.7-5.2-1.1,3.5c.8.3,2.3-1.1,2.7-1.7Z"/>
          <path class="st19" d="M92.2,28.1c-.7.5-.5,1.4-1.3,1.7.2-.3.5-.7.6-1-.5-.6-3.1,1.8-3.1,1.6,3-4.2,5.8-8.8,10-11.9-2.6,2.9-4.2,6.3-6.3,9.6Z"/>
          <path class="st39" d="M82.9,35.6c.7-3.1,2.7-5.9,4.6-8.3-2.1,2.6-3.2,5.4-4.6,8.3Z"/>
        </g>
      </g>
    </g>
    <path class="st40" d="M79.4,51.5c-2.9.2-4.2,1.5-5.7,3.8s-1.7,2.6-2.3,4.3-2.1,5.2-.3,4.7.5-1.2.8-1.3c.8-.3,1.4.8,2,1,1.6.3,3.6-.9,5-1.7s2.1-1.8,2.1-1-1.8,1.7-2,2v.2c.1,0,3.3-1.5,3.3-1.5-2.6,2.4-6.5,2.4-9.8,3-.1,2.4-.4,5,.8,7.2-.2.4-.4.9-.5,1.3l-2.4-7-.9,7.8c-.2-1.5-.4-3.1-.5-4.6-.5-8.7.8-14.3,6.8-20.7-.2.4-1.3,2.6-.9,2.9l4.2-4-1.6,3c1.7.1,3.4-.1,4.9,1-1,.1-1.8-.2-2.8-.2Z"/>
    <path class="st46" d="M79.7,53.6c-.7,0-1.4.3-2,.8,0,.1.4.2.6.5-1.6-.9-2,1.7-.8,2s1.2-.2,1.2,0c0,.9-.4,1.7-1.1,2.3-1.5.7-2.4-.3-2.9-1.6,0-.4,0-.8,0-1.2-.6.7-.9,2.2-.4,3s1.4,1,1.6,1c2.8.8,5.1-3.4,4-5.7l-.2-1.1Z"/>
    <path class="st46" d="M82.2,56.2c0,.4-1.2,3-1.5,3.4-1.9,3-5.9,2.8-9,2.4.6-2,1.1-4.7,2.3-6.4s4.8-4.5,7.2-3c.5.6,1.2,1.3,1.2,2.2,0,0-.2,1-.3,1.5Z"/>
    <path class="st14" d="M81.2,52.6c-2.4-1.5-5.9,1-7.2,3l-.3-.3c1.5-2.2,2.8-3.6,5.7-3.8l1.8,1.1Z"/>
    <path class="st3" d="M78.3,54.8c1,1.3.8,3.4-.5,4.3h-.1c.6-.7,1.1-1.4,1.1-2.3,0-.2-.9.2-1.2,0-1.2-.4-.8-2.9.8-2Z"/>
    <g>
      <path class="st33" d="M79.9,54.6c1.1,2.4-1.2,6.5-4,5.7s-1.5-.9-1.6-1c-.5-.8-.2-2.3.4-3,0,.4,0,.8,0,1.2.3,1.6,1.5,2.6,3,1.6s1.6-3.1.5-4.3-.7-.3-.6-.5c.5-.4,1-.6,1.5-.7l.7,1Z"/>
      <path class="st6" d="M82.3,54.7c0-.8-.5-1.5-1.1-2.1l-1.8-1.1c1,0,1.9.3,2.8.2-1.5-1.1-3.1-.9-4.9-1l1.6-3-4.2,4c-.4-.3.7-2.5.9-2.9.2-.2.8-.5.7-.9l-.7.9c-6,6.4-7.3,12-6.8,20.7h-.5c0,0,.4,6.3.4,6.3-.4-.2-.5-1.8-1.3-1.2,1.3.1,1.1,6.6.8,6.7h-7.2l-1.1-7c1-6.7,1.3-17.9-2.2-23.9s-1.3-1.8-2.1-2.5c-.2.4.3,1,.4,1.5s0,1,0,1.3c-1-1.2-1.9-3.2-3.7-3.1l2.4,2.7c0,.2-2.9-1.4-3.3-1.6-1.9-.7-7.6-1.3-6.4-4.2s3-3.2,3.6-3.9,3.2-4.9,3.1-5.3c-2.3-1.5-3.8-4-5.7-6-2.9-3-6-6-9.4-8.4s-1.7-1.4-2.1-1c-1.8-1.4-3.9-2.5-5.7-3.7,1.1-1.5,4.3.3,5.7,1,6.7,3.5,12.4,9.7,17.5,15.2,8.3-2.2,17.5-2.2,25.8,0,4-4.4,8.1-8.8,12.9-12.3s7.4-4.9,9.2-4.6,1.2.6.9,1-5.1,3.1-6.3,4c-.2-.3-.5-.1-.7,0-1.5.9-4.1,3.1-5.5,4.3-3.4,3-6.4,6.5-9.3,10.1,1.2,0,1.6.9,2.3,1.3s4.2,3.1,3.8,3.6l-.9.4c2,.6,3.3,2.4,4.2,4.1l.4-.5,2.6,2.8c.1.2.4.4.5.6,1,1.9,3.7,7.6,4.3,9.6s.9,5.1-.4,6.8c-1.1.3-2-2.5-2.4-3.2.1,1.9-.5,4.9-2.9,4.6-6.3-.7-13.7.7-17,6.9-1.2-2.2-.9-4.8-.8-7.2,3.3-.6,7.2-.7,9.8-3l-3.2,1.5v-.2c0-.3,1.9-1.9,1.9-2,0-.7-1.8.9-2.1,1-1.3.8-3.4,2.1-5,1.7s-1.2-1.3-2-1-.3,1.2-.8,1.3c-1.8.6,0-4,.3-4.7.6-1.6,1.3-2.8,2.3-4.3l.3.3c-1.2,1.7-1.7,4.4-2.3,6.4,3,.4,7.1.6,9-2.4s1.2-3,1.4-3.8.3-.5.2-1.2Z"/>
      <path class="st20" d="M60.9,32.5c3.1-.2,8.6-.3,11.4.4,5.1,1.3,9.4,6.9,12.2,11.1-1.8-2-3.6-4.1-6-5.4l2.5,4.9c-4.1-3-9.3-4.9-14.1-6.3.5-.5.8,0,1.2.1,1.2.2,2.4.2,3.6.2-2.1-1.3-5-1.7-7.4-1.9s-8.7,0-10.1-.5-.6-.4-.5-.8c.3-1.2,6.2-1.6,7.3-1.7Z"/>
      <path class="st26" d="M77.7,59.2h.1c-1.5,1-2.7,0-3-1.6.5,1.3,1.5,2.3,2.9,1.6Z"/>
      <path class="st40" d="M75.6,48.8l.7-.9c0,.4-.5.7-.7.9Z"/>
    </g>
    <path class="st39" d="M72.7,73.4c-1,2.8-1,6.2-1,9.2l-.3.4c0-1-.7-1.9-1-2.8-.5-1.8-.8-4.2-1.1-6l.9-7.8,2.4,7Z"/>
    <g>
      <path class="st8" d="M59.9,74.4c-.5,3.2-1.2,6-2.2,9.1,0-.2-.2-.4-.2-.5,0-4.4,0-9.2-2.9-12.8s-7.9-4.9-12-5.1-4.2.3-4.7.1c-1.3-.5-1.9-3.3-1.7-4.5-.3,1-2,4.9-3,2.3s-.2-4.2.1-5.9c2.5-4.4,3.7-9.5,7.6-13.1.3,1.2.8-.4,1.1-.9.9-1.1,2-2.4,3.5-2.6,0-.3-.8-.4-.9-.5-.3-.4,3.2-3.3,3.8-3.5-2.6,0-1.8-.5-2.7-2.4-2.5-5.3-6.7-10.4-11.3-14,.4-.4,1.7.7,2.1,1,3.4,2.4,6.6,5.3,9.4,8.4s3.4,4.5,5.7,6c0,.4-2.7,4.7-3.1,5.3s-3.5,3.6-3.6,3.9c-1.1,2.9,4.6,3.4,6.4,4.2s3.2,1.7,3.3,1.6l-2.4-2.7c1.8,0,2.7,1.9,3.7,3.1,0-.4.1-1,0-1.3s-.6-1.1-.4-1.5c.8.8,1.6,1.6,2.1,2.5,3.5,6,3.1,17.2,2.2,23.9Z"/>
      <g>
        <path class="st46" d="M47.6,57.8c-.1-.4-.3-1.6-.4-2l2.1-1.1c-.1,1.1-.2,1.7,0,2.8,1.2,4.6,7.6,3.4,5.2-1,0,.4,0,.8-.2,1.2-2.1,4.5-5.8-.9-2.8-3.2-1.4-1.2-3.4-1.1-4.6.2,0,0-.2,0-.2-.2s.7-1.2.8-1.3c2.3-2.8,6.8.8,8.1,3.1s2.2,5.7,1.8,6c-4.4.1-8.1.3-9.8-4.4Z"/>
        <path class="st14" d="M47.6,57.8c1.7,4.7,5.4,4.6,9.8,4.4.4-.3-1.4-5.3-1.8-6-1.3-2.3-5.8-5.9-8.1-3.1,0-2.8,4.6-1,6-.1,2.2,1.5,5.7,7.4,5,10s-.2.3-.3.5c-1.2-1.3-1.8-.4-3.2-.3-3.9.2-7.9-1.6-8.7-5.7l1.3.3Z"/>
        <path class="st33" d="M51.6,54.4c-1.1.5-1.4,1.6-1.3,2.7l-1,.3c-.3-1.1-.2-1.7,0-2.8l-2.1,1.1c0-.3-.2-.7-.2-1.1,1.3-1.3,3.2-1.4,4.6-.2Z"/>
        <path class="st33" d="M49.3,57.4l1-.3c.2,2.8,3.5,3.5,4.1.5s.1-.8.2-1.2c2.4,4.4-4,5.6-5.2,1Z"/>
        <path class="st25" d="M51.6,54.4c-3,2.3.7,7.7,2.8,3.2-.6,3-3.9,2.2-4.1-.5s.2-2.2,1.3-2.7Z"/>
      </g>
    </g>
    <g>
      <path class="st3" d="M57.5,82.9c-.5-1.4-1-2.8-1.4-4.3.3,0,.3-1.1.3-1.3.2-4.7-1-6.6-5.1-8.7.5,1.4-.6.6-1.6.8,1.6.8-1.1.3-1.6,1.1l2.2.3.3.3c-.7-.3-1.6,0-2.3.2,1.9.5,4.1,1.2,5.3,2.8s.5.6.3.6l-4.3-1.3c1.6,1,3.4,2.6,4.4,4.3s.1.5.2.6c-1-.3-2.1-1.4-3-1.8s-.1.2-.2.1c-.6-.3-1.5-1.1-2.2-1,.9.5,2.1,1.3,2.9,2s.3.6.5.8c0,0,0,0,0,.1l-6.2-1.8,3.3,3.5c-.1.2-2.8-1.8-3.2-2-2.6-1.5-9.9-4.4-12.7-3.8s-3.3,1.6-4.3,2.6c.3-1.3,1.5-2,2.6-2.6.2.3-.3.4.3.4l1.6-.8c-.9-.1-1.7,0-2.5,0s-1.3.1-2,.2l-2.3.7c1.1-.6,1.8-2.1,2.8-2.9s2-1.1,2-1.2c.5-.8-2.8-.2-3.1-.1-.8.3-1.5,1-2.3,1.3,1-1.4,2.6-2.7,3.5-4.2s2.6-5.7,2.6-6.7,0-.3,0-.4c-.8,1.9-2.9,3.1-4.9,3,2.5-1.8,4.4-4.1,5.9-6.7-.3,1.7-.7,4.2-.1,5.9.9,2.6,2.6-1.3,3-2.3-.2,1.2.5,4.1,1.7,4.5s3.7-.2,4.7-.1c4.1.2,9.3,1.8,12,5.1s3,8.4,2.9,12.8Z"/>
      <path class="st22" d="M97.2,61.1c0,0-.1-.4-.2-.3,0,.2.1.4.1.4.2,2,2.1,6.3,3.3,7.9s1.9,1.9,2.6,2.9l-2.8-1.5-2.6-.2,4.7,4.6c-1.4-.7-2.8-.8-4.3-1s-7.2-.7-7,0,.7,0,.5.4c-4.6.8-9.4.9-13.8,2.6,0,0,0-.1,0-.2.5-.5,3.3-3.5,3.5-3.9.4-1.5-1.4-.4-2.3-1,.4-.4.9-.8,1.3-1.2.9-.3,1.8-1.3,2.9-1.5-1.4,0-2,.6-2.9,1.5-.9.3-2,.3-2.9.6.8-.9,1.7-1.8,2.8-2.3-5.5.7-8.7,4-7,9.8-.4,1.5-.9,2.9-1.4,4.3v-.3c0-3,0-6.3,1-9.2s.3-.9.5-1.3c3.3-6.2,10.7-7.6,17-6.9s3-2.8,2.9-4.6c.3.7,1.3,3.5,2.4,3.2,1.3-1.7,1-4.8.4-6.8,1.6,2.5,3.5,4.9,5.9,6.7-2.2,0-3.5-.9-4.6-2.6Z"/>
      <path class="st19" d="M98,73.9c-.3,0-.7,0-.6.3,0,0-1.3,0-1.1.2.9.4,2.8,1.2,3.4,1.9s.7.9.3,1.3c-7.8-3-17.9-.5-23.4,5.9-4.7,5.5-3.8,10.9-12.7,10.6-6.7-.2-6.3-3.4-9.3-7.9s-2.8-3.5-4.2-5c1.8,1.4,3.9,4,5.3,6.1s1.3,2.8,1.5,2.9.7-.4.7-.5c0-.2-.6-.5-.1-.5.4.4,3,2.8,3.3,2.9.6.1,1.3-.3,1.8-.3,1.1,0,2.4,0,3.6,0s1.1.4,1.7.3c1-.2,4.3-4,4.8-5l2.7-3.4c0-.5-1.6.7-1.7.7,0-.2,0-.8,0-1,.5-1.6,2.5-3.8,3-5.2l1.8-1-1.4.4c0,0,.4-.7.4-.8,4.4-1.7,9.2-1.8,13.8-2.6.2-.4-.5-.3-.5-.4-.2-.7,6.5,0,7,0Z"/>
      <path class="st31" d="M52.3,78.4c.7,1.6,2.2,3.5,3,5.1,0,.5,0,.9.1,1.3l-2.6-1.6c1.4,1.3,2.4,2.8,3.6,4.3s.9,1.3,1.3,1.7c-.5,0,.2.3.1.5s-.7.5-.7.5c-.2,0-1.2-2.5-1.5-2.9-1.3-2.1-3.5-4.7-5.3-6.1-5.8-4.5-14.2-6.2-21.2-3.6-.2-.1,0-.7,0-.9,1-1,2.9-2.3,4.3-2.6,2.8-.6,10.1,2.3,12.7,3.8s3.1,2.2,3.2,2l-3.3-3.5,6.2,1.8Z"/>
      <path class="st3" d="M97.4,74.3c.6.1,2.2,1.4,2.3,2.2-.6-.7-2.5-1.6-3.4-1.9-.2-.2,1.1-.2,1.1-.2Z"/>
      <path class="st19" d="M31.8,74.3c-.1-.2-.4-.4-.6-.3.9,0,1.7-.1,2.5,0l-1.6.8c-.5,0,0-.2-.3-.4Z"/>
      <path class="st29" d="M97.2,61.1h-.1c0,0-.2,0-.1-.3,0-.1.2.2.2.3Z"/>
      <path class="st13" d="M56.1,78.6c.4,1.5.9,2.9,1.4,4.3s.2.4.2.5.3,1,.2,1.2c-.3-.4-.4-.9-.6-1.4-.4-1-.8-2.4-1.1-3.5s-.7-2.4-.6-3.4c.2.7.3,1.5.5,2.2Z"/>
      <path class="st2" d="M56.1,78.6c-.2-.7-.4-1.5-.5-2.2,0,1,.4,2.4.6,3.4h-.5c.4.4,0,.7.1,1l-1.7-3.2c-1-1.6-2.8-3.3-4.4-4.3l4.3,1.3c.3,0-.2-.6-.3-.6-1.2-1.6-3.4-2.3-5.3-2.8.7-.1,1.6-.5,2.3-.2l-.3-.3-2.2-.3c.4-.8,3.2-.3,1.6-1.1,1-.2,2.1.6,1.6-.8,4.1,2.1,5.4,4,5.1,8.7s0,1.3-.3,1.3Z"/>
      <path class="st46" d="M76.9,78.3c-.5,1.4-2.6,3.7-3,5.2s0,.8,0,1c-.3.9-.5,1.8-1,2.7s-3.8,4.8-4.8,5-1.2-.3-1.7-.3c-1.1,0-2.4,0-3.6,0s-1.2.5-1.8.3-2.9-2.5-3.3-2.9-.9-1.2-1.3-1.7c-.1-.7-.8-1.5-1-2.1s0-.4,0-.6c-.1-.5-.1-.9-.1-1.3-.8-1.7-2.3-3.5-3-5.1s0,0,0-.1c0,0,0-.1.1-.1,0,.3.4.5.5.8.9,1.4,1.6,3,2.7,4.2.3.8.9,1.4,1.1,2s.3.7,0,.6l-.9-1.3c.4,1.4,3.8,6,4.9,6.5,1.8.8,3.1-1.1,4.1-1s1.8,1.4,3.1,1.2,3.5-3.2,4-3.9,1-1.8,1.4-2.7c-.4-.2-1.1,1.6-1,.5.1-.4,1.1-1.3,1.2-1.6.2-.6,0-1.6.1-2.1l.3,1.2c.9-1.6,1.9-3.1,2.9-4.6,0,0,0,.2,0,.2Z"/>
      <path class="st19" d="M54.2,78.1c.4.7.7,1.3,1,2-.2,0-.2.1-.2.1-.9-.6-1.8-1.5-2.6-2.3s-.5-.5-.6-.9v.3c-.8-.7-2-1.6-2.9-2,.6,0,1.5.6,2.2,1s.2-.1.2-.1c.9.5,1.9,1.5,3,1.8Z"/>
      <path class="st1" d="M55.8,80.7c.2.9.8,2.1,1.1,3,0,.7.5,2.4,1.1,2.9-.7.1-.8-1.1-1-1.5-.6-1.8-1-3.2-1.7-5s-.6-1.4-1-2-.1-.5-.2-.6l1.7,3.2Z"/>
      <path class="st37" d="M52.4,78h0c0,0-.1.1-.1.2-.2-.2-.3-.5-.5-.8v-.3c.2.3.4.6.6.9Z"/>
      <path class="st19" d="M80.2,70.5c-.4.4-.9.8-1.3,1.2.8.6,2.6-.5,2.3,1s-2.9,3.5-3.5,3.9c-1,.9-1.9,1.4-3,2.2.2.4,2.1-1,2.2-1.2.1,0,0,.3,0,.4-1.1,1.5-2,3-2.9,4.6l-.3-1.2c0,0,.7-.8.9-.9l-.8.2c.7-1.7,1.4-3.4,2.2-5.1-.1-.3-.5.6-.5.6-.5,1.1-1,2.3-1.4,3.4-.5-.1-.7.6-.8.5v-.8c.2-.9.6-2,.5-3-.2.7-.3,1.5-.5,2.2-1.6-5.7,1.5-9.1,7-9.8-1.1.5-2,1.4-2.8,2.3.9-.3,2-.3,2.9-.6Z"/>
      <path class="st13" d="M73.1,79.3c-.4,1.3-.8,3.1-1.3,4.3s-.3,1-.6,1c.2-.6.3-1.2.5-1.8.5-1.5,1-2.8,1.4-4.3s.4-1.5.5-2.2c.1.9-.3,2-.5,3Z"/>
      <path class="st16" d="M77.8,76.8s-.4.7-.4.8c0,0-.4.3-.4.4,0-.1.2-.4,0-.4-.1.3-2,1.6-2.2,1.2,1.1-.8,2-1.3,3-2.2,0,0,0,.2,0,.2Z"/>
      <path class="st19" d="M80.2,70.5c.9-.8,1.5-1.5,2.9-1.5-1.1.1-2,1.1-2.9,1.5Z"/>
      <path class="st3" d="M72.9,87.2c.5-.9.7-1.8,1-2.7.1,0,1.8-1.2,1.7-.7l-2.7,3.4Z"/>
      <path class="st3" d="M76.9,78.3c0,0,0-.2,0-.2,0,0,.4-.3.4-.4l1.4-.4-1.8,1Z"/>
      <path class="st3" d="M55.4,84.8c0,.2,0,.4,0,.6.2.6.9,1.4,1,2.1-1.2-1.4-2.2-3-3.6-4.3l2.6,1.6Z"/>
      <path class="st22" d="M74,79.5c-.8,1.9-1.5,4.5-2.5,6.1,0-.4,1.1-1.9.3-2,.5-1.3.9-3,1.3-4.3v.8c.1,0,.4-.7.9-.5Z"/>
      <path class="st38" d="M73.8,80.6c-.5,1.4-1,3.1-1.5,4.3s-.4,1.2-1.1,1.3c0-.3.2-.4.3-.6,1-1.6,1.7-4.3,2.5-6.1s.9-2.3,1.4-3.4.4-.9.5-.6c-.8,1.7-1.5,3.4-2.2,5.1Z"/>
      <path class="st3" d="M56.2,79.8c.3,1.1.7,2.4,1.1,3.5-.5,0-.4.1-.4.5-.3-.9-.9-2.1-1.1-3s.3-.5-.1-.9h.5Z"/>
      <path class="st22" d="M55.2,80.2c.8,1.8,1.1,3.2,1.7,5h-.2c-.2-.6-.8-1.2-1.1-2s0-.3-.1-.3c.1-.6,0-1.1-.2-1.5s-.3-.5-.3-1c0,0,0-.2.2-.1Z"/>
      <path class="st3" d="M73.7,81.4c-.1.5.1,1.5-.1,2.1s-1.1,1.1-1.2,1.6c0,0-.1,0-.1-.1.6-1.3,1-3,1.5-4.3l.8-.2c-.1.2-.8.8-.9.9Z"/>
      <path class="st19" d="M55,80.3c0,.4.2.7.3,1,0,.5,0,1,.2,1.5s0,.2.1.3c-1.1-1.2-1.8-2.8-2.7-4.2.6,0,1.3,1.7,2,1.4Z"/>
      <path class="st43" d="M55,80.3c-.7.3-1.4-1.5-2-1.4-.1-.2-.5-.4-.5-.8h0c.8.7,1.7,1.5,2.6,2.2Z"/>
      <g>
        <path class="st9" d="M68.8,69.5c0,1.6.3,3.1.5,4.6s.6,4.2,1.1,6,.9,1.8,1,2.8l.3-.4v.3c-.2.6-.3,1.2-.5,1.8.3,0,.6-.8.6-1,.8.1-.3,1.6-.3,2-.1.2-.4.3-.3.6.6-.2.8-.8,1.1-1.3,0,.1.1.1.1.1-.1,1.1.6-.6,1-.5-.4.9-.8,1.9-1.4,2.7s-3.3,3.8-4,3.9c-1.3.2-2.5-1.1-3.1-1.2-1-.1-2.3,1.8-4.1,1s-4.5-5.1-4.9-6.5l.9,1.3c.3,0,.1-.5,0-.6h.2c.1.4.3,1.6,1,1.5-.6-.5-1.1-2.1-1.1-2.9s0-.6.4-.5c.2.5.3,1,.6,1.4.1-.2,0-1-.2-1.2,1-3,1.7-5.9,2.2-9.1l1.1,7h7.2c.3-.1.5-6.6-.8-6.7.8-.6.9.9,1.3,1.2l-.4-6.4h.5Z"/>
        <path class="st12" d="M68.5,86.7c-.4.9-.9.8-1.5,1.2s.2.2.1.3c-.4.5-4.5.4-5,0s0-.3,0-.3c-.7-.4-1.1-.5-1.5-1.3,0-.3.2.3.2,0s0-1.5.8-1.3,1.8,3,2.2,3,.3-.3.3-.3.3.3.4.3.3-.2.5-.2.3.3.3.3c.3,0,1.3-3.4,2.6-3s0,1.1.5,1.3Z"/>
        <g>
          <path class="st4" d="M68.5,86.7c-.4-.2.2-1.1-.5-1.3-1.3-.4-2.2,3-2.6,3s-.3-.3-.3-.3c-.3,0-.5.2-.5.2-.1,0-.4-.3-.4-.3s-.3.3-.3.3c-.4,0-1.4-2.9-2.2-3s-.8.9-.8,1.3-.1-.2-.2,0c-.4-.9-.4-3.3.5-3.9s7-.5,7.3.2c-.5,1.4.7,2.3.1,3.7Z"/>
          <path class="st42" d="M64,82.7c.8,0,3.6,0,2.8,1.2-.7-.4-4.5.6-4.7-.3s1.5-.9,1.9-.9Z"/>
        </g>
      </g>
      <path class="st29" d="M55.5,82.8c-.1-.5-.2-1-.2-1.5.1.4.4.9.2,1.5Z"/>
    </g>
  </g>
  <g id="Generative_Object3" data-name="Generative_Object">
    <path class="st0" d="M-285,63.9c.8,0,2,.2,2.7-.3-.9,0-1.9-.4-2.7-.6v1Z"/>
    <g>
      <path class="st10" d="M-237.3,98.5l.8.2c.7-1.9,2.2-3.3,3.1-5.1,2.2-4.2,3.1-9.1,2.7-13.8l1.9,4.3c.4-2.3.6-4.6.5-6.9s-1.9-6.5.2-9.3c-3.7,1.8-6.2,5.4-7.1,9.4.5-7.6,5.9-13.5,14.1-12.9,3-.6,9.2.8,12.6,1s10.3-.1,13.2-3.7.8-1.1.7-1.4c-3.7,3.2-12.9,2.9-17.4,1.7s-7.2-3.4-10.9-2.6c3.5-1.7,7.5.7,10.9,1.7s7.5,1.5,11.4.9,6.6-1.2,6.4-4.2c-1.9.9-4.1-1.2-3-3-3.6.6-7,1.7-10.7,1.5s-10.3-3.2-15.5-3.6c-10.8-.8-24.3,6.2-26.6,17.1,1.1-2.5,3-4.5,5.2-6.2l2.4-1.2c-4.8,3.3-7.1,9.2-6.4,14.9l1.3-3.2,1.5-2c-1.4,3-1.2,6.4-.7,9.6l1.5-5.1v8.8c0,0,2.1-4.7,2.1-4.7l-2,10.1c1.6-1.3,2.6-3.5,3.4-5.5-.3,3.8-1.1,7.6-2.7,11,1.8-1.4,3.2-3.3,4.2-5.3-.1,1.5-.7,3.3-1.2,4.7-1.3,3.6-3.3,7.2-6.1,9.9,5.1-2.1,9.5-6.9,10.7-12.2.3,1.6.2,3.8-.4,5.3Z"/>
      <path class="st30" d="M-236.5,98.7l-2,4.5c4.8-4.4,8.6-10.2,8.9-16.8.8,2.4.4,5.2-.4,7.6,3.4-6,4.8-13.3,3-20l1.3,2,1,3.1c.2-3.5-1.1-13.8,3.7-14.8-8.2-.6-13.6,5.3-14.1,12.9.9-3.9,3.3-7.6,7.1-9.4-2.2,2.8-.4,6.1-.2,9.3s-.1,4.6-.5,6.9l-1.9-4.3c.4,4.7-.6,9.6-2.7,13.8s-2.4,3.2-3.1,5.1Z"/>
      <path class="st15" d="M-192.3,52.7c-1.4-.2-4.2.7-4.9,1.9-1.1,1.8,1.1,3.9,3,3,.2,2.9-4,3.8-6.4,4.2-3.9.6-7.7.2-11.4-.9s-7.4-3.4-10.9-1.7c3.7-.8,7.3,1.7,10.9,2.6s13.7,1.5,17.4-1.7,1.2-1.7,1.7-2.1.9-.3,1.4-.7c1.4-1.4,1.8-4.4-.8-4.7Z"/>
    </g>
    <path class="st44" d="M-250.9,39.7c-1.4-2.9-1.6-5.9-1.2-9.1-.4,0-.7.9-.8,1.1-1.9,5.2-2.5,13,2.4,16.8-1.9-2.5-3.1-6.5-.4-8.9Z"/>
    <g>
      <path class="st15" d="M-230,19.7c0,.2.1.6.2.9.5-.1,1.2,0,1.7.2,3,.8,6.6,2.6,9.1,4.4,0-2.3.3-4.5.8-6.7.8-3.7,3.4-8.9,3.8-12.1s-2.6-.2-3.5.4c-4.5,3.6-8.4,8.7-12.1,12.9Z"/>
      <path class="st45" d="M-219,25.2c1.2.9,2.8,2.2,3.8,3.3.3-6.5,1.4-13.2,1.2-19.7s0-1.9-.4-2.4c-.4,3.3-3,8.4-3.8,12.1s-.9,4.4-.8,6.7Z"/>
      <g>
        <path class="st15" d="M-252,29.6c0,.3,0,.7-.1,1.1-.4,3.2-.2,6.1,1.2,9.1s1.5,2.3,2.4,3.3c-4.3-9.1.7-20.7,4.9-29.1s1.5-3.2,2.4-4.7,1.9-2.7,2.5-2.8c1.6-.3,4,3.5,4.8,4.6-.9-1.8-2.6-6.8-5.3-5.9-4.5,1.5-12,19.9-12.8,24.5Z"/>
        <g>
          <path class="st45" d="M-243.5,13.9c-2,7-4.4,15.6-.2,22.3s2.9,3.1,4.4,4.5c0-7.5,7.8-8.8,11.5-13.8-.6-2.1-1.3-4.2-2-6.3s-.2-.7-.2-.9c-1.1-2.9-2.5-5.9-3.8-8.8-.8-1.1-3.2-4.9-4.8-4.6s-2.1,2.3-2.5,2.8c-.9,1.4-1.7,3.3-2.4,4.7Z"/>
          <path class="st34" d="M-238.3,10c-.7-.3-2.7,7.5-2.8,8.1-1.1,5.9-1.2,12.2.3,18v-3c1-.1,1.7.4,2.5.7l-2.3-1.7c.8-.2,1.5,0,2.2.2l-1.8-1.1,4.2,1.7-2.8-3c1.2.3,2.4.5,3.5,1.2l-4.4-4.1,2.5.7c.8.4,1.4.7,2,1.4l-4.2-4.5,4.3,2.1-4.4-3.4c1.8,0,3.4.6,4.8,1.5l-4.2-3.3c1.3,0,2.7.2,3.8,1-1-1.3-2.6-2.1-4.1-2.8l3.6.6c-.9-1.2-2.4-1.8-3.8-2.2,1.3-.3,2.7,0,4,.3l-3.8-2.5,3.6.3c-1-.9-2.2-1.7-3.5-2h2.8c-.6-.7-1.8-.7-2.6-1.1,1-.3,2-.6,3.1-.5-.8-.4-1.8-.4-2.7-.5.3-.6,1-.8,1.6-.9l-1.5-.3.2-.9Z"/>
        </g>
      </g>
    </g>
    <g>
      <path class="st18" d="M-250.9,39.7c-2.7,2.4-1.5,6.4.4,8.9-4.8-3.8-4.3-11.6-2.4-16.8s.4-1.1.8-1.1c0-.3,0-.7.1-1.1-4,3.2-7.7,7.2-10.5,11.5s-5,10.2-9.2,14l3.7-2c-2.4,2.7-5.3,5-8.6,6.5l4.5-1c-3.1,2-6.5,3.6-10.3,3.7-.2.2.2.3.3.3.8.3,2,.3,2.8.5-1,.4-2,.5-3.1.5-.7.5-1.9.2-2.7.3v42.4h42.3c1.8-2.2,4.2-4.6,5.3-7.3s.2-.3.2-.5c.5-1.6.7-3.7.4-5.3-1.2,5.3-5.6,10.1-10.7,12.2,2.8-2.7,4.8-6.3,6.1-9.9s1.1-3.2,1.2-4.7c-1,2-2.4,3.9-4.2,5.3,1.6-3.4,2.4-7.2,2.7-11-.8,1.9-1.8,4.1-3.4,5.5l2-10.1-2.2,4.7v-8.8c0,0-1.4,5.1-1.4,5.1-.4-3.2-.7-6.5.7-9.6l-1.5,2-1.3,3.2c-.7-5.7,1.5-11.6,6.4-14.9l-2.4,1.2c-2.2,1.7-4.1,3.7-5.2,6.2,2.3-10.9,15.8-17.9,26.6-17.1s10.3,3.3,15.5,3.6,7.2-.9,10.7-1.5c.7-1.2,3.5-2.1,4.9-1.9-4.5-2.8-14.5-6.8-16.5-11.8s-2.1-7.8-6.5-12.4-2.6-2.4-3.8-3.3c-2.5-1.8-6.1-3.6-9.1-4.4s-1.2-.3-1.7-.2c.7,2.1,1.4,4.2,2,6.3-3.7,5-11.5,6.3-11.5,13.8-1.6-1.4-3.3-2.7-4.4-4.5-4.2-6.7-1.8-15.3.2-22.3-4.2,8.4-9.2,20-4.9,29.1-.9-.9-1.8-2.1-2.4-3.3Z"/>
      <path class="st23" d="M-242.8,106.3h.1c2.1-2.1,4.1-4.4,5.2-7.3-1.1,2.6-3.4,5.1-5.3,7.3Z"/>
      <path class="st44" d="M-227,43.8c1.6-1.8,5.5-4.6,8.1-4s3.8,4.9,3.9,7.1c.8.5,1.2,1.1,1.9,1.8-.3-4-1.1-9.7-5.8-11s-8,2.7-9.4,7.4c.4-.4.9-1.1,1.4-1.3Z"/>
      <g>
        <path class="st15" d="M-227,43.8c1.6-.5,3,2,4.9,2.5,2.8.7,4.3-1,7.1.6,0-2.1-1.5-6.4-3.9-7.1s-6.5,2.1-8.1,4Z"/>
        <g>
          <path class="st33" d="M-222.9,41.8c-3.5,2.2,1.3,5.4,4.1,3.9s1.5-2.2,1.2-3.2-.5-.4-.7-.6c0,.4-.3.8-.8.9.7,2.6-2.9,3.2-3.4.7-.7.1-1.2-1.3,0-1.3-.3-.2,0-.6-.4-.3Z"/>
          <path class="st32" d="M-222.9,41.8c.4-.2.2.1.4.3.1,0,.3,0,.3.1.6-.5,1.4-.6,2.2-.5.2-1.4,1.3-.3,1.6.1s.6.4.7.6c0-2.7-3.1-1.4-4.7-.9s0-.2-.6.2Z"/>
          <path class="st28" d="M-222.1,42.2c.3.3,0,1.1-.3,1.2.5,2.4,4.1,1.8,3.4-.7-.6,0-1-.4-.9-1-.8-.1-1.6,0-2.2.5Z"/>
          <path class="st11" d="M-219.9,41.7c-.1.6.2,1,.9,1s.8-.4.8-.9c-.4-.4-1.4-1.5-1.6-.1Z"/>
          <path class="st11" d="M-222.5,42.1c-1.2,0-.7,1.4,0,1.3s.6-.8.3-1.2-.2-.1-.3-.1Z"/>
        </g>
      </g>
    </g>
  </g>
</svg>